M48
; DRILL file {KiCad 6.0.7} date 2022. okt. 17., hétfő, 15:43:16 CEST
; FORMAT={-:-/ absolute / metric / decimal}
; #@! TF.CreationDate,2022-10-17T15:43:16+02:00
; #@! TF.GenerationSoftware,Kicad,Pcbnew,6.0.7
; #@! TF.FileFunction,Plated,1,2,PTH
FMAT,2
METRIC
; #@! TA.AperFunction,Plated,PTH,ViaDrill
T1C0.400
; #@! TA.AperFunction,Plated,PTH,ComponentDrill
T2C0.700
; #@! TA.AperFunction,Plated,PTH,ComponentDrill
T3C0.750
; #@! TA.AperFunction,Plated,PTH,ComponentDrill
T4C0.800
; #@! TA.AperFunction,Plated,PTH,ComponentDrill
T5C1.100
; #@! TA.AperFunction,Plated,PTH,ComponentDrill
T6C1.270
; #@! TA.AperFunction,Plated,PTH,ComponentDrill
T7C1.300
%
G90
G05
T1
X75.184Y-108.712
X85.852Y-73.914
X96.012Y-98.552
X96.266Y-86.106
X98.298Y-110.236
X101.092Y-81.788
X101.854Y-99.06
X101.854Y-108.204
X102.362Y-96.774
T2
X104.775Y-74.295
X104.775Y-81.915
X104.775Y-84.455
X104.775Y-92.075
X104.775Y-95.25
X104.775Y-102.87
X104.775Y-106.68
X104.775Y-114.3
T3
X69.85Y-100.33
X70.485Y-94.615
X71.12Y-99.06
X71.755Y-93.345
X72.39Y-100.33
X73.025Y-94.615
X76.2Y-94.615
X77.47Y-93.345
X78.74Y-94.615
X81.915Y-87.63
X81.915Y-94.615
X83.185Y-86.36
X83.185Y-93.345
X84.455Y-87.63
X84.455Y-94.615
X104.775Y-68.58
X104.775Y-71.12
X106.045Y-69.85
T4
X66.04Y-74.93
X66.04Y-77.43
X66.04Y-84.02
X66.04Y-88.9
X66.04Y-96.774
X66.04Y-99.274
X71.12Y-66.04
X71.12Y-68.58
X71.12Y-71.12
X71.12Y-73.66
X71.12Y-76.2
X71.12Y-78.74
X71.12Y-81.28
X71.12Y-83.82
X71.12Y-86.36
X71.12Y-88.9
X78.74Y-66.04
X78.74Y-68.58
X78.74Y-71.12
X78.74Y-73.66
X78.74Y-76.2
X78.74Y-78.74
X78.74Y-81.28
X78.74Y-83.82
X78.74Y-86.36
X78.74Y-88.9
X81.788Y-77.51
X81.788Y-82.51
X84.836Y-77.51
X84.836Y-82.51
T5
X82.621Y-67.564
X82.621Y-70.104
X82.621Y-72.644
T6
X77.47Y-100.33
X77.47Y-105.41
X77.47Y-115.57
X77.47Y-120.65
X77.47Y-125.73
X85.09Y-100.33
X85.09Y-105.41
X85.09Y-115.57
X85.09Y-120.65
X85.09Y-125.73
X91.44Y-68.58
X91.44Y-73.66
X91.44Y-83.82
X91.44Y-88.9
X91.44Y-93.98
X91.44Y-100.33
X91.44Y-105.41
X91.44Y-115.57
X91.44Y-120.65
X91.44Y-125.73
X99.06Y-68.58
X99.06Y-73.66
X99.06Y-83.82
X99.06Y-88.9
X99.06Y-93.98
X99.06Y-100.33
X99.06Y-105.41
X99.06Y-115.57
X99.06Y-120.65
X99.06Y-125.73
T7
X68.021Y-106.675
X68.021Y-111.755
X68.021Y-116.835
X68.021Y-121.915
X68.021Y-126.995
X68.021Y-132.075
X68.021Y-137.155
X76.83Y-134.925
X81.91Y-134.925
X86.99Y-134.925
X92.07Y-134.925
X97.15Y-134.925
X102.23Y-134.925
X113.665Y-72.39
X113.665Y-77.47
X113.665Y-82.55
X113.665Y-87.63
X113.665Y-95.25
X113.665Y-100.33
X113.665Y-105.41
X113.665Y-110.49
X113.665Y-115.57
X113.665Y-120.65
X113.665Y-125.85
X113.665Y-130.93
X113.665Y-136.01
T0
M30
