%TF.GenerationSoftware,KiCad,Pcbnew,5.1.8-5.1.8*%
%TF.CreationDate,2021-02-08T23:37:39+01:00*%
%TF.ProjectId,lrchanger,6c726368-616e-4676-9572-2e6b69636164,rev?*%
%TF.SameCoordinates,Original*%
%TF.FileFunction,Legend,Top*%
%TF.FilePolarity,Positive*%
%FSLAX46Y46*%
G04 Gerber Fmt 4.6, Leading zero omitted, Abs format (unit mm)*
G04 Created by KiCad (PCBNEW 5.1.8-5.1.8) date 2021-02-08 23:37:39*
%MOMM*%
%LPD*%
G01*
G04 APERTURE LIST*
%ADD10C,0.100000*%
%ADD11C,0.150000*%
%ADD12C,0.300000*%
%ADD13C,0.400000*%
%TA.AperFunction,Profile*%
%ADD14C,0.050000*%
%TD*%
%ADD15C,0.120000*%
G04 APERTURE END LIST*
D10*
D11*
X177002200Y-166007200D02*
X177002200Y-198007200D01*
X285002200Y-198007200D01*
X285002200Y-166007200D01*
X177002200Y-166007200D01*
D10*
D11*
X10000000Y-10000000D02*
X10000000Y-200007200D01*
X287002200Y-200007200D01*
X287002200Y-10000000D01*
X10000000Y-10000000D01*
D10*
D11*
X12000000Y-12000000D02*
X12000000Y-198007200D01*
X285002200Y-198007200D01*
X285002200Y-12000000D01*
X12000000Y-12000000D01*
D10*
D11*
X60000000Y-12000000D02*
X60000000Y-10000000D01*
D10*
D11*
X110000000Y-12000000D02*
X110000000Y-10000000D01*
D10*
D11*
X160000000Y-12000000D02*
X160000000Y-10000000D01*
D10*
D11*
X210000000Y-12000000D02*
X210000000Y-10000000D01*
D10*
D11*
X260000000Y-12000000D02*
X260000000Y-10000000D01*
D10*
D11*
X36065476Y-11588095D02*
X35322619Y-11588095D01*
X35694047Y-11588095D02*
X35694047Y-10288095D01*
X35570238Y-10473809D01*
X35446428Y-10597619D01*
X35322619Y-10659523D01*
D10*
D11*
X85322619Y-10411904D02*
X85384523Y-10350000D01*
X85508333Y-10288095D01*
X85817857Y-10288095D01*
X85941666Y-10350000D01*
X86003571Y-10411904D01*
X86065476Y-10535714D01*
X86065476Y-10659523D01*
X86003571Y-10845238D01*
X85260714Y-11588095D01*
X86065476Y-11588095D01*
D10*
D11*
X135260714Y-10288095D02*
X136065476Y-10288095D01*
X135632142Y-10783333D01*
X135817857Y-10783333D01*
X135941666Y-10845238D01*
X136003571Y-10907142D01*
X136065476Y-11030952D01*
X136065476Y-11340476D01*
X136003571Y-11464285D01*
X135941666Y-11526190D01*
X135817857Y-11588095D01*
X135446428Y-11588095D01*
X135322619Y-11526190D01*
X135260714Y-11464285D01*
D10*
D11*
X185941666Y-10721428D02*
X185941666Y-11588095D01*
X185632142Y-10226190D02*
X185322619Y-11154761D01*
X186127380Y-11154761D01*
D10*
D11*
X236003571Y-10288095D02*
X235384523Y-10288095D01*
X235322619Y-10907142D01*
X235384523Y-10845238D01*
X235508333Y-10783333D01*
X235817857Y-10783333D01*
X235941666Y-10845238D01*
X236003571Y-10907142D01*
X236065476Y-11030952D01*
X236065476Y-11340476D01*
X236003571Y-11464285D01*
X235941666Y-11526190D01*
X235817857Y-11588095D01*
X235508333Y-11588095D01*
X235384523Y-11526190D01*
X235322619Y-11464285D01*
D10*
D11*
X285941666Y-10288095D02*
X285694047Y-10288095D01*
X285570238Y-10350000D01*
X285508333Y-10411904D01*
X285384523Y-10597619D01*
X285322619Y-10845238D01*
X285322619Y-11340476D01*
X285384523Y-11464285D01*
X285446428Y-11526190D01*
X285570238Y-11588095D01*
X285817857Y-11588095D01*
X285941666Y-11526190D01*
X286003571Y-11464285D01*
X286065476Y-11340476D01*
X286065476Y-11030952D01*
X286003571Y-10907142D01*
X285941666Y-10845238D01*
X285817857Y-10783333D01*
X285570238Y-10783333D01*
X285446428Y-10845238D01*
X285384523Y-10907142D01*
X285322619Y-11030952D01*
D10*
D11*
X60000000Y-198007200D02*
X60000000Y-200007200D01*
D10*
D11*
X110000000Y-198007200D02*
X110000000Y-200007200D01*
D10*
D11*
X160000000Y-198007200D02*
X160000000Y-200007200D01*
D10*
D11*
X210000000Y-198007200D02*
X210000000Y-200007200D01*
D10*
D11*
X260000000Y-198007200D02*
X260000000Y-200007200D01*
D10*
D11*
X36065476Y-199595295D02*
X35322619Y-199595295D01*
X35694047Y-199595295D02*
X35694047Y-198295295D01*
X35570238Y-198481009D01*
X35446428Y-198604819D01*
X35322619Y-198666723D01*
D10*
D11*
X85322619Y-198419104D02*
X85384523Y-198357200D01*
X85508333Y-198295295D01*
X85817857Y-198295295D01*
X85941666Y-198357200D01*
X86003571Y-198419104D01*
X86065476Y-198542914D01*
X86065476Y-198666723D01*
X86003571Y-198852438D01*
X85260714Y-199595295D01*
X86065476Y-199595295D01*
D10*
D11*
X135260714Y-198295295D02*
X136065476Y-198295295D01*
X135632142Y-198790533D01*
X135817857Y-198790533D01*
X135941666Y-198852438D01*
X136003571Y-198914342D01*
X136065476Y-199038152D01*
X136065476Y-199347676D01*
X136003571Y-199471485D01*
X135941666Y-199533390D01*
X135817857Y-199595295D01*
X135446428Y-199595295D01*
X135322619Y-199533390D01*
X135260714Y-199471485D01*
D10*
D11*
X185941666Y-198728628D02*
X185941666Y-199595295D01*
X185632142Y-198233390D02*
X185322619Y-199161961D01*
X186127380Y-199161961D01*
D10*
D11*
X236003571Y-198295295D02*
X235384523Y-198295295D01*
X235322619Y-198914342D01*
X235384523Y-198852438D01*
X235508333Y-198790533D01*
X235817857Y-198790533D01*
X235941666Y-198852438D01*
X236003571Y-198914342D01*
X236065476Y-199038152D01*
X236065476Y-199347676D01*
X236003571Y-199471485D01*
X235941666Y-199533390D01*
X235817857Y-199595295D01*
X235508333Y-199595295D01*
X235384523Y-199533390D01*
X235322619Y-199471485D01*
D10*
D11*
X285941666Y-198295295D02*
X285694047Y-198295295D01*
X285570238Y-198357200D01*
X285508333Y-198419104D01*
X285384523Y-198604819D01*
X285322619Y-198852438D01*
X285322619Y-199347676D01*
X285384523Y-199471485D01*
X285446428Y-199533390D01*
X285570238Y-199595295D01*
X285817857Y-199595295D01*
X285941666Y-199533390D01*
X286003571Y-199471485D01*
X286065476Y-199347676D01*
X286065476Y-199038152D01*
X286003571Y-198914342D01*
X285941666Y-198852438D01*
X285817857Y-198790533D01*
X285570238Y-198790533D01*
X285446428Y-198852438D01*
X285384523Y-198914342D01*
X285322619Y-199038152D01*
D10*
D11*
X10000000Y-60000000D02*
X12000000Y-60000000D01*
D10*
D11*
X10000000Y-110000000D02*
X12000000Y-110000000D01*
D10*
D11*
X10000000Y-160000000D02*
X12000000Y-160000000D01*
D10*
D11*
X10690476Y-35216666D02*
X11309523Y-35216666D01*
X10566666Y-35588095D02*
X11000000Y-34288095D01*
X11433333Y-35588095D01*
D10*
D11*
X11092857Y-84907142D02*
X11278571Y-84969047D01*
X11340476Y-85030952D01*
X11402380Y-85154761D01*
X11402380Y-85340476D01*
X11340476Y-85464285D01*
X11278571Y-85526190D01*
X11154761Y-85588095D01*
X10659523Y-85588095D01*
X10659523Y-84288095D01*
X11092857Y-84288095D01*
X11216666Y-84350000D01*
X11278571Y-84411904D01*
X11340476Y-84535714D01*
X11340476Y-84659523D01*
X11278571Y-84783333D01*
X11216666Y-84845238D01*
X11092857Y-84907142D01*
X10659523Y-84907142D01*
D10*
D11*
X11402380Y-135464285D02*
X11340476Y-135526190D01*
X11154761Y-135588095D01*
X11030952Y-135588095D01*
X10845238Y-135526190D01*
X10721428Y-135402380D01*
X10659523Y-135278571D01*
X10597619Y-135030952D01*
X10597619Y-134845238D01*
X10659523Y-134597619D01*
X10721428Y-134473809D01*
X10845238Y-134350000D01*
X11030952Y-134288095D01*
X11154761Y-134288095D01*
X11340476Y-134350000D01*
X11402380Y-134411904D01*
D10*
D11*
X10659523Y-185588095D02*
X10659523Y-184288095D01*
X10969047Y-184288095D01*
X11154761Y-184350000D01*
X11278571Y-184473809D01*
X11340476Y-184597619D01*
X11402380Y-184845238D01*
X11402380Y-185030952D01*
X11340476Y-185278571D01*
X11278571Y-185402380D01*
X11154761Y-185526190D01*
X10969047Y-185588095D01*
X10659523Y-185588095D01*
D10*
D11*
X287002200Y-60000000D02*
X285002200Y-60000000D01*
D10*
D11*
X287002200Y-110000000D02*
X285002200Y-110000000D01*
D10*
D11*
X287002200Y-160000000D02*
X285002200Y-160000000D01*
D10*
D11*
X285692676Y-35216666D02*
X286311723Y-35216666D01*
X285568866Y-35588095D02*
X286002200Y-34288095D01*
X286435533Y-35588095D01*
D10*
D11*
X286095057Y-84907142D02*
X286280771Y-84969047D01*
X286342676Y-85030952D01*
X286404580Y-85154761D01*
X286404580Y-85340476D01*
X286342676Y-85464285D01*
X286280771Y-85526190D01*
X286156961Y-85588095D01*
X285661723Y-85588095D01*
X285661723Y-84288095D01*
X286095057Y-84288095D01*
X286218866Y-84350000D01*
X286280771Y-84411904D01*
X286342676Y-84535714D01*
X286342676Y-84659523D01*
X286280771Y-84783333D01*
X286218866Y-84845238D01*
X286095057Y-84907142D01*
X285661723Y-84907142D01*
D10*
D11*
X286404580Y-135464285D02*
X286342676Y-135526190D01*
X286156961Y-135588095D01*
X286033152Y-135588095D01*
X285847438Y-135526190D01*
X285723628Y-135402380D01*
X285661723Y-135278571D01*
X285599819Y-135030952D01*
X285599819Y-134845238D01*
X285661723Y-134597619D01*
X285723628Y-134473809D01*
X285847438Y-134350000D01*
X286033152Y-134288095D01*
X286156961Y-134288095D01*
X286342676Y-134350000D01*
X286404580Y-134411904D01*
D10*
D11*
X285661723Y-185588095D02*
X285661723Y-184288095D01*
X285971247Y-184288095D01*
X286156961Y-184350000D01*
X286280771Y-184473809D01*
X286342676Y-184597619D01*
X286404580Y-184845238D01*
X286404580Y-185030952D01*
X286342676Y-185278571D01*
X286280771Y-185402380D01*
X286156961Y-185526190D01*
X285971247Y-185588095D01*
X285661723Y-185588095D01*
D10*
D11*
X200434342Y-193785771D02*
X200434342Y-192285771D01*
X200791485Y-192285771D01*
X201005771Y-192357200D01*
X201148628Y-192500057D01*
X201220057Y-192642914D01*
X201291485Y-192928628D01*
X201291485Y-193142914D01*
X201220057Y-193428628D01*
X201148628Y-193571485D01*
X201005771Y-193714342D01*
X200791485Y-193785771D01*
X200434342Y-193785771D01*
X202577200Y-193785771D02*
X202577200Y-193000057D01*
X202505771Y-192857200D01*
X202362914Y-192785771D01*
X202077200Y-192785771D01*
X201934342Y-192857200D01*
X202577200Y-193714342D02*
X202434342Y-193785771D01*
X202077200Y-193785771D01*
X201934342Y-193714342D01*
X201862914Y-193571485D01*
X201862914Y-193428628D01*
X201934342Y-193285771D01*
X202077200Y-193214342D01*
X202434342Y-193214342D01*
X202577200Y-193142914D01*
X203077200Y-192785771D02*
X203648628Y-192785771D01*
X203291485Y-192285771D02*
X203291485Y-193571485D01*
X203362914Y-193714342D01*
X203505771Y-193785771D01*
X203648628Y-193785771D01*
X204720057Y-193714342D02*
X204577200Y-193785771D01*
X204291485Y-193785771D01*
X204148628Y-193714342D01*
X204077200Y-193571485D01*
X204077200Y-193000057D01*
X204148628Y-192857200D01*
X204291485Y-192785771D01*
X204577200Y-192785771D01*
X204720057Y-192857200D01*
X204791485Y-193000057D01*
X204791485Y-193142914D01*
X204077200Y-193285771D01*
X205434342Y-193642914D02*
X205505771Y-193714342D01*
X205434342Y-193785771D01*
X205362914Y-193714342D01*
X205434342Y-193642914D01*
X205434342Y-193785771D01*
X205434342Y-192857200D02*
X205505771Y-192928628D01*
X205434342Y-193000057D01*
X205362914Y-192928628D01*
X205434342Y-192857200D01*
X205434342Y-193000057D01*
D10*
D11*
X177002200Y-194507200D02*
X285002200Y-194507200D01*
D10*
D11*
X178434342Y-196585771D02*
X178434342Y-195085771D01*
X179291485Y-196585771D02*
X178648628Y-195728628D01*
X179291485Y-195085771D02*
X178434342Y-195942914D01*
X179934342Y-196585771D02*
X179934342Y-195585771D01*
X179934342Y-195085771D02*
X179862914Y-195157200D01*
X179934342Y-195228628D01*
X180005771Y-195157200D01*
X179934342Y-195085771D01*
X179934342Y-195228628D01*
X181505771Y-196442914D02*
X181434342Y-196514342D01*
X181220057Y-196585771D01*
X181077200Y-196585771D01*
X180862914Y-196514342D01*
X180720057Y-196371485D01*
X180648628Y-196228628D01*
X180577200Y-195942914D01*
X180577200Y-195728628D01*
X180648628Y-195442914D01*
X180720057Y-195300057D01*
X180862914Y-195157200D01*
X181077200Y-195085771D01*
X181220057Y-195085771D01*
X181434342Y-195157200D01*
X181505771Y-195228628D01*
X182791485Y-196585771D02*
X182791485Y-195800057D01*
X182720057Y-195657200D01*
X182577200Y-195585771D01*
X182291485Y-195585771D01*
X182148628Y-195657200D01*
X182791485Y-196514342D02*
X182648628Y-196585771D01*
X182291485Y-196585771D01*
X182148628Y-196514342D01*
X182077200Y-196371485D01*
X182077200Y-196228628D01*
X182148628Y-196085771D01*
X182291485Y-196014342D01*
X182648628Y-196014342D01*
X182791485Y-195942914D01*
X184148628Y-196585771D02*
X184148628Y-195085771D01*
X184148628Y-196514342D02*
X184005771Y-196585771D01*
X183720057Y-196585771D01*
X183577200Y-196514342D01*
X183505771Y-196442914D01*
X183434342Y-196300057D01*
X183434342Y-195871485D01*
X183505771Y-195728628D01*
X183577200Y-195657200D01*
X183720057Y-195585771D01*
X184005771Y-195585771D01*
X184148628Y-195657200D01*
X186005771Y-195800057D02*
X186505771Y-195800057D01*
X186720057Y-196585771D02*
X186005771Y-196585771D01*
X186005771Y-195085771D01*
X186720057Y-195085771D01*
X187362914Y-196442914D02*
X187434342Y-196514342D01*
X187362914Y-196585771D01*
X187291485Y-196514342D01*
X187362914Y-196442914D01*
X187362914Y-196585771D01*
X188077200Y-196585771D02*
X188077200Y-195085771D01*
X188434342Y-195085771D01*
X188648628Y-195157200D01*
X188791485Y-195300057D01*
X188862914Y-195442914D01*
X188934342Y-195728628D01*
X188934342Y-195942914D01*
X188862914Y-196228628D01*
X188791485Y-196371485D01*
X188648628Y-196514342D01*
X188434342Y-196585771D01*
X188077200Y-196585771D01*
X189577200Y-196442914D02*
X189648628Y-196514342D01*
X189577200Y-196585771D01*
X189505771Y-196514342D01*
X189577200Y-196442914D01*
X189577200Y-196585771D01*
X190220057Y-196157200D02*
X190934342Y-196157200D01*
X190077200Y-196585771D02*
X190577200Y-195085771D01*
X191077200Y-196585771D01*
X191577200Y-196442914D02*
X191648628Y-196514342D01*
X191577200Y-196585771D01*
X191505771Y-196514342D01*
X191577200Y-196442914D01*
X191577200Y-196585771D01*
X194577200Y-196585771D02*
X194577200Y-195085771D01*
X194720057Y-196014342D02*
X195148628Y-196585771D01*
X195148628Y-195585771D02*
X194577200Y-196157200D01*
X195791485Y-196585771D02*
X195791485Y-195585771D01*
X195791485Y-195085771D02*
X195720057Y-195157200D01*
X195791485Y-195228628D01*
X195862914Y-195157200D01*
X195791485Y-195085771D01*
X195791485Y-195228628D01*
X197148628Y-196514342D02*
X197005771Y-196585771D01*
X196720057Y-196585771D01*
X196577200Y-196514342D01*
X196505771Y-196442914D01*
X196434342Y-196300057D01*
X196434342Y-195871485D01*
X196505771Y-195728628D01*
X196577200Y-195657200D01*
X196720057Y-195585771D01*
X197005771Y-195585771D01*
X197148628Y-195657200D01*
X198434342Y-196585771D02*
X198434342Y-195800057D01*
X198362914Y-195657200D01*
X198220057Y-195585771D01*
X197934342Y-195585771D01*
X197791485Y-195657200D01*
X198434342Y-196514342D02*
X198291485Y-196585771D01*
X197934342Y-196585771D01*
X197791485Y-196514342D01*
X197720057Y-196371485D01*
X197720057Y-196228628D01*
X197791485Y-196085771D01*
X197934342Y-196014342D01*
X198291485Y-196014342D01*
X198434342Y-195942914D01*
X199791485Y-196585771D02*
X199791485Y-195085771D01*
X199791485Y-196514342D02*
X199648628Y-196585771D01*
X199362914Y-196585771D01*
X199220057Y-196514342D01*
X199148628Y-196442914D01*
X199077200Y-196300057D01*
X199077200Y-195871485D01*
X199148628Y-195728628D01*
X199220057Y-195657200D01*
X199362914Y-195585771D01*
X199648628Y-195585771D01*
X199791485Y-195657200D01*
X202362914Y-195085771D02*
X201648628Y-195085771D01*
X201577200Y-195800057D01*
X201648628Y-195728628D01*
X201791485Y-195657200D01*
X202148628Y-195657200D01*
X202291485Y-195728628D01*
X202362914Y-195800057D01*
X202434342Y-195942914D01*
X202434342Y-196300057D01*
X202362914Y-196442914D01*
X202291485Y-196514342D01*
X202148628Y-196585771D01*
X201791485Y-196585771D01*
X201648628Y-196514342D01*
X201577200Y-196442914D01*
X203077200Y-196442914D02*
X203148628Y-196514342D01*
X203077200Y-196585771D01*
X203005771Y-196514342D01*
X203077200Y-196442914D01*
X203077200Y-196585771D01*
X204577200Y-196585771D02*
X203720057Y-196585771D01*
X204148628Y-196585771D02*
X204148628Y-195085771D01*
X204005771Y-195300057D01*
X203862914Y-195442914D01*
X203720057Y-195514342D01*
X205220057Y-196442914D02*
X205291485Y-196514342D01*
X205220057Y-196585771D01*
X205148628Y-196514342D01*
X205220057Y-196442914D01*
X205220057Y-196585771D01*
X206148628Y-195728628D02*
X206005771Y-195657200D01*
X205934342Y-195585771D01*
X205862914Y-195442914D01*
X205862914Y-195371485D01*
X205934342Y-195228628D01*
X206005771Y-195157200D01*
X206148628Y-195085771D01*
X206434342Y-195085771D01*
X206577200Y-195157200D01*
X206648628Y-195228628D01*
X206720057Y-195371485D01*
X206720057Y-195442914D01*
X206648628Y-195585771D01*
X206577200Y-195657200D01*
X206434342Y-195728628D01*
X206148628Y-195728628D01*
X206005771Y-195800057D01*
X205934342Y-195871485D01*
X205862914Y-196014342D01*
X205862914Y-196300057D01*
X205934342Y-196442914D01*
X206005771Y-196514342D01*
X206148628Y-196585771D01*
X206434342Y-196585771D01*
X206577200Y-196514342D01*
X206648628Y-196442914D01*
X206720057Y-196300057D01*
X206720057Y-196014342D01*
X206648628Y-195871485D01*
X206577200Y-195800057D01*
X206434342Y-195728628D01*
X207362914Y-196014342D02*
X208505771Y-196014342D01*
X209934342Y-195085771D02*
X209220057Y-195085771D01*
X209148628Y-195800057D01*
X209220057Y-195728628D01*
X209362914Y-195657200D01*
X209720057Y-195657200D01*
X209862914Y-195728628D01*
X209934342Y-195800057D01*
X210005771Y-195942914D01*
X210005771Y-196300057D01*
X209934342Y-196442914D01*
X209862914Y-196514342D01*
X209720057Y-196585771D01*
X209362914Y-196585771D01*
X209220057Y-196514342D01*
X209148628Y-196442914D01*
X210648628Y-196442914D02*
X210720057Y-196514342D01*
X210648628Y-196585771D01*
X210577200Y-196514342D01*
X210648628Y-196442914D01*
X210648628Y-196585771D01*
X212148628Y-196585771D02*
X211291485Y-196585771D01*
X211720057Y-196585771D02*
X211720057Y-195085771D01*
X211577200Y-195300057D01*
X211434342Y-195442914D01*
X211291485Y-195514342D01*
X212791485Y-196442914D02*
X212862914Y-196514342D01*
X212791485Y-196585771D01*
X212720057Y-196514342D01*
X212791485Y-196442914D01*
X212791485Y-196585771D01*
X213720057Y-195728628D02*
X213577200Y-195657200D01*
X213505771Y-195585771D01*
X213434342Y-195442914D01*
X213434342Y-195371485D01*
X213505771Y-195228628D01*
X213577200Y-195157200D01*
X213720057Y-195085771D01*
X214005771Y-195085771D01*
X214148628Y-195157200D01*
X214220057Y-195228628D01*
X214291485Y-195371485D01*
X214291485Y-195442914D01*
X214220057Y-195585771D01*
X214148628Y-195657200D01*
X214005771Y-195728628D01*
X213720057Y-195728628D01*
X213577200Y-195800057D01*
X213505771Y-195871485D01*
X213434342Y-196014342D01*
X213434342Y-196300057D01*
X213505771Y-196442914D01*
X213577200Y-196514342D01*
X213720057Y-196585771D01*
X214005771Y-196585771D01*
X214148628Y-196514342D01*
X214220057Y-196442914D01*
X214291485Y-196300057D01*
X214291485Y-196014342D01*
X214220057Y-195871485D01*
X214148628Y-195800057D01*
X214005771Y-195728628D01*
D10*
D11*
X177002200Y-191507200D02*
X285002200Y-191507200D01*
D10*
D12*
X264411485Y-193785771D02*
X263911485Y-193071485D01*
X263554342Y-193785771D02*
X263554342Y-192285771D01*
X264125771Y-192285771D01*
X264268628Y-192357200D01*
X264340057Y-192428628D01*
X264411485Y-192571485D01*
X264411485Y-192785771D01*
X264340057Y-192928628D01*
X264268628Y-193000057D01*
X264125771Y-193071485D01*
X263554342Y-193071485D01*
X265625771Y-193714342D02*
X265482914Y-193785771D01*
X265197200Y-193785771D01*
X265054342Y-193714342D01*
X264982914Y-193571485D01*
X264982914Y-193000057D01*
X265054342Y-192857200D01*
X265197200Y-192785771D01*
X265482914Y-192785771D01*
X265625771Y-192857200D01*
X265697200Y-193000057D01*
X265697200Y-193142914D01*
X264982914Y-193285771D01*
X266197200Y-192785771D02*
X266554342Y-193785771D01*
X266911485Y-192785771D01*
X267482914Y-193642914D02*
X267554342Y-193714342D01*
X267482914Y-193785771D01*
X267411485Y-193714342D01*
X267482914Y-193642914D01*
X267482914Y-193785771D01*
X267482914Y-192857200D02*
X267554342Y-192928628D01*
X267482914Y-193000057D01*
X267411485Y-192928628D01*
X267482914Y-192857200D01*
X267482914Y-193000057D01*
D10*
D11*
X178362914Y-193714342D02*
X178577200Y-193785771D01*
X178934342Y-193785771D01*
X179077200Y-193714342D01*
X179148628Y-193642914D01*
X179220057Y-193500057D01*
X179220057Y-193357200D01*
X179148628Y-193214342D01*
X179077200Y-193142914D01*
X178934342Y-193071485D01*
X178648628Y-193000057D01*
X178505771Y-192928628D01*
X178434342Y-192857200D01*
X178362914Y-192714342D01*
X178362914Y-192571485D01*
X178434342Y-192428628D01*
X178505771Y-192357200D01*
X178648628Y-192285771D01*
X179005771Y-192285771D01*
X179220057Y-192357200D01*
X179862914Y-193785771D02*
X179862914Y-192785771D01*
X179862914Y-192285771D02*
X179791485Y-192357200D01*
X179862914Y-192428628D01*
X179934342Y-192357200D01*
X179862914Y-192285771D01*
X179862914Y-192428628D01*
X180434342Y-192785771D02*
X181220057Y-192785771D01*
X180434342Y-193785771D01*
X181220057Y-193785771D01*
X182362914Y-193714342D02*
X182220057Y-193785771D01*
X181934342Y-193785771D01*
X181791485Y-193714342D01*
X181720057Y-193571485D01*
X181720057Y-193000057D01*
X181791485Y-192857200D01*
X181934342Y-192785771D01*
X182220057Y-192785771D01*
X182362914Y-192857200D01*
X182434342Y-193000057D01*
X182434342Y-193142914D01*
X181720057Y-193285771D01*
X183077200Y-193642914D02*
X183148628Y-193714342D01*
X183077200Y-193785771D01*
X183005771Y-193714342D01*
X183077200Y-193642914D01*
X183077200Y-193785771D01*
X183077200Y-192857200D02*
X183148628Y-192928628D01*
X183077200Y-193000057D01*
X183005771Y-192928628D01*
X183077200Y-192857200D01*
X183077200Y-193000057D01*
X184862914Y-193357200D02*
X185577200Y-193357200D01*
X184720057Y-193785771D02*
X185220057Y-192285771D01*
X185720057Y-193785771D01*
X186862914Y-192785771D02*
X186862914Y-193785771D01*
X186505771Y-192214342D02*
X186148628Y-193285771D01*
X187077200Y-193285771D01*
D10*
D11*
X263434342Y-196585771D02*
X263434342Y-195085771D01*
X264791485Y-196585771D02*
X264791485Y-195085771D01*
X264791485Y-196514342D02*
X264648628Y-196585771D01*
X264362914Y-196585771D01*
X264220057Y-196514342D01*
X264148628Y-196442914D01*
X264077200Y-196300057D01*
X264077200Y-195871485D01*
X264148628Y-195728628D01*
X264220057Y-195657200D01*
X264362914Y-195585771D01*
X264648628Y-195585771D01*
X264791485Y-195657200D01*
X265505771Y-196442914D02*
X265577200Y-196514342D01*
X265505771Y-196585771D01*
X265434342Y-196514342D01*
X265505771Y-196442914D01*
X265505771Y-196585771D01*
X265505771Y-195657200D02*
X265577200Y-195728628D01*
X265505771Y-195800057D01*
X265434342Y-195728628D01*
X265505771Y-195657200D01*
X265505771Y-195800057D01*
X268148628Y-196585771D02*
X267291485Y-196585771D01*
X267720057Y-196585771D02*
X267720057Y-195085771D01*
X267577200Y-195300057D01*
X267434342Y-195442914D01*
X267291485Y-195514342D01*
X269862914Y-195014342D02*
X268577200Y-196942914D01*
X271148628Y-196585771D02*
X270291485Y-196585771D01*
X270720057Y-196585771D02*
X270720057Y-195085771D01*
X270577200Y-195300057D01*
X270434342Y-195442914D01*
X270291485Y-195514342D01*
D10*
D11*
X177002200Y-187507200D02*
X285002200Y-187507200D01*
D10*
D13*
X178714580Y-188211961D02*
X179857438Y-188211961D01*
X179036009Y-190211961D02*
X179286009Y-188211961D01*
X180274104Y-190211961D02*
X180440771Y-188878628D01*
X180524104Y-188211961D02*
X180416961Y-188307200D01*
X180500295Y-188402438D01*
X180607438Y-188307200D01*
X180524104Y-188211961D01*
X180500295Y-188402438D01*
X181107438Y-188878628D02*
X181869342Y-188878628D01*
X181476485Y-188211961D02*
X181262200Y-189926247D01*
X181333628Y-190116723D01*
X181512200Y-190211961D01*
X181702676Y-190211961D01*
X182655057Y-190211961D02*
X182476485Y-190116723D01*
X182405057Y-189926247D01*
X182619342Y-188211961D01*
X184190771Y-190116723D02*
X183988390Y-190211961D01*
X183607438Y-190211961D01*
X183428866Y-190116723D01*
X183357438Y-189926247D01*
X183452676Y-189164342D01*
X183571723Y-188973866D01*
X183774104Y-188878628D01*
X184155057Y-188878628D01*
X184333628Y-188973866D01*
X184405057Y-189164342D01*
X184381247Y-189354819D01*
X183405057Y-189545295D01*
X185155057Y-190021485D02*
X185238390Y-190116723D01*
X185131247Y-190211961D01*
X185047914Y-190116723D01*
X185155057Y-190021485D01*
X185131247Y-190211961D01*
X185286009Y-188973866D02*
X185369342Y-189069104D01*
X185262200Y-189164342D01*
X185178866Y-189069104D01*
X185286009Y-188973866D01*
X185262200Y-189164342D01*
D10*
D11*
X178934342Y-185600057D02*
X178434342Y-185600057D01*
X178434342Y-186385771D02*
X178434342Y-184885771D01*
X179148628Y-184885771D01*
X179720057Y-186385771D02*
X179720057Y-185385771D01*
X179720057Y-184885771D02*
X179648628Y-184957200D01*
X179720057Y-185028628D01*
X179791485Y-184957200D01*
X179720057Y-184885771D01*
X179720057Y-185028628D01*
X180648628Y-186385771D02*
X180505771Y-186314342D01*
X180434342Y-186171485D01*
X180434342Y-184885771D01*
X181791485Y-186314342D02*
X181648628Y-186385771D01*
X181362914Y-186385771D01*
X181220057Y-186314342D01*
X181148628Y-186171485D01*
X181148628Y-185600057D01*
X181220057Y-185457200D01*
X181362914Y-185385771D01*
X181648628Y-185385771D01*
X181791485Y-185457200D01*
X181862914Y-185600057D01*
X181862914Y-185742914D01*
X181148628Y-185885771D01*
X182505771Y-186242914D02*
X182577200Y-186314342D01*
X182505771Y-186385771D01*
X182434342Y-186314342D01*
X182505771Y-186242914D01*
X182505771Y-186385771D01*
X182505771Y-185457200D02*
X182577200Y-185528628D01*
X182505771Y-185600057D01*
X182434342Y-185528628D01*
X182505771Y-185457200D01*
X182505771Y-185600057D01*
X184577200Y-186385771D02*
X184434342Y-186314342D01*
X184362914Y-186171485D01*
X184362914Y-184885771D01*
X185148628Y-186385771D02*
X185148628Y-185385771D01*
X185148628Y-185671485D02*
X185220057Y-185528628D01*
X185291485Y-185457200D01*
X185434342Y-185385771D01*
X185577200Y-185385771D01*
X186720057Y-186314342D02*
X186577200Y-186385771D01*
X186291485Y-186385771D01*
X186148628Y-186314342D01*
X186077200Y-186242914D01*
X186005771Y-186100057D01*
X186005771Y-185671485D01*
X186077200Y-185528628D01*
X186148628Y-185457200D01*
X186291485Y-185385771D01*
X186577200Y-185385771D01*
X186720057Y-185457200D01*
X187362914Y-186385771D02*
X187362914Y-184885771D01*
X188005771Y-186385771D02*
X188005771Y-185600057D01*
X187934342Y-185457200D01*
X187791485Y-185385771D01*
X187577200Y-185385771D01*
X187434342Y-185457200D01*
X187362914Y-185528628D01*
X189362914Y-186385771D02*
X189362914Y-185600057D01*
X189291485Y-185457200D01*
X189148628Y-185385771D01*
X188862914Y-185385771D01*
X188720057Y-185457200D01*
X189362914Y-186314342D02*
X189220057Y-186385771D01*
X188862914Y-186385771D01*
X188720057Y-186314342D01*
X188648628Y-186171485D01*
X188648628Y-186028628D01*
X188720057Y-185885771D01*
X188862914Y-185814342D01*
X189220057Y-185814342D01*
X189362914Y-185742914D01*
X190077200Y-185385771D02*
X190077200Y-186385771D01*
X190077200Y-185528628D02*
X190148628Y-185457200D01*
X190291485Y-185385771D01*
X190505771Y-185385771D01*
X190648628Y-185457200D01*
X190720057Y-185600057D01*
X190720057Y-186385771D01*
X192077200Y-185385771D02*
X192077200Y-186600057D01*
X192005771Y-186742914D01*
X191934342Y-186814342D01*
X191791485Y-186885771D01*
X191577200Y-186885771D01*
X191434342Y-186814342D01*
X192077200Y-186314342D02*
X191934342Y-186385771D01*
X191648628Y-186385771D01*
X191505771Y-186314342D01*
X191434342Y-186242914D01*
X191362914Y-186100057D01*
X191362914Y-185671485D01*
X191434342Y-185528628D01*
X191505771Y-185457200D01*
X191648628Y-185385771D01*
X191934342Y-185385771D01*
X192077200Y-185457200D01*
X193362914Y-186314342D02*
X193220057Y-186385771D01*
X192934342Y-186385771D01*
X192791485Y-186314342D01*
X192720057Y-186171485D01*
X192720057Y-185600057D01*
X192791485Y-185457200D01*
X192934342Y-185385771D01*
X193220057Y-185385771D01*
X193362914Y-185457200D01*
X193434342Y-185600057D01*
X193434342Y-185742914D01*
X192720057Y-185885771D01*
X194077200Y-186385771D02*
X194077200Y-185385771D01*
X194077200Y-185671485D02*
X194148628Y-185528628D01*
X194220057Y-185457200D01*
X194362914Y-185385771D01*
X194505771Y-185385771D01*
X195005771Y-186242914D02*
X195077200Y-186314342D01*
X195005771Y-186385771D01*
X194934342Y-186314342D01*
X195005771Y-186242914D01*
X195005771Y-186385771D01*
X195720057Y-186385771D02*
X195720057Y-184885771D01*
X195862914Y-185814342D02*
X196291485Y-186385771D01*
X196291485Y-185385771D02*
X195720057Y-185957200D01*
X196934342Y-186385771D02*
X196934342Y-185385771D01*
X196934342Y-184885771D02*
X196862914Y-184957200D01*
X196934342Y-185028628D01*
X197005771Y-184957200D01*
X196934342Y-184885771D01*
X196934342Y-185028628D01*
X198291485Y-186314342D02*
X198148628Y-186385771D01*
X197862914Y-186385771D01*
X197720057Y-186314342D01*
X197648628Y-186242914D01*
X197577200Y-186100057D01*
X197577200Y-185671485D01*
X197648628Y-185528628D01*
X197720057Y-185457200D01*
X197862914Y-185385771D01*
X198148628Y-185385771D01*
X198291485Y-185457200D01*
X199577200Y-186385771D02*
X199577200Y-185600057D01*
X199505771Y-185457200D01*
X199362914Y-185385771D01*
X199077200Y-185385771D01*
X198934342Y-185457200D01*
X199577200Y-186314342D02*
X199434342Y-186385771D01*
X199077200Y-186385771D01*
X198934342Y-186314342D01*
X198862914Y-186171485D01*
X198862914Y-186028628D01*
X198934342Y-185885771D01*
X199077200Y-185814342D01*
X199434342Y-185814342D01*
X199577200Y-185742914D01*
X200934342Y-186385771D02*
X200934342Y-184885771D01*
X200934342Y-186314342D02*
X200791485Y-186385771D01*
X200505771Y-186385771D01*
X200362914Y-186314342D01*
X200291485Y-186242914D01*
X200220057Y-186100057D01*
X200220057Y-185671485D01*
X200291485Y-185528628D01*
X200362914Y-185457200D01*
X200505771Y-185385771D01*
X200791485Y-185385771D01*
X200934342Y-185457200D01*
X201291485Y-186528628D02*
X202434342Y-186528628D01*
X202791485Y-185385771D02*
X202791485Y-186885771D01*
X202791485Y-185457200D02*
X202934342Y-185385771D01*
X203220057Y-185385771D01*
X203362914Y-185457200D01*
X203434342Y-185528628D01*
X203505771Y-185671485D01*
X203505771Y-186100057D01*
X203434342Y-186242914D01*
X203362914Y-186314342D01*
X203220057Y-186385771D01*
X202934342Y-186385771D01*
X202791485Y-186314342D01*
X204791485Y-186314342D02*
X204648628Y-186385771D01*
X204362914Y-186385771D01*
X204220057Y-186314342D01*
X204148628Y-186242914D01*
X204077200Y-186100057D01*
X204077200Y-185671485D01*
X204148628Y-185528628D01*
X204220057Y-185457200D01*
X204362914Y-185385771D01*
X204648628Y-185385771D01*
X204791485Y-185457200D01*
X205434342Y-186385771D02*
X205434342Y-184885771D01*
X205434342Y-185457200D02*
X205577200Y-185385771D01*
X205862914Y-185385771D01*
X206005771Y-185457200D01*
X206077200Y-185528628D01*
X206148628Y-185671485D01*
X206148628Y-186100057D01*
X206077200Y-186242914D01*
X206005771Y-186314342D01*
X205862914Y-186385771D01*
X205577200Y-186385771D01*
X205434342Y-186314342D01*
D10*
D11*
X177002200Y-181507200D02*
X285002200Y-181507200D01*
D10*
D11*
X178362914Y-183614342D02*
X178577200Y-183685771D01*
X178934342Y-183685771D01*
X179077200Y-183614342D01*
X179148628Y-183542914D01*
X179220057Y-183400057D01*
X179220057Y-183257200D01*
X179148628Y-183114342D01*
X179077200Y-183042914D01*
X178934342Y-182971485D01*
X178648628Y-182900057D01*
X178505771Y-182828628D01*
X178434342Y-182757200D01*
X178362914Y-182614342D01*
X178362914Y-182471485D01*
X178434342Y-182328628D01*
X178505771Y-182257200D01*
X178648628Y-182185771D01*
X179005771Y-182185771D01*
X179220057Y-182257200D01*
X179862914Y-183685771D02*
X179862914Y-182185771D01*
X180505771Y-183685771D02*
X180505771Y-182900057D01*
X180434342Y-182757200D01*
X180291485Y-182685771D01*
X180077200Y-182685771D01*
X179934342Y-182757200D01*
X179862914Y-182828628D01*
X181791485Y-183614342D02*
X181648628Y-183685771D01*
X181362914Y-183685771D01*
X181220057Y-183614342D01*
X181148628Y-183471485D01*
X181148628Y-182900057D01*
X181220057Y-182757200D01*
X181362914Y-182685771D01*
X181648628Y-182685771D01*
X181791485Y-182757200D01*
X181862914Y-182900057D01*
X181862914Y-183042914D01*
X181148628Y-183185771D01*
X183077200Y-183614342D02*
X182934342Y-183685771D01*
X182648628Y-183685771D01*
X182505771Y-183614342D01*
X182434342Y-183471485D01*
X182434342Y-182900057D01*
X182505771Y-182757200D01*
X182648628Y-182685771D01*
X182934342Y-182685771D01*
X183077200Y-182757200D01*
X183148628Y-182900057D01*
X183148628Y-183042914D01*
X182434342Y-183185771D01*
X183577200Y-182685771D02*
X184148628Y-182685771D01*
X183791485Y-182185771D02*
X183791485Y-183471485D01*
X183862914Y-183614342D01*
X184005771Y-183685771D01*
X184148628Y-183685771D01*
X184648628Y-183542914D02*
X184720057Y-183614342D01*
X184648628Y-183685771D01*
X184577200Y-183614342D01*
X184648628Y-183542914D01*
X184648628Y-183685771D01*
X184648628Y-182757200D02*
X184720057Y-182828628D01*
X184648628Y-182900057D01*
X184577200Y-182828628D01*
X184648628Y-182757200D01*
X184648628Y-182900057D01*
D10*
D11*
X197002200Y-191507200D02*
X197002200Y-194507200D01*
D10*
D11*
X261002200Y-191507200D02*
X261002200Y-198007200D01*
X123880952Y-68452380D02*
X123880952Y-69166666D01*
X123833333Y-69309523D01*
X123738095Y-69404761D01*
X123595238Y-69452380D01*
X123500000Y-69452380D01*
X124833333Y-69452380D02*
X124357142Y-69452380D01*
X124357142Y-68452380D01*
X125738095Y-69357142D02*
X125690476Y-69404761D01*
X125547619Y-69452380D01*
X125452380Y-69452380D01*
X125309523Y-69404761D01*
X125214285Y-69309523D01*
X125166666Y-69214285D01*
X125119047Y-69023809D01*
X125119047Y-68880952D01*
X125166666Y-68690476D01*
X125214285Y-68595238D01*
X125309523Y-68500000D01*
X125452380Y-68452380D01*
X125547619Y-68452380D01*
X125690476Y-68500000D01*
X125738095Y-68547619D01*
X126452380Y-68452380D02*
X126452380Y-69166666D01*
X126404761Y-69309523D01*
X126309523Y-69404761D01*
X126166666Y-69452380D01*
X126071428Y-69452380D01*
X127404761Y-69452380D02*
X126928571Y-69452380D01*
X126928571Y-68452380D01*
X128309523Y-69357142D02*
X128261904Y-69404761D01*
X128119047Y-69452380D01*
X128023809Y-69452380D01*
X127880952Y-69404761D01*
X127785714Y-69309523D01*
X127738095Y-69214285D01*
X127690476Y-69023809D01*
X127690476Y-68880952D01*
X127738095Y-68690476D01*
X127785714Y-68595238D01*
X127880952Y-68500000D01*
X128023809Y-68452380D01*
X128119047Y-68452380D01*
X128261904Y-68500000D01*
X128309523Y-68547619D01*
X129023809Y-68452380D02*
X129023809Y-69166666D01*
X128976190Y-69309523D01*
X128880952Y-69404761D01*
X128738095Y-69452380D01*
X128642857Y-69452380D01*
X129976190Y-69452380D02*
X129500000Y-69452380D01*
X129500000Y-68452380D01*
X130880952Y-69357142D02*
X130833333Y-69404761D01*
X130690476Y-69452380D01*
X130595238Y-69452380D01*
X130452380Y-69404761D01*
X130357142Y-69309523D01*
X130309523Y-69214285D01*
X130261904Y-69023809D01*
X130261904Y-68880952D01*
X130309523Y-68690476D01*
X130357142Y-68595238D01*
X130452380Y-68500000D01*
X130595238Y-68452380D01*
X130690476Y-68452380D01*
X130833333Y-68500000D01*
X130880952Y-68547619D01*
X131595238Y-68452380D02*
X131595238Y-69166666D01*
X131547619Y-69309523D01*
X131452380Y-69404761D01*
X131309523Y-69452380D01*
X131214285Y-69452380D01*
X132547619Y-69452380D02*
X132071428Y-69452380D01*
X132071428Y-68452380D01*
X133452380Y-69357142D02*
X133404761Y-69404761D01*
X133261904Y-69452380D01*
X133166666Y-69452380D01*
X133023809Y-69404761D01*
X132928571Y-69309523D01*
X132880952Y-69214285D01*
X132833333Y-69023809D01*
X132833333Y-68880952D01*
X132880952Y-68690476D01*
X132928571Y-68595238D01*
X133023809Y-68500000D01*
X133166666Y-68452380D01*
X133261904Y-68452380D01*
X133404761Y-68500000D01*
X133452380Y-68547619D01*
X105142857Y-66452380D02*
X104666666Y-66452380D01*
X104666666Y-65452380D01*
X105904761Y-66452380D02*
X105904761Y-65928571D01*
X105857142Y-65833333D01*
X105761904Y-65785714D01*
X105571428Y-65785714D01*
X105476190Y-65833333D01*
X105904761Y-66404761D02*
X105809523Y-66452380D01*
X105571428Y-66452380D01*
X105476190Y-66404761D01*
X105428571Y-66309523D01*
X105428571Y-66214285D01*
X105476190Y-66119047D01*
X105571428Y-66071428D01*
X105809523Y-66071428D01*
X105904761Y-66023809D01*
X106380952Y-65785714D02*
X106380952Y-66452380D01*
X106380952Y-65880952D02*
X106428571Y-65833333D01*
X106523809Y-65785714D01*
X106666666Y-65785714D01*
X106761904Y-65833333D01*
X106809523Y-65928571D01*
X106809523Y-66452380D01*
X107714285Y-66452380D02*
X107714285Y-65452380D01*
X107714285Y-66404761D02*
X107619047Y-66452380D01*
X107428571Y-66452380D01*
X107333333Y-66404761D01*
X107285714Y-66357142D01*
X107238095Y-66261904D01*
X107238095Y-65976190D01*
X107285714Y-65880952D01*
X107333333Y-65833333D01*
X107428571Y-65785714D01*
X107619047Y-65785714D01*
X107714285Y-65833333D01*
X109523809Y-66452380D02*
X109190476Y-65976190D01*
X108952380Y-66452380D02*
X108952380Y-65452380D01*
X109333333Y-65452380D01*
X109428571Y-65500000D01*
X109476190Y-65547619D01*
X109523809Y-65642857D01*
X109523809Y-65785714D01*
X109476190Y-65880952D01*
X109428571Y-65928571D01*
X109333333Y-65976190D01*
X108952380Y-65976190D01*
X110095238Y-66452380D02*
X110000000Y-66404761D01*
X109952380Y-66357142D01*
X109904761Y-66261904D01*
X109904761Y-65976190D01*
X109952380Y-65880952D01*
X110000000Y-65833333D01*
X110095238Y-65785714D01*
X110238095Y-65785714D01*
X110333333Y-65833333D01*
X110380952Y-65880952D01*
X110428571Y-65976190D01*
X110428571Y-66261904D01*
X110380952Y-66357142D01*
X110333333Y-66404761D01*
X110238095Y-66452380D01*
X110095238Y-66452380D01*
X110761904Y-65785714D02*
X111000000Y-66452380D01*
X111238095Y-65785714D01*
X112000000Y-66404761D02*
X111904761Y-66452380D01*
X111714285Y-66452380D01*
X111619047Y-66404761D01*
X111571428Y-66309523D01*
X111571428Y-65928571D01*
X111619047Y-65833333D01*
X111714285Y-65785714D01*
X111904761Y-65785714D01*
X112000000Y-65833333D01*
X112047619Y-65928571D01*
X112047619Y-66023809D01*
X111571428Y-66119047D01*
X112476190Y-66452380D02*
X112476190Y-65785714D01*
X112476190Y-65976190D02*
X112523809Y-65880952D01*
X112571428Y-65833333D01*
X112666666Y-65785714D01*
X112761904Y-65785714D01*
X113857142Y-66452380D02*
X113857142Y-65452380D01*
X114095238Y-65452380D01*
X114238095Y-65500000D01*
X114333333Y-65595238D01*
X114380952Y-65690476D01*
X114428571Y-65880952D01*
X114428571Y-66023809D01*
X114380952Y-66214285D01*
X114333333Y-66309523D01*
X114238095Y-66404761D01*
X114095238Y-66452380D01*
X113857142Y-66452380D01*
X114809523Y-65547619D02*
X114857142Y-65500000D01*
X114952380Y-65452380D01*
X115190476Y-65452380D01*
X115285714Y-65500000D01*
X115333333Y-65547619D01*
X115380952Y-65642857D01*
X115380952Y-65738095D01*
X115333333Y-65880952D01*
X114761904Y-66452380D01*
X115380952Y-66452380D01*
X116904761Y-65928571D02*
X117047619Y-65976190D01*
X117095238Y-66023809D01*
X117142857Y-66119047D01*
X117142857Y-66261904D01*
X117095238Y-66357142D01*
X117047619Y-66404761D01*
X116952380Y-66452380D01*
X116571428Y-66452380D01*
X116571428Y-65452380D01*
X116904761Y-65452380D01*
X117000000Y-65500000D01*
X117047619Y-65547619D01*
X117095238Y-65642857D01*
X117095238Y-65738095D01*
X117047619Y-65833333D01*
X117000000Y-65880952D01*
X116904761Y-65928571D01*
X116571428Y-65928571D01*
X117428571Y-65452380D02*
X118000000Y-65452380D01*
X117714285Y-66452380D02*
X117714285Y-65452380D01*
X119047619Y-65404761D02*
X118190476Y-66690476D01*
X119952380Y-66357142D02*
X119904761Y-66404761D01*
X119761904Y-66452380D01*
X119666666Y-66452380D01*
X119523809Y-66404761D01*
X119428571Y-66309523D01*
X119380952Y-66214285D01*
X119333333Y-66023809D01*
X119333333Y-65880952D01*
X119380952Y-65690476D01*
X119428571Y-65595238D01*
X119523809Y-65500000D01*
X119666666Y-65452380D01*
X119761904Y-65452380D01*
X119904761Y-65500000D01*
X119952380Y-65547619D01*
X120380952Y-66452380D02*
X120380952Y-65452380D01*
X120809523Y-66452380D02*
X120809523Y-65928571D01*
X120761904Y-65833333D01*
X120666666Y-65785714D01*
X120523809Y-65785714D01*
X120428571Y-65833333D01*
X120380952Y-65880952D01*
X121714285Y-66452380D02*
X121714285Y-65928571D01*
X121666666Y-65833333D01*
X121571428Y-65785714D01*
X121380952Y-65785714D01*
X121285714Y-65833333D01*
X121714285Y-66404761D02*
X121619047Y-66452380D01*
X121380952Y-66452380D01*
X121285714Y-66404761D01*
X121238095Y-66309523D01*
X121238095Y-66214285D01*
X121285714Y-66119047D01*
X121380952Y-66071428D01*
X121619047Y-66071428D01*
X121714285Y-66023809D01*
X122190476Y-65785714D02*
X122190476Y-66452380D01*
X122190476Y-65880952D02*
X122238095Y-65833333D01*
X122333333Y-65785714D01*
X122476190Y-65785714D01*
X122571428Y-65833333D01*
X122619047Y-65928571D01*
X122619047Y-66452380D01*
X123523809Y-65785714D02*
X123523809Y-66595238D01*
X123476190Y-66690476D01*
X123428571Y-66738095D01*
X123333333Y-66785714D01*
X123190476Y-66785714D01*
X123095238Y-66738095D01*
X123523809Y-66404761D02*
X123428571Y-66452380D01*
X123238095Y-66452380D01*
X123142857Y-66404761D01*
X123095238Y-66357142D01*
X123047619Y-66261904D01*
X123047619Y-65976190D01*
X123095238Y-65880952D01*
X123142857Y-65833333D01*
X123238095Y-65785714D01*
X123428571Y-65785714D01*
X123523809Y-65833333D01*
X124380952Y-66404761D02*
X124285714Y-66452380D01*
X124095238Y-66452380D01*
X124000000Y-66404761D01*
X123952380Y-66309523D01*
X123952380Y-65928571D01*
X124000000Y-65833333D01*
X124095238Y-65785714D01*
X124285714Y-65785714D01*
X124380952Y-65833333D01*
X124428571Y-65928571D01*
X124428571Y-66023809D01*
X123952380Y-66119047D01*
X124857142Y-66452380D02*
X124857142Y-65785714D01*
X124857142Y-65976190D02*
X124904761Y-65880952D01*
X124952380Y-65833333D01*
X125047619Y-65785714D01*
X125142857Y-65785714D01*
X126190476Y-66404761D02*
X126333333Y-66452380D01*
X126571428Y-66452380D01*
X126666666Y-66404761D01*
X126714285Y-66357142D01*
X126761904Y-66261904D01*
X126761904Y-66166666D01*
X126714285Y-66071428D01*
X126666666Y-66023809D01*
X126571428Y-65976190D01*
X126380952Y-65928571D01*
X126285714Y-65880952D01*
X126238095Y-65833333D01*
X126190476Y-65738095D01*
X126190476Y-65642857D01*
X126238095Y-65547619D01*
X126285714Y-65500000D01*
X126380952Y-65452380D01*
X126619047Y-65452380D01*
X126761904Y-65500000D01*
X127095238Y-65785714D02*
X127285714Y-66452380D01*
X127476190Y-65976190D01*
X127666666Y-66452380D01*
X127857142Y-65785714D01*
X128238095Y-66452380D02*
X128238095Y-65785714D01*
X128238095Y-65452380D02*
X128190476Y-65500000D01*
X128238095Y-65547619D01*
X128285714Y-65500000D01*
X128238095Y-65452380D01*
X128238095Y-65547619D01*
X128571428Y-65785714D02*
X128952380Y-65785714D01*
X128714285Y-65452380D02*
X128714285Y-66309523D01*
X128761904Y-66404761D01*
X128857142Y-66452380D01*
X128952380Y-66452380D01*
X129714285Y-66404761D02*
X129619047Y-66452380D01*
X129428571Y-66452380D01*
X129333333Y-66404761D01*
X129285714Y-66357142D01*
X129238095Y-66261904D01*
X129238095Y-65976190D01*
X129285714Y-65880952D01*
X129333333Y-65833333D01*
X129428571Y-65785714D01*
X129619047Y-65785714D01*
X129714285Y-65833333D01*
X130142857Y-66452380D02*
X130142857Y-65452380D01*
X130571428Y-66452380D02*
X130571428Y-65928571D01*
X130523809Y-65833333D01*
X130428571Y-65785714D01*
X130285714Y-65785714D01*
X130190476Y-65833333D01*
X130142857Y-65880952D01*
X131809523Y-66071428D02*
X132571428Y-66071428D01*
X133809523Y-66452380D02*
X133809523Y-65452380D01*
X134047619Y-65452380D01*
X134190476Y-65500000D01*
X134285714Y-65595238D01*
X134333333Y-65690476D01*
X134380952Y-65880952D01*
X134380952Y-66023809D01*
X134333333Y-66214285D01*
X134285714Y-66309523D01*
X134190476Y-66404761D01*
X134047619Y-66452380D01*
X133809523Y-66452380D01*
X134952380Y-66452380D02*
X134857142Y-66404761D01*
X134809523Y-66357142D01*
X134761904Y-66261904D01*
X134761904Y-65976190D01*
X134809523Y-65880952D01*
X134857142Y-65833333D01*
X134952380Y-65785714D01*
X135095238Y-65785714D01*
X135190476Y-65833333D01*
X135238095Y-65880952D01*
X135285714Y-65976190D01*
X135285714Y-66261904D01*
X135238095Y-66357142D01*
X135190476Y-66404761D01*
X135095238Y-66452380D01*
X134952380Y-66452380D01*
X135714285Y-66452380D02*
X135714285Y-65785714D01*
X135714285Y-65880952D02*
X135761904Y-65833333D01*
X135857142Y-65785714D01*
X136000000Y-65785714D01*
X136095238Y-65833333D01*
X136142857Y-65928571D01*
X136142857Y-66452380D01*
X136142857Y-65928571D02*
X136190476Y-65833333D01*
X136285714Y-65785714D01*
X136428571Y-65785714D01*
X136523809Y-65833333D01*
X136571428Y-65928571D01*
X136571428Y-66452380D01*
X137190476Y-66452380D02*
X137095238Y-66404761D01*
X137047619Y-66357142D01*
X137000000Y-66261904D01*
X137000000Y-65976190D01*
X137047619Y-65880952D01*
X137095238Y-65833333D01*
X137190476Y-65785714D01*
X137333333Y-65785714D01*
X137428571Y-65833333D01*
X137476190Y-65880952D01*
X137523809Y-65976190D01*
X137523809Y-66261904D01*
X137476190Y-66357142D01*
X137428571Y-66404761D01*
X137333333Y-66452380D01*
X137190476Y-66452380D01*
X137952380Y-66452380D02*
X137952380Y-65452380D01*
X138047619Y-66071428D02*
X138333333Y-66452380D01*
X138333333Y-65785714D02*
X137952380Y-66166666D01*
X138904761Y-66452380D02*
X138809523Y-66404761D01*
X138761904Y-66357142D01*
X138714285Y-66261904D01*
X138714285Y-65976190D01*
X138761904Y-65880952D01*
X138809523Y-65833333D01*
X138904761Y-65785714D01*
X139047619Y-65785714D01*
X139142857Y-65833333D01*
X139190476Y-65880952D01*
X139238095Y-65976190D01*
X139238095Y-66261904D01*
X139190476Y-66357142D01*
X139142857Y-66404761D01*
X139047619Y-66452380D01*
X138904761Y-66452380D01*
X139619047Y-66404761D02*
X139714285Y-66452380D01*
X139904761Y-66452380D01*
X140000000Y-66404761D01*
X140047619Y-66309523D01*
X140047619Y-66261904D01*
X140000000Y-66166666D01*
X139904761Y-66119047D01*
X139761904Y-66119047D01*
X139666666Y-66071428D01*
X139619047Y-65976190D01*
X139619047Y-65928571D01*
X139666666Y-65833333D01*
X139761904Y-65785714D01*
X139904761Y-65785714D01*
X140000000Y-65833333D01*
X141238095Y-66452380D02*
X141238095Y-65452380D01*
X141571428Y-66166666D01*
X141904761Y-65452380D01*
X141904761Y-66452380D01*
X142523809Y-66452380D02*
X142428571Y-66404761D01*
X142380952Y-66357142D01*
X142333333Y-66261904D01*
X142333333Y-65976190D01*
X142380952Y-65880952D01*
X142428571Y-65833333D01*
X142523809Y-65785714D01*
X142666666Y-65785714D01*
X142761904Y-65833333D01*
X142809523Y-65880952D01*
X142857142Y-65976190D01*
X142857142Y-66261904D01*
X142809523Y-66357142D01*
X142761904Y-66404761D01*
X142666666Y-66452380D01*
X142523809Y-66452380D01*
X143428571Y-66452380D02*
X143333333Y-66404761D01*
X143285714Y-66309523D01*
X143285714Y-65452380D01*
X143809523Y-65785714D02*
X143809523Y-66452380D01*
X143809523Y-65880952D02*
X143857142Y-65833333D01*
X143952380Y-65785714D01*
X144095238Y-65785714D01*
X144190476Y-65833333D01*
X144238095Y-65928571D01*
X144238095Y-66452380D01*
X145142857Y-66452380D02*
X145142857Y-65928571D01*
X145095238Y-65833333D01*
X144999999Y-65785714D01*
X144809523Y-65785714D01*
X144714285Y-65833333D01*
X145142857Y-66404761D02*
X145047619Y-66452380D01*
X144809523Y-66452380D01*
X144714285Y-66404761D01*
X144666666Y-66309523D01*
X144666666Y-66214285D01*
X144714285Y-66119047D01*
X144809523Y-66071428D01*
X145047619Y-66071428D01*
X145142857Y-66023809D01*
X145619047Y-66452380D02*
X145619047Y-65785714D01*
X145619047Y-65976190D02*
X145666666Y-65880952D01*
X145714285Y-65833333D01*
X145809523Y-65785714D01*
X145904761Y-65785714D01*
X146952380Y-65547619D02*
X146999999Y-65500000D01*
X147095238Y-65452380D01*
X147333333Y-65452380D01*
X147428571Y-65500000D01*
X147476190Y-65547619D01*
X147523809Y-65642857D01*
X147523809Y-65738095D01*
X147476190Y-65880952D01*
X146904761Y-66452380D01*
X147523809Y-66452380D01*
X148142857Y-65452380D02*
X148238095Y-65452380D01*
X148333333Y-65500000D01*
X148380952Y-65547619D01*
X148428571Y-65642857D01*
X148476190Y-65833333D01*
X148476190Y-66071428D01*
X148428571Y-66261904D01*
X148380952Y-66357142D01*
X148333333Y-66404761D01*
X148238095Y-66452380D01*
X148142857Y-66452380D01*
X148047619Y-66404761D01*
X147999999Y-66357142D01*
X147952380Y-66261904D01*
X147904761Y-66071428D01*
X147904761Y-65833333D01*
X147952380Y-65642857D01*
X147999999Y-65547619D01*
X148047619Y-65500000D01*
X148142857Y-65452380D01*
X148857142Y-65547619D02*
X148904761Y-65500000D01*
X149000000Y-65452380D01*
X149238095Y-65452380D01*
X149333333Y-65500000D01*
X149380952Y-65547619D01*
X149428571Y-65642857D01*
X149428571Y-65738095D01*
X149380952Y-65880952D01*
X148809523Y-66452380D01*
X149428571Y-66452380D01*
X150380952Y-66452380D02*
X149809523Y-66452380D01*
X150095238Y-66452380D02*
X150095238Y-65452380D01*
X150000000Y-65595238D01*
X149904761Y-65690476D01*
X149809523Y-65738095D01*
D14*
X84000000Y-128000000D02*
G75*
G03*
X84000000Y-128000000I-2000000J0D01*
G01*
X134000000Y-117000000D02*
G75*
G03*
X134000000Y-117000000I-2000000J0D01*
G01*
X157000000Y-68000000D02*
G75*
G03*
X157000000Y-68000000I-2000000J0D01*
G01*
X69500000Y-68000000D02*
G75*
G03*
X69500000Y-68000000I-2000000J0D01*
G01*
X63500000Y-144780000D02*
X63500000Y-63500000D01*
X162560000Y-144780000D02*
X63500000Y-144780000D01*
X162560000Y-63500000D02*
X162560000Y-144780000D01*
X63500000Y-63500000D02*
X162560000Y-63500000D01*
D15*
%TO.C,Y1*%
X74915000Y-73735000D02*
G75*
G03*
X69865000Y-73735000I-2525000J0D01*
G01*
X74915000Y-80135000D02*
G75*
G02*
X69865000Y-80135000I-2525000J0D01*
G01*
X69865000Y-80135000D02*
X69865000Y-73735000D01*
X74915000Y-80135000D02*
X74915000Y-73735000D01*
%TO.C,R4*%
X82265000Y-113680000D02*
X84105000Y-113680000D01*
X84105000Y-113680000D02*
X84105000Y-109840000D01*
X84105000Y-109840000D02*
X82265000Y-109840000D01*
X82265000Y-109840000D02*
X82265000Y-113680000D01*
X83185000Y-114630000D02*
X83185000Y-113680000D01*
X83185000Y-108890000D02*
X83185000Y-109840000D01*
%TO.C,R3*%
X145130000Y-84470000D02*
X146970000Y-84470000D01*
X146970000Y-84470000D02*
X146970000Y-80630000D01*
X146970000Y-80630000D02*
X145130000Y-80630000D01*
X145130000Y-80630000D02*
X145130000Y-84470000D01*
X146050000Y-85420000D02*
X146050000Y-84470000D01*
X146050000Y-79680000D02*
X146050000Y-80630000D01*
%TO.C,R2*%
X111110000Y-91790000D02*
X111110000Y-93630000D01*
X111110000Y-93630000D02*
X114950000Y-93630000D01*
X114950000Y-93630000D02*
X114950000Y-91790000D01*
X114950000Y-91790000D02*
X111110000Y-91790000D01*
X110160000Y-92710000D02*
X111110000Y-92710000D01*
X115900000Y-92710000D02*
X114950000Y-92710000D01*
%TO.C,R1*%
X100950000Y-91790000D02*
X100950000Y-93630000D01*
X100950000Y-93630000D02*
X104790000Y-93630000D01*
X104790000Y-93630000D02*
X104790000Y-91790000D01*
X104790000Y-91790000D02*
X100950000Y-91790000D01*
X100000000Y-92710000D02*
X100950000Y-92710000D01*
X105740000Y-92710000D02*
X104790000Y-92710000D01*
%TO.C,K3*%
X153924000Y-98298000D02*
X153924000Y-127762000D01*
X153924000Y-127762000D02*
X140716000Y-127762000D01*
X140716000Y-127762000D02*
X140716000Y-98298000D01*
X140716000Y-98298000D02*
X153924000Y-98298000D01*
%TO.C,K2*%
X123444000Y-98298000D02*
X123444000Y-127762000D01*
X123444000Y-127762000D02*
X110236000Y-127762000D01*
X110236000Y-127762000D02*
X110236000Y-98298000D01*
X110236000Y-98298000D02*
X123444000Y-98298000D01*
%TO.C,K1*%
X100584000Y-98298000D02*
X100584000Y-127762000D01*
X100584000Y-127762000D02*
X87376000Y-127762000D01*
X87376000Y-127762000D02*
X87376000Y-98298000D01*
X87376000Y-98298000D02*
X100584000Y-98298000D01*
%TO.C,J8*%
X70709747Y-124488805D02*
G75*
G02*
X70855000Y-123776000I1680253J28805D01*
G01*
X71706958Y-122924574D02*
G75*
G02*
X73074000Y-122925000I683042J-1535426D01*
G01*
X73925426Y-123776958D02*
G75*
G02*
X73925000Y-125144000I-1535426J-683042D01*
G01*
X73073042Y-125995426D02*
G75*
G02*
X71706000Y-125995000I-683042J1535426D01*
G01*
X70855244Y-125143318D02*
G75*
G02*
X70710000Y-124460000I1534756J683318D01*
G01*
X74070000Y-129540000D02*
G75*
G03*
X74070000Y-129540000I-1680000J0D01*
G01*
X74070000Y-134620000D02*
G75*
G03*
X74070000Y-134620000I-1680000J0D01*
G01*
X74070000Y-139700000D02*
G75*
G03*
X74070000Y-139700000I-1680000J0D01*
G01*
X68290000Y-121860000D02*
X68290000Y-142300000D01*
X69790000Y-121860000D02*
X69790000Y-142300000D01*
X74691000Y-121860000D02*
X74691000Y-142300000D01*
X77651000Y-121860000D02*
X77651000Y-142300000D01*
X67730000Y-121860000D02*
X67730000Y-142300000D01*
X77651000Y-121860000D02*
X67730000Y-121860000D01*
X77651000Y-142300000D02*
X67730000Y-142300000D01*
X73459000Y-130815000D02*
X73413000Y-130768000D01*
X71151000Y-128506000D02*
X71116000Y-128471000D01*
X73665000Y-130610000D02*
X73629000Y-130575000D01*
X71367000Y-128313000D02*
X71321000Y-128266000D01*
X73459000Y-135895000D02*
X73413000Y-135848000D01*
X71151000Y-133586000D02*
X71116000Y-133551000D01*
X73665000Y-135690000D02*
X73629000Y-135655000D01*
X71367000Y-133393000D02*
X71321000Y-133346000D01*
X73459000Y-140975000D02*
X73413000Y-140928000D01*
X71151000Y-138666000D02*
X71116000Y-138631000D01*
X73665000Y-140770000D02*
X73629000Y-140735000D01*
X71367000Y-138473000D02*
X71321000Y-138426000D01*
X68230000Y-121620000D02*
X67490000Y-121620000D01*
X67490000Y-121620000D02*
X67490000Y-122120000D01*
%TO.C,J7*%
X147348805Y-138840253D02*
G75*
G02*
X146636000Y-138695000I-28805J1680253D01*
G01*
X145784574Y-137843042D02*
G75*
G02*
X145785000Y-136476000I1535426J683042D01*
G01*
X146636958Y-135624574D02*
G75*
G02*
X148004000Y-135625000I683042J-1535426D01*
G01*
X148855426Y-136476958D02*
G75*
G02*
X148855000Y-137844000I-1535426J-683042D01*
G01*
X148003318Y-138694756D02*
G75*
G02*
X147320000Y-138840000I-683318J1534756D01*
G01*
X154080000Y-137160000D02*
G75*
G03*
X154080000Y-137160000I-1680000J0D01*
G01*
X159160000Y-137160000D02*
G75*
G03*
X159160000Y-137160000I-1680000J0D01*
G01*
X144720000Y-141260000D02*
X160080000Y-141260000D01*
X144720000Y-139760000D02*
X160080000Y-139760000D01*
X144720000Y-134859000D02*
X160080000Y-134859000D01*
X144720000Y-131899000D02*
X160080000Y-131899000D01*
X144720000Y-141820000D02*
X160080000Y-141820000D01*
X144720000Y-131899000D02*
X144720000Y-141820000D01*
X160080000Y-131899000D02*
X160080000Y-141820000D01*
X153675000Y-136091000D02*
X153628000Y-136137000D01*
X151366000Y-138399000D02*
X151331000Y-138434000D01*
X153470000Y-135885000D02*
X153435000Y-135921000D01*
X151173000Y-138183000D02*
X151126000Y-138229000D01*
X158755000Y-136091000D02*
X158708000Y-136137000D01*
X156446000Y-138399000D02*
X156411000Y-138434000D01*
X158550000Y-135885000D02*
X158515000Y-135921000D01*
X156253000Y-138183000D02*
X156206000Y-138229000D01*
X144480000Y-141320000D02*
X144480000Y-142060000D01*
X144480000Y-142060000D02*
X144980000Y-142060000D01*
%TO.C,J6*%
X132108805Y-138840253D02*
G75*
G02*
X131396000Y-138695000I-28805J1680253D01*
G01*
X130544574Y-137843042D02*
G75*
G02*
X130545000Y-136476000I1535426J683042D01*
G01*
X131396958Y-135624574D02*
G75*
G02*
X132764000Y-135625000I683042J-1535426D01*
G01*
X133615426Y-136476958D02*
G75*
G02*
X133615000Y-137844000I-1535426J-683042D01*
G01*
X132763318Y-138694756D02*
G75*
G02*
X132080000Y-138840000I-683318J1534756D01*
G01*
X138840000Y-137160000D02*
G75*
G03*
X138840000Y-137160000I-1680000J0D01*
G01*
X143920000Y-137160000D02*
G75*
G03*
X143920000Y-137160000I-1680000J0D01*
G01*
X129480000Y-141260000D02*
X144840000Y-141260000D01*
X129480000Y-139760000D02*
X144840000Y-139760000D01*
X129480000Y-134859000D02*
X144840000Y-134859000D01*
X129480000Y-131899000D02*
X144840000Y-131899000D01*
X129480000Y-141820000D02*
X144840000Y-141820000D01*
X129480000Y-131899000D02*
X129480000Y-141820000D01*
X144840000Y-131899000D02*
X144840000Y-141820000D01*
X138435000Y-136091000D02*
X138388000Y-136137000D01*
X136126000Y-138399000D02*
X136091000Y-138434000D01*
X138230000Y-135885000D02*
X138195000Y-135921000D01*
X135933000Y-138183000D02*
X135886000Y-138229000D01*
X143515000Y-136091000D02*
X143468000Y-136137000D01*
X141206000Y-138399000D02*
X141171000Y-138434000D01*
X143310000Y-135885000D02*
X143275000Y-135921000D01*
X141013000Y-138183000D02*
X140966000Y-138229000D01*
X129240000Y-141320000D02*
X129240000Y-142060000D01*
X129240000Y-142060000D02*
X129740000Y-142060000D01*
%TO.C,J5*%
X116868805Y-138840253D02*
G75*
G02*
X116156000Y-138695000I-28805J1680253D01*
G01*
X115304574Y-137843042D02*
G75*
G02*
X115305000Y-136476000I1535426J683042D01*
G01*
X116156958Y-135624574D02*
G75*
G02*
X117524000Y-135625000I683042J-1535426D01*
G01*
X118375426Y-136476958D02*
G75*
G02*
X118375000Y-137844000I-1535426J-683042D01*
G01*
X117523318Y-138694756D02*
G75*
G02*
X116840000Y-138840000I-683318J1534756D01*
G01*
X123600000Y-137160000D02*
G75*
G03*
X123600000Y-137160000I-1680000J0D01*
G01*
X128680000Y-137160000D02*
G75*
G03*
X128680000Y-137160000I-1680000J0D01*
G01*
X114240000Y-141260000D02*
X129600000Y-141260000D01*
X114240000Y-139760000D02*
X129600000Y-139760000D01*
X114240000Y-134859000D02*
X129600000Y-134859000D01*
X114240000Y-131899000D02*
X129600000Y-131899000D01*
X114240000Y-141820000D02*
X129600000Y-141820000D01*
X114240000Y-131899000D02*
X114240000Y-141820000D01*
X129600000Y-131899000D02*
X129600000Y-141820000D01*
X123195000Y-136091000D02*
X123148000Y-136137000D01*
X120886000Y-138399000D02*
X120851000Y-138434000D01*
X122990000Y-135885000D02*
X122955000Y-135921000D01*
X120693000Y-138183000D02*
X120646000Y-138229000D01*
X128275000Y-136091000D02*
X128228000Y-136137000D01*
X125966000Y-138399000D02*
X125931000Y-138434000D01*
X128070000Y-135885000D02*
X128035000Y-135921000D01*
X125773000Y-138183000D02*
X125726000Y-138229000D01*
X114000000Y-141320000D02*
X114000000Y-142060000D01*
X114000000Y-142060000D02*
X114500000Y-142060000D01*
%TO.C,J4*%
X101628805Y-138840253D02*
G75*
G02*
X100916000Y-138695000I-28805J1680253D01*
G01*
X100064574Y-137843042D02*
G75*
G02*
X100065000Y-136476000I1535426J683042D01*
G01*
X100916958Y-135624574D02*
G75*
G02*
X102284000Y-135625000I683042J-1535426D01*
G01*
X103135426Y-136476958D02*
G75*
G02*
X103135000Y-137844000I-1535426J-683042D01*
G01*
X102283318Y-138694756D02*
G75*
G02*
X101600000Y-138840000I-683318J1534756D01*
G01*
X108360000Y-137160000D02*
G75*
G03*
X108360000Y-137160000I-1680000J0D01*
G01*
X113440000Y-137160000D02*
G75*
G03*
X113440000Y-137160000I-1680000J0D01*
G01*
X99000000Y-141260000D02*
X114360000Y-141260000D01*
X99000000Y-139760000D02*
X114360000Y-139760000D01*
X99000000Y-134859000D02*
X114360000Y-134859000D01*
X99000000Y-131899000D02*
X114360000Y-131899000D01*
X99000000Y-141820000D02*
X114360000Y-141820000D01*
X99000000Y-131899000D02*
X99000000Y-141820000D01*
X114360000Y-131899000D02*
X114360000Y-141820000D01*
X107955000Y-136091000D02*
X107908000Y-136137000D01*
X105646000Y-138399000D02*
X105611000Y-138434000D01*
X107750000Y-135885000D02*
X107715000Y-135921000D01*
X105453000Y-138183000D02*
X105406000Y-138229000D01*
X113035000Y-136091000D02*
X112988000Y-136137000D01*
X110726000Y-138399000D02*
X110691000Y-138434000D01*
X112830000Y-135885000D02*
X112795000Y-135921000D01*
X110533000Y-138183000D02*
X110486000Y-138229000D01*
X98760000Y-141320000D02*
X98760000Y-142060000D01*
X98760000Y-142060000D02*
X99260000Y-142060000D01*
%TO.C,J3*%
X86388805Y-138840253D02*
G75*
G02*
X85676000Y-138695000I-28805J1680253D01*
G01*
X84824574Y-137843042D02*
G75*
G02*
X84825000Y-136476000I1535426J683042D01*
G01*
X85676958Y-135624574D02*
G75*
G02*
X87044000Y-135625000I683042J-1535426D01*
G01*
X87895426Y-136476958D02*
G75*
G02*
X87895000Y-137844000I-1535426J-683042D01*
G01*
X87043318Y-138694756D02*
G75*
G02*
X86360000Y-138840000I-683318J1534756D01*
G01*
X93120000Y-137160000D02*
G75*
G03*
X93120000Y-137160000I-1680000J0D01*
G01*
X98200000Y-137160000D02*
G75*
G03*
X98200000Y-137160000I-1680000J0D01*
G01*
X83760000Y-141260000D02*
X99120000Y-141260000D01*
X83760000Y-139760000D02*
X99120000Y-139760000D01*
X83760000Y-134859000D02*
X99120000Y-134859000D01*
X83760000Y-131899000D02*
X99120000Y-131899000D01*
X83760000Y-141820000D02*
X99120000Y-141820000D01*
X83760000Y-131899000D02*
X83760000Y-141820000D01*
X99120000Y-131899000D02*
X99120000Y-141820000D01*
X92715000Y-136091000D02*
X92668000Y-136137000D01*
X90406000Y-138399000D02*
X90371000Y-138434000D01*
X92510000Y-135885000D02*
X92475000Y-135921000D01*
X90213000Y-138183000D02*
X90166000Y-138229000D01*
X97795000Y-136091000D02*
X97748000Y-136137000D01*
X95486000Y-138399000D02*
X95451000Y-138434000D01*
X97590000Y-135885000D02*
X97555000Y-135921000D01*
X95293000Y-138183000D02*
X95246000Y-138229000D01*
X83520000Y-141320000D02*
X83520000Y-142060000D01*
X83520000Y-142060000D02*
X84020000Y-142060000D01*
%TO.C,J2*%
X70709747Y-109248805D02*
G75*
G02*
X70855000Y-108536000I1680253J28805D01*
G01*
X71706958Y-107684574D02*
G75*
G02*
X73074000Y-107685000I683042J-1535426D01*
G01*
X73925426Y-108536958D02*
G75*
G02*
X73925000Y-109904000I-1535426J-683042D01*
G01*
X73073042Y-110755426D02*
G75*
G02*
X71706000Y-110755000I-683042J1535426D01*
G01*
X70855244Y-109903318D02*
G75*
G02*
X70710000Y-109220000I1534756J683318D01*
G01*
X74070000Y-114300000D02*
G75*
G03*
X74070000Y-114300000I-1680000J0D01*
G01*
X74070000Y-119380000D02*
G75*
G03*
X74070000Y-119380000I-1680000J0D01*
G01*
X68290000Y-106620000D02*
X68290000Y-121980000D01*
X69790000Y-106620000D02*
X69790000Y-121980000D01*
X74691000Y-106620000D02*
X74691000Y-121980000D01*
X77651000Y-106620000D02*
X77651000Y-121980000D01*
X67730000Y-106620000D02*
X67730000Y-121980000D01*
X77651000Y-106620000D02*
X67730000Y-106620000D01*
X77651000Y-121980000D02*
X67730000Y-121980000D01*
X73459000Y-115575000D02*
X73413000Y-115528000D01*
X71151000Y-113266000D02*
X71116000Y-113231000D01*
X73665000Y-115370000D02*
X73629000Y-115335000D01*
X71367000Y-113073000D02*
X71321000Y-113026000D01*
X73459000Y-120655000D02*
X73413000Y-120608000D01*
X71151000Y-118346000D02*
X71116000Y-118311000D01*
X73665000Y-120450000D02*
X73629000Y-120415000D01*
X71367000Y-118153000D02*
X71321000Y-118106000D01*
X68230000Y-106380000D02*
X67490000Y-106380000D01*
X67490000Y-106380000D02*
X67490000Y-106880000D01*
%TO.C,J1*%
X156620253Y-90141195D02*
G75*
G02*
X156475000Y-90854000I-1680253J-28805D01*
G01*
X155623042Y-91705426D02*
G75*
G02*
X154256000Y-91705000I-683042J1535426D01*
G01*
X153404574Y-90853042D02*
G75*
G02*
X153405000Y-89486000I1535426J683042D01*
G01*
X154256958Y-88634574D02*
G75*
G02*
X155624000Y-88635000I683042J-1535426D01*
G01*
X156474756Y-89486682D02*
G75*
G02*
X156620000Y-90170000I-1534756J-683318D01*
G01*
X156620000Y-85090000D02*
G75*
G03*
X156620000Y-85090000I-1680000J0D01*
G01*
X156620000Y-80010000D02*
G75*
G03*
X156620000Y-80010000I-1680000J0D01*
G01*
X156620000Y-74930000D02*
G75*
G03*
X156620000Y-74930000I-1680000J0D01*
G01*
X159040000Y-92770000D02*
X159040000Y-72330000D01*
X157540000Y-92770000D02*
X157540000Y-72330000D01*
X152639000Y-92770000D02*
X152639000Y-72330000D01*
X149679000Y-92770000D02*
X149679000Y-72330000D01*
X159600000Y-92770000D02*
X159600000Y-72330000D01*
X149679000Y-92770000D02*
X159600000Y-92770000D01*
X149679000Y-72330000D02*
X159600000Y-72330000D01*
X153871000Y-83815000D02*
X153917000Y-83862000D01*
X156179000Y-86124000D02*
X156214000Y-86159000D01*
X153665000Y-84020000D02*
X153701000Y-84055000D01*
X155963000Y-86317000D02*
X156009000Y-86364000D01*
X153871000Y-78735000D02*
X153917000Y-78782000D01*
X156179000Y-81044000D02*
X156214000Y-81079000D01*
X153665000Y-78940000D02*
X153701000Y-78975000D01*
X155963000Y-81237000D02*
X156009000Y-81284000D01*
X153871000Y-73655000D02*
X153917000Y-73702000D01*
X156179000Y-75964000D02*
X156214000Y-75999000D01*
X153665000Y-73860000D02*
X153701000Y-73895000D01*
X155963000Y-76157000D02*
X156009000Y-76204000D01*
X159100000Y-93010000D02*
X159840000Y-93010000D01*
X159840000Y-93010000D02*
X159840000Y-92510000D01*
%TO.C,C5*%
X109530000Y-79575000D02*
X114070000Y-79575000D01*
X109530000Y-81715000D02*
X114070000Y-81715000D01*
X109530000Y-79575000D02*
X109530000Y-79590000D01*
X109530000Y-81700000D02*
X109530000Y-81715000D01*
X114070000Y-79575000D02*
X114070000Y-79590000D01*
X114070000Y-81700000D02*
X114070000Y-81715000D01*
%TO.C,C4*%
X101275000Y-79575000D02*
X105815000Y-79575000D01*
X101275000Y-81715000D02*
X105815000Y-81715000D01*
X101275000Y-79575000D02*
X101275000Y-79590000D01*
X101275000Y-81700000D02*
X101275000Y-81715000D01*
X105815000Y-79575000D02*
X105815000Y-79590000D01*
X105815000Y-81700000D02*
X105815000Y-81715000D01*
%TO.C,C3*%
X135655260Y-79800000D02*
G75*
G03*
X135655259Y-77680000I2119740J1060000D01*
G01*
X135237712Y-77405000D02*
X135687712Y-77405000D01*
X135462712Y-77180000D02*
X135462712Y-77630000D01*
%TO.C,C2*%
X81380000Y-70425000D02*
X81380000Y-75665000D01*
X78640000Y-70425000D02*
X78640000Y-75665000D01*
X81380000Y-70425000D02*
X78640000Y-70425000D01*
X81380000Y-75665000D02*
X78640000Y-75665000D01*
%TO.C,C1*%
X78640000Y-82610000D02*
X78640000Y-77370000D01*
X81380000Y-82610000D02*
X81380000Y-77370000D01*
X78640000Y-82610000D02*
X81380000Y-82610000D01*
X78640000Y-77370000D02*
X81380000Y-77370000D01*
%TO.C,U1*%
X89805000Y-66615000D02*
X88155000Y-66615000D01*
X88155000Y-66615000D02*
X88155000Y-92135000D01*
X88155000Y-92135000D02*
X93455000Y-92135000D01*
X93455000Y-92135000D02*
X93455000Y-66615000D01*
X93455000Y-66615000D02*
X91805000Y-66615000D01*
X91805000Y-66615000D02*
G75*
G02*
X89805000Y-66615000I-1000000J0D01*
G01*
%TO.C,Q6*%
X71860000Y-103450000D02*
X75460000Y-103450000D01*
X75498478Y-103438478D02*
G75*
G03*
X73660000Y-99000000I-1838478J1838478D01*
G01*
X71821522Y-103438478D02*
G75*
G02*
X73660000Y-99000000I1838478J1838478D01*
G01*
%TO.C,Q5*%
X77575000Y-103450000D02*
X81175000Y-103450000D01*
X81213478Y-103438478D02*
G75*
G03*
X79375000Y-99000000I-1838478J1838478D01*
G01*
X77536522Y-103438478D02*
G75*
G02*
X79375000Y-99000000I1838478J1838478D01*
G01*
%TO.C,Q4*%
X77575000Y-98370000D02*
X81175000Y-98370000D01*
X81213478Y-98358478D02*
G75*
G03*
X79375000Y-93920000I-1838478J1838478D01*
G01*
X77536522Y-98358478D02*
G75*
G02*
X79375000Y-93920000I1838478J1838478D01*
G01*
%TO.C,Q3*%
X71860000Y-98370000D02*
X75460000Y-98370000D01*
X75498478Y-98358478D02*
G75*
G03*
X73660000Y-93920000I-1838478J1838478D01*
G01*
X71821522Y-98358478D02*
G75*
G02*
X73660000Y-93920000I1838478J1838478D01*
G01*
%TO.C,U2*%
X108625000Y-90265000D02*
X98385000Y-90265000D01*
X108625000Y-85624000D02*
X98385000Y-85624000D01*
X108625000Y-90265000D02*
X108625000Y-85624000D01*
X98385000Y-90265000D02*
X98385000Y-85624000D01*
X108625000Y-88755000D02*
X98385000Y-88755000D01*
X105355000Y-90265000D02*
X105355000Y-88755000D01*
X101654000Y-90265000D02*
X101654000Y-88755000D01*
%TO.C,Q2*%
X99115000Y-67415000D02*
X99115000Y-71015000D01*
X99126522Y-71053478D02*
G75*
G03*
X103565000Y-69215000I1838478J1838478D01*
G01*
X99126522Y-67376522D02*
G75*
G02*
X103565000Y-69215000I1838478J-1838478D01*
G01*
%TO.C,Q1*%
X142980000Y-94560000D02*
X146580000Y-94560000D01*
X146618478Y-94548478D02*
G75*
G03*
X144780000Y-90110000I-1838478J1838478D01*
G01*
X142941522Y-94548478D02*
G75*
G02*
X144780000Y-90110000I1838478J1838478D01*
G01*
%TO.C,D2*%
X127850000Y-90020000D02*
X127850000Y-87780000D01*
X127850000Y-87780000D02*
X123610000Y-87780000D01*
X123610000Y-87780000D02*
X123610000Y-90020000D01*
X123610000Y-90020000D02*
X127850000Y-90020000D01*
X128500000Y-88900000D02*
X127850000Y-88900000D01*
X122960000Y-88900000D02*
X123610000Y-88900000D01*
X127130000Y-90020000D02*
X127130000Y-87780000D01*
X127010000Y-90020000D02*
X127010000Y-87780000D01*
X127250000Y-90020000D02*
X127250000Y-87780000D01*
%TO.C,D1*%
X127850000Y-84940000D02*
X127850000Y-82700000D01*
X127850000Y-82700000D02*
X123610000Y-82700000D01*
X123610000Y-82700000D02*
X123610000Y-84940000D01*
X123610000Y-84940000D02*
X127850000Y-84940000D01*
X128500000Y-83820000D02*
X127850000Y-83820000D01*
X122960000Y-83820000D02*
X123610000Y-83820000D01*
X127130000Y-84940000D02*
X127130000Y-82700000D01*
X127010000Y-84940000D02*
X127010000Y-82700000D01*
X127250000Y-84940000D02*
X127250000Y-82700000D01*
%TD*%
%TO.C,Y1*%
D11*
X68841190Y-77411190D02*
X69317380Y-77411190D01*
X68317380Y-77744523D02*
X68841190Y-77411190D01*
X68317380Y-77077857D01*
X69317380Y-76220714D02*
X69317380Y-76792142D01*
X69317380Y-76506428D02*
X68317380Y-76506428D01*
X68460238Y-76601666D01*
X68555476Y-76696904D01*
X68603095Y-76792142D01*
%TO.C,R4*%
X81717380Y-111926666D02*
X81241190Y-112260000D01*
X81717380Y-112498095D02*
X80717380Y-112498095D01*
X80717380Y-112117142D01*
X80765000Y-112021904D01*
X80812619Y-111974285D01*
X80907857Y-111926666D01*
X81050714Y-111926666D01*
X81145952Y-111974285D01*
X81193571Y-112021904D01*
X81241190Y-112117142D01*
X81241190Y-112498095D01*
X81050714Y-111069523D02*
X81717380Y-111069523D01*
X80669761Y-111307619D02*
X81384047Y-111545714D01*
X81384047Y-110926666D01*
%TO.C,R3*%
X143952380Y-84166666D02*
X143476190Y-84500000D01*
X143952380Y-84738095D02*
X142952380Y-84738095D01*
X142952380Y-84357142D01*
X143000000Y-84261904D01*
X143047619Y-84214285D01*
X143142857Y-84166666D01*
X143285714Y-84166666D01*
X143380952Y-84214285D01*
X143428571Y-84261904D01*
X143476190Y-84357142D01*
X143476190Y-84738095D01*
X142952380Y-83833333D02*
X142952380Y-83214285D01*
X143333333Y-83547619D01*
X143333333Y-83404761D01*
X143380952Y-83309523D01*
X143428571Y-83261904D01*
X143523809Y-83214285D01*
X143761904Y-83214285D01*
X143857142Y-83261904D01*
X143904761Y-83309523D01*
X143952380Y-83404761D01*
X143952380Y-83690476D01*
X143904761Y-83785714D01*
X143857142Y-83833333D01*
%TO.C,R2*%
X111833333Y-94952380D02*
X111500000Y-94476190D01*
X111261904Y-94952380D02*
X111261904Y-93952380D01*
X111642857Y-93952380D01*
X111738095Y-94000000D01*
X111785714Y-94047619D01*
X111833333Y-94142857D01*
X111833333Y-94285714D01*
X111785714Y-94380952D01*
X111738095Y-94428571D01*
X111642857Y-94476190D01*
X111261904Y-94476190D01*
X112214285Y-94047619D02*
X112261904Y-94000000D01*
X112357142Y-93952380D01*
X112595238Y-93952380D01*
X112690476Y-94000000D01*
X112738095Y-94047619D01*
X112785714Y-94142857D01*
X112785714Y-94238095D01*
X112738095Y-94380952D01*
X112166666Y-94952380D01*
X112785714Y-94952380D01*
%TO.C,R1*%
X101333333Y-94952380D02*
X101000000Y-94476190D01*
X100761904Y-94952380D02*
X100761904Y-93952380D01*
X101142857Y-93952380D01*
X101238095Y-94000000D01*
X101285714Y-94047619D01*
X101333333Y-94142857D01*
X101333333Y-94285714D01*
X101285714Y-94380952D01*
X101238095Y-94428571D01*
X101142857Y-94476190D01*
X100761904Y-94476190D01*
X102285714Y-94952380D02*
X101714285Y-94952380D01*
X102000000Y-94952380D02*
X102000000Y-93952380D01*
X101904761Y-94095238D01*
X101809523Y-94190476D01*
X101714285Y-94238095D01*
%TO.C,K3*%
X155900380Y-114738095D02*
X154900380Y-114738095D01*
X155900380Y-114166666D02*
X155328952Y-114595238D01*
X154900380Y-114166666D02*
X155471809Y-114738095D01*
X154900380Y-113833333D02*
X154900380Y-113214285D01*
X155281333Y-113547619D01*
X155281333Y-113404761D01*
X155328952Y-113309523D01*
X155376571Y-113261904D01*
X155471809Y-113214285D01*
X155709904Y-113214285D01*
X155805142Y-113261904D01*
X155852761Y-113309523D01*
X155900380Y-113404761D01*
X155900380Y-113690476D01*
X155852761Y-113785714D01*
X155805142Y-113833333D01*
%TO.C,K2*%
X125452380Y-114238095D02*
X124452380Y-114238095D01*
X125452380Y-113666666D02*
X124880952Y-114095238D01*
X124452380Y-113666666D02*
X125023809Y-114238095D01*
X124547619Y-113285714D02*
X124500000Y-113238095D01*
X124452380Y-113142857D01*
X124452380Y-112904761D01*
X124500000Y-112809523D01*
X124547619Y-112761904D01*
X124642857Y-112714285D01*
X124738095Y-112714285D01*
X124880952Y-112761904D01*
X125452380Y-113333333D01*
X125452380Y-112714285D01*
%TO.C,K1*%
X102952380Y-114738095D02*
X101952380Y-114738095D01*
X102952380Y-114166666D02*
X102380952Y-114595238D01*
X101952380Y-114166666D02*
X102523809Y-114738095D01*
X102952380Y-113214285D02*
X102952380Y-113785714D01*
X102952380Y-113500000D02*
X101952380Y-113500000D01*
X102095238Y-113595238D01*
X102190476Y-113690476D01*
X102238095Y-113785714D01*
%TO.C,J8*%
X78102380Y-132413333D02*
X78816666Y-132413333D01*
X78959523Y-132460952D01*
X79054761Y-132556190D01*
X79102380Y-132699047D01*
X79102380Y-132794285D01*
X78530952Y-131794285D02*
X78483333Y-131889523D01*
X78435714Y-131937142D01*
X78340476Y-131984761D01*
X78292857Y-131984761D01*
X78197619Y-131937142D01*
X78150000Y-131889523D01*
X78102380Y-131794285D01*
X78102380Y-131603809D01*
X78150000Y-131508571D01*
X78197619Y-131460952D01*
X78292857Y-131413333D01*
X78340476Y-131413333D01*
X78435714Y-131460952D01*
X78483333Y-131508571D01*
X78530952Y-131603809D01*
X78530952Y-131794285D01*
X78578571Y-131889523D01*
X78626190Y-131937142D01*
X78721428Y-131984761D01*
X78911904Y-131984761D01*
X79007142Y-131937142D01*
X79054761Y-131889523D01*
X79102380Y-131794285D01*
X79102380Y-131603809D01*
X79054761Y-131508571D01*
X79007142Y-131460952D01*
X78911904Y-131413333D01*
X78721428Y-131413333D01*
X78626190Y-131460952D01*
X78578571Y-131508571D01*
X78530952Y-131603809D01*
%TO.C,J7*%
X152066666Y-130352380D02*
X152066666Y-131066666D01*
X152019047Y-131209523D01*
X151923809Y-131304761D01*
X151780952Y-131352380D01*
X151685714Y-131352380D01*
X152447619Y-130352380D02*
X153114285Y-130352380D01*
X152685714Y-131352380D01*
%TO.C,J6*%
X136826666Y-130352380D02*
X136826666Y-131066666D01*
X136779047Y-131209523D01*
X136683809Y-131304761D01*
X136540952Y-131352380D01*
X136445714Y-131352380D01*
X137731428Y-130352380D02*
X137540952Y-130352380D01*
X137445714Y-130400000D01*
X137398095Y-130447619D01*
X137302857Y-130590476D01*
X137255238Y-130780952D01*
X137255238Y-131161904D01*
X137302857Y-131257142D01*
X137350476Y-131304761D01*
X137445714Y-131352380D01*
X137636190Y-131352380D01*
X137731428Y-131304761D01*
X137779047Y-131257142D01*
X137826666Y-131161904D01*
X137826666Y-130923809D01*
X137779047Y-130828571D01*
X137731428Y-130780952D01*
X137636190Y-130733333D01*
X137445714Y-130733333D01*
X137350476Y-130780952D01*
X137302857Y-130828571D01*
X137255238Y-130923809D01*
%TO.C,J5*%
X121586666Y-130352380D02*
X121586666Y-131066666D01*
X121539047Y-131209523D01*
X121443809Y-131304761D01*
X121300952Y-131352380D01*
X121205714Y-131352380D01*
X122539047Y-130352380D02*
X122062857Y-130352380D01*
X122015238Y-130828571D01*
X122062857Y-130780952D01*
X122158095Y-130733333D01*
X122396190Y-130733333D01*
X122491428Y-130780952D01*
X122539047Y-130828571D01*
X122586666Y-130923809D01*
X122586666Y-131161904D01*
X122539047Y-131257142D01*
X122491428Y-131304761D01*
X122396190Y-131352380D01*
X122158095Y-131352380D01*
X122062857Y-131304761D01*
X122015238Y-131257142D01*
%TO.C,J4*%
X106346666Y-130352380D02*
X106346666Y-131066666D01*
X106299047Y-131209523D01*
X106203809Y-131304761D01*
X106060952Y-131352380D01*
X105965714Y-131352380D01*
X107251428Y-130685714D02*
X107251428Y-131352380D01*
X107013333Y-130304761D02*
X106775238Y-131019047D01*
X107394285Y-131019047D01*
%TO.C,J3*%
X91106666Y-130352380D02*
X91106666Y-131066666D01*
X91059047Y-131209523D01*
X90963809Y-131304761D01*
X90820952Y-131352380D01*
X90725714Y-131352380D01*
X91487619Y-130352380D02*
X92106666Y-130352380D01*
X91773333Y-130733333D01*
X91916190Y-130733333D01*
X92011428Y-130780952D01*
X92059047Y-130828571D01*
X92106666Y-130923809D01*
X92106666Y-131161904D01*
X92059047Y-131257142D01*
X92011428Y-131304761D01*
X91916190Y-131352380D01*
X91630476Y-131352380D01*
X91535238Y-131304761D01*
X91487619Y-131257142D01*
%TO.C,J2*%
X78102380Y-114633333D02*
X78816666Y-114633333D01*
X78959523Y-114680952D01*
X79054761Y-114776190D01*
X79102380Y-114919047D01*
X79102380Y-115014285D01*
X78197619Y-114204761D02*
X78150000Y-114157142D01*
X78102380Y-114061904D01*
X78102380Y-113823809D01*
X78150000Y-113728571D01*
X78197619Y-113680952D01*
X78292857Y-113633333D01*
X78388095Y-113633333D01*
X78530952Y-113680952D01*
X79102380Y-114252380D01*
X79102380Y-113633333D01*
%TO.C,J1*%
X148132380Y-82883333D02*
X148846666Y-82883333D01*
X148989523Y-82930952D01*
X149084761Y-83026190D01*
X149132380Y-83169047D01*
X149132380Y-83264285D01*
X149132380Y-81883333D02*
X149132380Y-82454761D01*
X149132380Y-82169047D02*
X148132380Y-82169047D01*
X148275238Y-82264285D01*
X148370476Y-82359523D01*
X148418095Y-82454761D01*
%TO.C,C5*%
X111633333Y-78802142D02*
X111585714Y-78849761D01*
X111442857Y-78897380D01*
X111347619Y-78897380D01*
X111204761Y-78849761D01*
X111109523Y-78754523D01*
X111061904Y-78659285D01*
X111014285Y-78468809D01*
X111014285Y-78325952D01*
X111061904Y-78135476D01*
X111109523Y-78040238D01*
X111204761Y-77945000D01*
X111347619Y-77897380D01*
X111442857Y-77897380D01*
X111585714Y-77945000D01*
X111633333Y-77992619D01*
X112538095Y-77897380D02*
X112061904Y-77897380D01*
X112014285Y-78373571D01*
X112061904Y-78325952D01*
X112157142Y-78278333D01*
X112395238Y-78278333D01*
X112490476Y-78325952D01*
X112538095Y-78373571D01*
X112585714Y-78468809D01*
X112585714Y-78706904D01*
X112538095Y-78802142D01*
X112490476Y-78849761D01*
X112395238Y-78897380D01*
X112157142Y-78897380D01*
X112061904Y-78849761D01*
X112014285Y-78802142D01*
%TO.C,C4*%
X103378333Y-78802142D02*
X103330714Y-78849761D01*
X103187857Y-78897380D01*
X103092619Y-78897380D01*
X102949761Y-78849761D01*
X102854523Y-78754523D01*
X102806904Y-78659285D01*
X102759285Y-78468809D01*
X102759285Y-78325952D01*
X102806904Y-78135476D01*
X102854523Y-78040238D01*
X102949761Y-77945000D01*
X103092619Y-77897380D01*
X103187857Y-77897380D01*
X103330714Y-77945000D01*
X103378333Y-77992619D01*
X104235476Y-78230714D02*
X104235476Y-78897380D01*
X103997380Y-77849761D02*
X103759285Y-78564047D01*
X104378333Y-78564047D01*
%TO.C,C3*%
X137608333Y-75597142D02*
X137560714Y-75644761D01*
X137417857Y-75692380D01*
X137322619Y-75692380D01*
X137179761Y-75644761D01*
X137084523Y-75549523D01*
X137036904Y-75454285D01*
X136989285Y-75263809D01*
X136989285Y-75120952D01*
X137036904Y-74930476D01*
X137084523Y-74835238D01*
X137179761Y-74740000D01*
X137322619Y-74692380D01*
X137417857Y-74692380D01*
X137560714Y-74740000D01*
X137608333Y-74787619D01*
X137941666Y-74692380D02*
X138560714Y-74692380D01*
X138227380Y-75073333D01*
X138370238Y-75073333D01*
X138465476Y-75120952D01*
X138513095Y-75168571D01*
X138560714Y-75263809D01*
X138560714Y-75501904D01*
X138513095Y-75597142D01*
X138465476Y-75644761D01*
X138370238Y-75692380D01*
X138084523Y-75692380D01*
X137989285Y-75644761D01*
X137941666Y-75597142D01*
%TO.C,C2*%
X82867142Y-73211666D02*
X82914761Y-73259285D01*
X82962380Y-73402142D01*
X82962380Y-73497380D01*
X82914761Y-73640238D01*
X82819523Y-73735476D01*
X82724285Y-73783095D01*
X82533809Y-73830714D01*
X82390952Y-73830714D01*
X82200476Y-73783095D01*
X82105238Y-73735476D01*
X82010000Y-73640238D01*
X81962380Y-73497380D01*
X81962380Y-73402142D01*
X82010000Y-73259285D01*
X82057619Y-73211666D01*
X82057619Y-72830714D02*
X82010000Y-72783095D01*
X81962380Y-72687857D01*
X81962380Y-72449761D01*
X82010000Y-72354523D01*
X82057619Y-72306904D01*
X82152857Y-72259285D01*
X82248095Y-72259285D01*
X82390952Y-72306904D01*
X82962380Y-72878333D01*
X82962380Y-72259285D01*
%TO.C,C1*%
X77867142Y-80156666D02*
X77914761Y-80204285D01*
X77962380Y-80347142D01*
X77962380Y-80442380D01*
X77914761Y-80585238D01*
X77819523Y-80680476D01*
X77724285Y-80728095D01*
X77533809Y-80775714D01*
X77390952Y-80775714D01*
X77200476Y-80728095D01*
X77105238Y-80680476D01*
X77010000Y-80585238D01*
X76962380Y-80442380D01*
X76962380Y-80347142D01*
X77010000Y-80204285D01*
X77057619Y-80156666D01*
X77962380Y-79204285D02*
X77962380Y-79775714D01*
X77962380Y-79490000D02*
X76962380Y-79490000D01*
X77105238Y-79585238D01*
X77200476Y-79680476D01*
X77248095Y-79775714D01*
%TO.C,U1*%
X84738095Y-64952380D02*
X84738095Y-65761904D01*
X84785714Y-65857142D01*
X84833333Y-65904761D01*
X84928571Y-65952380D01*
X85119047Y-65952380D01*
X85214285Y-65904761D01*
X85261904Y-65857142D01*
X85309523Y-65761904D01*
X85309523Y-64952380D01*
X86309523Y-65952380D02*
X85738095Y-65952380D01*
X86023809Y-65952380D02*
X86023809Y-64952380D01*
X85928571Y-65095238D01*
X85833333Y-65190476D01*
X85738095Y-65238095D01*
%TO.C,Q6*%
X69404761Y-105047619D02*
X69309523Y-105000000D01*
X69214285Y-104904761D01*
X69071428Y-104761904D01*
X68976190Y-104714285D01*
X68880952Y-104714285D01*
X68928571Y-104952380D02*
X68833333Y-104904761D01*
X68738095Y-104809523D01*
X68690476Y-104619047D01*
X68690476Y-104285714D01*
X68738095Y-104095238D01*
X68833333Y-104000000D01*
X68928571Y-103952380D01*
X69119047Y-103952380D01*
X69214285Y-104000000D01*
X69309523Y-104095238D01*
X69357142Y-104285714D01*
X69357142Y-104619047D01*
X69309523Y-104809523D01*
X69214285Y-104904761D01*
X69119047Y-104952380D01*
X68928571Y-104952380D01*
X70214285Y-103952380D02*
X70023809Y-103952380D01*
X69928571Y-104000000D01*
X69880952Y-104047619D01*
X69785714Y-104190476D01*
X69738095Y-104380952D01*
X69738095Y-104761904D01*
X69785714Y-104857142D01*
X69833333Y-104904761D01*
X69928571Y-104952380D01*
X70119047Y-104952380D01*
X70214285Y-104904761D01*
X70261904Y-104857142D01*
X70309523Y-104761904D01*
X70309523Y-104523809D01*
X70261904Y-104428571D01*
X70214285Y-104380952D01*
X70119047Y-104333333D01*
X69928571Y-104333333D01*
X69833333Y-104380952D01*
X69785714Y-104428571D01*
X69738095Y-104523809D01*
%TO.C,Q5*%
X76904761Y-105047619D02*
X76809523Y-105000000D01*
X76714285Y-104904761D01*
X76571428Y-104761904D01*
X76476190Y-104714285D01*
X76380952Y-104714285D01*
X76428571Y-104952380D02*
X76333333Y-104904761D01*
X76238095Y-104809523D01*
X76190476Y-104619047D01*
X76190476Y-104285714D01*
X76238095Y-104095238D01*
X76333333Y-104000000D01*
X76428571Y-103952380D01*
X76619047Y-103952380D01*
X76714285Y-104000000D01*
X76809523Y-104095238D01*
X76857142Y-104285714D01*
X76857142Y-104619047D01*
X76809523Y-104809523D01*
X76714285Y-104904761D01*
X76619047Y-104952380D01*
X76428571Y-104952380D01*
X77761904Y-103952380D02*
X77285714Y-103952380D01*
X77238095Y-104428571D01*
X77285714Y-104380952D01*
X77380952Y-104333333D01*
X77619047Y-104333333D01*
X77714285Y-104380952D01*
X77761904Y-104428571D01*
X77809523Y-104523809D01*
X77809523Y-104761904D01*
X77761904Y-104857142D01*
X77714285Y-104904761D01*
X77619047Y-104952380D01*
X77380952Y-104952380D01*
X77285714Y-104904761D01*
X77238095Y-104857142D01*
%TO.C,Q4*%
X77404761Y-93547619D02*
X77309523Y-93500000D01*
X77214285Y-93404761D01*
X77071428Y-93261904D01*
X76976190Y-93214285D01*
X76880952Y-93214285D01*
X76928571Y-93452380D02*
X76833333Y-93404761D01*
X76738095Y-93309523D01*
X76690476Y-93119047D01*
X76690476Y-92785714D01*
X76738095Y-92595238D01*
X76833333Y-92500000D01*
X76928571Y-92452380D01*
X77119047Y-92452380D01*
X77214285Y-92500000D01*
X77309523Y-92595238D01*
X77357142Y-92785714D01*
X77357142Y-93119047D01*
X77309523Y-93309523D01*
X77214285Y-93404761D01*
X77119047Y-93452380D01*
X76928571Y-93452380D01*
X78214285Y-92785714D02*
X78214285Y-93452380D01*
X77976190Y-92404761D02*
X77738095Y-93119047D01*
X78357142Y-93119047D01*
%TO.C,Q3*%
X68904761Y-93547619D02*
X68809523Y-93500000D01*
X68714285Y-93404761D01*
X68571428Y-93261904D01*
X68476190Y-93214285D01*
X68380952Y-93214285D01*
X68428571Y-93452380D02*
X68333333Y-93404761D01*
X68238095Y-93309523D01*
X68190476Y-93119047D01*
X68190476Y-92785714D01*
X68238095Y-92595238D01*
X68333333Y-92500000D01*
X68428571Y-92452380D01*
X68619047Y-92452380D01*
X68714285Y-92500000D01*
X68809523Y-92595238D01*
X68857142Y-92785714D01*
X68857142Y-93119047D01*
X68809523Y-93309523D01*
X68714285Y-93404761D01*
X68619047Y-93452380D01*
X68428571Y-93452380D01*
X69190476Y-92452380D02*
X69809523Y-92452380D01*
X69476190Y-92833333D01*
X69619047Y-92833333D01*
X69714285Y-92880952D01*
X69761904Y-92928571D01*
X69809523Y-93023809D01*
X69809523Y-93261904D01*
X69761904Y-93357142D01*
X69714285Y-93404761D01*
X69619047Y-93452380D01*
X69333333Y-93452380D01*
X69238095Y-93404761D01*
X69190476Y-93357142D01*
%TO.C,U2*%
X109238095Y-87452380D02*
X109238095Y-88261904D01*
X109285714Y-88357142D01*
X109333333Y-88404761D01*
X109428571Y-88452380D01*
X109619047Y-88452380D01*
X109714285Y-88404761D01*
X109761904Y-88357142D01*
X109809523Y-88261904D01*
X109809523Y-87452380D01*
X110238095Y-87547619D02*
X110285714Y-87500000D01*
X110380952Y-87452380D01*
X110619047Y-87452380D01*
X110714285Y-87500000D01*
X110761904Y-87547619D01*
X110809523Y-87642857D01*
X110809523Y-87738095D01*
X110761904Y-87880952D01*
X110190476Y-88452380D01*
X110809523Y-88452380D01*
%TO.C,Q2*%
X99904761Y-73547619D02*
X99809523Y-73500000D01*
X99714285Y-73404761D01*
X99571428Y-73261904D01*
X99476190Y-73214285D01*
X99380952Y-73214285D01*
X99428571Y-73452380D02*
X99333333Y-73404761D01*
X99238095Y-73309523D01*
X99190476Y-73119047D01*
X99190476Y-72785714D01*
X99238095Y-72595238D01*
X99333333Y-72500000D01*
X99428571Y-72452380D01*
X99619047Y-72452380D01*
X99714285Y-72500000D01*
X99809523Y-72595238D01*
X99857142Y-72785714D01*
X99857142Y-73119047D01*
X99809523Y-73309523D01*
X99714285Y-73404761D01*
X99619047Y-73452380D01*
X99428571Y-73452380D01*
X100238095Y-72547619D02*
X100285714Y-72500000D01*
X100380952Y-72452380D01*
X100619047Y-72452380D01*
X100714285Y-72500000D01*
X100761904Y-72547619D01*
X100809523Y-72642857D01*
X100809523Y-72738095D01*
X100761904Y-72880952D01*
X100190476Y-73452380D01*
X100809523Y-73452380D01*
%TO.C,Q1*%
X140904761Y-96047619D02*
X140809523Y-96000000D01*
X140714285Y-95904761D01*
X140571428Y-95761904D01*
X140476190Y-95714285D01*
X140380952Y-95714285D01*
X140428571Y-95952380D02*
X140333333Y-95904761D01*
X140238095Y-95809523D01*
X140190476Y-95619047D01*
X140190476Y-95285714D01*
X140238095Y-95095238D01*
X140333333Y-95000000D01*
X140428571Y-94952380D01*
X140619047Y-94952380D01*
X140714285Y-95000000D01*
X140809523Y-95095238D01*
X140857142Y-95285714D01*
X140857142Y-95619047D01*
X140809523Y-95809523D01*
X140714285Y-95904761D01*
X140619047Y-95952380D01*
X140428571Y-95952380D01*
X141809523Y-95952380D02*
X141238095Y-95952380D01*
X141523809Y-95952380D02*
X141523809Y-94952380D01*
X141428571Y-95095238D01*
X141333333Y-95190476D01*
X141238095Y-95238095D01*
%TO.C,D2*%
X120761904Y-87452380D02*
X120761904Y-86452380D01*
X121000000Y-86452380D01*
X121142857Y-86500000D01*
X121238095Y-86595238D01*
X121285714Y-86690476D01*
X121333333Y-86880952D01*
X121333333Y-87023809D01*
X121285714Y-87214285D01*
X121238095Y-87309523D01*
X121142857Y-87404761D01*
X121000000Y-87452380D01*
X120761904Y-87452380D01*
X121714285Y-86547619D02*
X121761904Y-86500000D01*
X121857142Y-86452380D01*
X122095238Y-86452380D01*
X122190476Y-86500000D01*
X122238095Y-86547619D01*
X122285714Y-86642857D01*
X122285714Y-86738095D01*
X122238095Y-86880952D01*
X121666666Y-87452380D01*
X122285714Y-87452380D01*
X129278095Y-91152380D02*
X129278095Y-90152380D01*
X129849523Y-91152380D02*
X129420952Y-90580952D01*
X129849523Y-90152380D02*
X129278095Y-90723809D01*
%TO.C,D1*%
X120761904Y-81952380D02*
X120761904Y-80952380D01*
X121000000Y-80952380D01*
X121142857Y-81000000D01*
X121238095Y-81095238D01*
X121285714Y-81190476D01*
X121333333Y-81380952D01*
X121333333Y-81523809D01*
X121285714Y-81714285D01*
X121238095Y-81809523D01*
X121142857Y-81904761D01*
X121000000Y-81952380D01*
X120761904Y-81952380D01*
X122285714Y-81952380D02*
X121714285Y-81952380D01*
X122000000Y-81952380D02*
X122000000Y-80952380D01*
X121904761Y-81095238D01*
X121809523Y-81190476D01*
X121714285Y-81238095D01*
X129278095Y-86072380D02*
X129278095Y-85072380D01*
X129849523Y-86072380D02*
X129420952Y-85500952D01*
X129849523Y-85072380D02*
X129278095Y-85643809D01*
%TD*%
M02*
