%TF.GenerationSoftware,KiCad,Pcbnew,6.0.7*%
%TF.CreationDate,2022-10-17T15:43:20+02:00*%
%TF.ProjectId,lrchanger,6c726368-616e-4676-9572-2e6b69636164,rev?*%
%TF.SameCoordinates,Original*%
%TF.FileFunction,Legend,Top*%
%TF.FilePolarity,Positive*%
%FSLAX46Y46*%
G04 Gerber Fmt 4.6, Leading zero omitted, Abs format (unit mm)*
G04 Created by KiCad (PCBNEW 6.0.7) date 2022-10-17 15:43:20*
%MOMM*%
%LPD*%
G01*
G04 APERTURE LIST*
%ADD10C,0.100000*%
%ADD11C,0.150000*%
%ADD12C,0.300000*%
%ADD13C,0.400000*%
%ADD14C,0.120000*%
%TA.AperFunction,Profile*%
%ADD15C,0.050000*%
%TD*%
G04 APERTURE END LIST*
D10*
D11*
X177002200Y-166007200D02*
X177002200Y-198007200D01*
X285002200Y-198007200D01*
X285002200Y-166007200D01*
X177002200Y-166007200D01*
D10*
D11*
X10000000Y-10000000D02*
X10000000Y-200007200D01*
X287002200Y-200007200D01*
X287002200Y-10000000D01*
X10000000Y-10000000D01*
D10*
D11*
X12000000Y-12000000D02*
X12000000Y-198007200D01*
X285002200Y-198007200D01*
X285002200Y-12000000D01*
X12000000Y-12000000D01*
D10*
D11*
X60000000Y-12000000D02*
X60000000Y-10000000D01*
D10*
D11*
X110000000Y-12000000D02*
X110000000Y-10000000D01*
D10*
D11*
X160000000Y-12000000D02*
X160000000Y-10000000D01*
D10*
D11*
X210000000Y-12000000D02*
X210000000Y-10000000D01*
D10*
D11*
X260000000Y-12000000D02*
X260000000Y-10000000D01*
D10*
D11*
X36065476Y-11588095D02*
X35322619Y-11588095D01*
X35694047Y-11588095D02*
X35694047Y-10288095D01*
X35570238Y-10473809D01*
X35446428Y-10597619D01*
X35322619Y-10659523D01*
D10*
D11*
X85322619Y-10411904D02*
X85384523Y-10350000D01*
X85508333Y-10288095D01*
X85817857Y-10288095D01*
X85941666Y-10350000D01*
X86003571Y-10411904D01*
X86065476Y-10535714D01*
X86065476Y-10659523D01*
X86003571Y-10845238D01*
X85260714Y-11588095D01*
X86065476Y-11588095D01*
D10*
D11*
X135260714Y-10288095D02*
X136065476Y-10288095D01*
X135632142Y-10783333D01*
X135817857Y-10783333D01*
X135941666Y-10845238D01*
X136003571Y-10907142D01*
X136065476Y-11030952D01*
X136065476Y-11340476D01*
X136003571Y-11464285D01*
X135941666Y-11526190D01*
X135817857Y-11588095D01*
X135446428Y-11588095D01*
X135322619Y-11526190D01*
X135260714Y-11464285D01*
D10*
D11*
X185941666Y-10721428D02*
X185941666Y-11588095D01*
X185632142Y-10226190D02*
X185322619Y-11154761D01*
X186127380Y-11154761D01*
D10*
D11*
X236003571Y-10288095D02*
X235384523Y-10288095D01*
X235322619Y-10907142D01*
X235384523Y-10845238D01*
X235508333Y-10783333D01*
X235817857Y-10783333D01*
X235941666Y-10845238D01*
X236003571Y-10907142D01*
X236065476Y-11030952D01*
X236065476Y-11340476D01*
X236003571Y-11464285D01*
X235941666Y-11526190D01*
X235817857Y-11588095D01*
X235508333Y-11588095D01*
X235384523Y-11526190D01*
X235322619Y-11464285D01*
D10*
D11*
X285941666Y-10288095D02*
X285694047Y-10288095D01*
X285570238Y-10350000D01*
X285508333Y-10411904D01*
X285384523Y-10597619D01*
X285322619Y-10845238D01*
X285322619Y-11340476D01*
X285384523Y-11464285D01*
X285446428Y-11526190D01*
X285570238Y-11588095D01*
X285817857Y-11588095D01*
X285941666Y-11526190D01*
X286003571Y-11464285D01*
X286065476Y-11340476D01*
X286065476Y-11030952D01*
X286003571Y-10907142D01*
X285941666Y-10845238D01*
X285817857Y-10783333D01*
X285570238Y-10783333D01*
X285446428Y-10845238D01*
X285384523Y-10907142D01*
X285322619Y-11030952D01*
D10*
D11*
X60000000Y-198007200D02*
X60000000Y-200007200D01*
D10*
D11*
X110000000Y-198007200D02*
X110000000Y-200007200D01*
D10*
D11*
X160000000Y-198007200D02*
X160000000Y-200007200D01*
D10*
D11*
X210000000Y-198007200D02*
X210000000Y-200007200D01*
D10*
D11*
X260000000Y-198007200D02*
X260000000Y-200007200D01*
D10*
D11*
X36065476Y-199595295D02*
X35322619Y-199595295D01*
X35694047Y-199595295D02*
X35694047Y-198295295D01*
X35570238Y-198481009D01*
X35446428Y-198604819D01*
X35322619Y-198666723D01*
D10*
D11*
X85322619Y-198419104D02*
X85384523Y-198357200D01*
X85508333Y-198295295D01*
X85817857Y-198295295D01*
X85941666Y-198357200D01*
X86003571Y-198419104D01*
X86065476Y-198542914D01*
X86065476Y-198666723D01*
X86003571Y-198852438D01*
X85260714Y-199595295D01*
X86065476Y-199595295D01*
D10*
D11*
X135260714Y-198295295D02*
X136065476Y-198295295D01*
X135632142Y-198790533D01*
X135817857Y-198790533D01*
X135941666Y-198852438D01*
X136003571Y-198914342D01*
X136065476Y-199038152D01*
X136065476Y-199347676D01*
X136003571Y-199471485D01*
X135941666Y-199533390D01*
X135817857Y-199595295D01*
X135446428Y-199595295D01*
X135322619Y-199533390D01*
X135260714Y-199471485D01*
D10*
D11*
X185941666Y-198728628D02*
X185941666Y-199595295D01*
X185632142Y-198233390D02*
X185322619Y-199161961D01*
X186127380Y-199161961D01*
D10*
D11*
X236003571Y-198295295D02*
X235384523Y-198295295D01*
X235322619Y-198914342D01*
X235384523Y-198852438D01*
X235508333Y-198790533D01*
X235817857Y-198790533D01*
X235941666Y-198852438D01*
X236003571Y-198914342D01*
X236065476Y-199038152D01*
X236065476Y-199347676D01*
X236003571Y-199471485D01*
X235941666Y-199533390D01*
X235817857Y-199595295D01*
X235508333Y-199595295D01*
X235384523Y-199533390D01*
X235322619Y-199471485D01*
D10*
D11*
X285941666Y-198295295D02*
X285694047Y-198295295D01*
X285570238Y-198357200D01*
X285508333Y-198419104D01*
X285384523Y-198604819D01*
X285322619Y-198852438D01*
X285322619Y-199347676D01*
X285384523Y-199471485D01*
X285446428Y-199533390D01*
X285570238Y-199595295D01*
X285817857Y-199595295D01*
X285941666Y-199533390D01*
X286003571Y-199471485D01*
X286065476Y-199347676D01*
X286065476Y-199038152D01*
X286003571Y-198914342D01*
X285941666Y-198852438D01*
X285817857Y-198790533D01*
X285570238Y-198790533D01*
X285446428Y-198852438D01*
X285384523Y-198914342D01*
X285322619Y-199038152D01*
D10*
D11*
X10000000Y-60000000D02*
X12000000Y-60000000D01*
D10*
D11*
X10000000Y-110000000D02*
X12000000Y-110000000D01*
D10*
D11*
X10000000Y-160000000D02*
X12000000Y-160000000D01*
D10*
D11*
X10690476Y-35216666D02*
X11309523Y-35216666D01*
X10566666Y-35588095D02*
X11000000Y-34288095D01*
X11433333Y-35588095D01*
D10*
D11*
X11092857Y-84907142D02*
X11278571Y-84969047D01*
X11340476Y-85030952D01*
X11402380Y-85154761D01*
X11402380Y-85340476D01*
X11340476Y-85464285D01*
X11278571Y-85526190D01*
X11154761Y-85588095D01*
X10659523Y-85588095D01*
X10659523Y-84288095D01*
X11092857Y-84288095D01*
X11216666Y-84350000D01*
X11278571Y-84411904D01*
X11340476Y-84535714D01*
X11340476Y-84659523D01*
X11278571Y-84783333D01*
X11216666Y-84845238D01*
X11092857Y-84907142D01*
X10659523Y-84907142D01*
D10*
D11*
X11402380Y-135464285D02*
X11340476Y-135526190D01*
X11154761Y-135588095D01*
X11030952Y-135588095D01*
X10845238Y-135526190D01*
X10721428Y-135402380D01*
X10659523Y-135278571D01*
X10597619Y-135030952D01*
X10597619Y-134845238D01*
X10659523Y-134597619D01*
X10721428Y-134473809D01*
X10845238Y-134350000D01*
X11030952Y-134288095D01*
X11154761Y-134288095D01*
X11340476Y-134350000D01*
X11402380Y-134411904D01*
D10*
D11*
X10659523Y-185588095D02*
X10659523Y-184288095D01*
X10969047Y-184288095D01*
X11154761Y-184350000D01*
X11278571Y-184473809D01*
X11340476Y-184597619D01*
X11402380Y-184845238D01*
X11402380Y-185030952D01*
X11340476Y-185278571D01*
X11278571Y-185402380D01*
X11154761Y-185526190D01*
X10969047Y-185588095D01*
X10659523Y-185588095D01*
D10*
D11*
X287002200Y-60000000D02*
X285002200Y-60000000D01*
D10*
D11*
X287002200Y-110000000D02*
X285002200Y-110000000D01*
D10*
D11*
X287002200Y-160000000D02*
X285002200Y-160000000D01*
D10*
D11*
X285692676Y-35216666D02*
X286311723Y-35216666D01*
X285568866Y-35588095D02*
X286002200Y-34288095D01*
X286435533Y-35588095D01*
D10*
D11*
X286095057Y-84907142D02*
X286280771Y-84969047D01*
X286342676Y-85030952D01*
X286404580Y-85154761D01*
X286404580Y-85340476D01*
X286342676Y-85464285D01*
X286280771Y-85526190D01*
X286156961Y-85588095D01*
X285661723Y-85588095D01*
X285661723Y-84288095D01*
X286095057Y-84288095D01*
X286218866Y-84350000D01*
X286280771Y-84411904D01*
X286342676Y-84535714D01*
X286342676Y-84659523D01*
X286280771Y-84783333D01*
X286218866Y-84845238D01*
X286095057Y-84907142D01*
X285661723Y-84907142D01*
D10*
D11*
X286404580Y-135464285D02*
X286342676Y-135526190D01*
X286156961Y-135588095D01*
X286033152Y-135588095D01*
X285847438Y-135526190D01*
X285723628Y-135402380D01*
X285661723Y-135278571D01*
X285599819Y-135030952D01*
X285599819Y-134845238D01*
X285661723Y-134597619D01*
X285723628Y-134473809D01*
X285847438Y-134350000D01*
X286033152Y-134288095D01*
X286156961Y-134288095D01*
X286342676Y-134350000D01*
X286404580Y-134411904D01*
D10*
D11*
X285661723Y-185588095D02*
X285661723Y-184288095D01*
X285971247Y-184288095D01*
X286156961Y-184350000D01*
X286280771Y-184473809D01*
X286342676Y-184597619D01*
X286404580Y-184845238D01*
X286404580Y-185030952D01*
X286342676Y-185278571D01*
X286280771Y-185402380D01*
X286156961Y-185526190D01*
X285971247Y-185588095D01*
X285661723Y-185588095D01*
D10*
D11*
X200434342Y-193785771D02*
X200434342Y-192285771D01*
X200791485Y-192285771D01*
X201005771Y-192357200D01*
X201148628Y-192500057D01*
X201220057Y-192642914D01*
X201291485Y-192928628D01*
X201291485Y-193142914D01*
X201220057Y-193428628D01*
X201148628Y-193571485D01*
X201005771Y-193714342D01*
X200791485Y-193785771D01*
X200434342Y-193785771D01*
X202577200Y-193785771D02*
X202577200Y-193000057D01*
X202505771Y-192857200D01*
X202362914Y-192785771D01*
X202077200Y-192785771D01*
X201934342Y-192857200D01*
X202577200Y-193714342D02*
X202434342Y-193785771D01*
X202077200Y-193785771D01*
X201934342Y-193714342D01*
X201862914Y-193571485D01*
X201862914Y-193428628D01*
X201934342Y-193285771D01*
X202077200Y-193214342D01*
X202434342Y-193214342D01*
X202577200Y-193142914D01*
X203077200Y-192785771D02*
X203648628Y-192785771D01*
X203291485Y-192285771D02*
X203291485Y-193571485D01*
X203362914Y-193714342D01*
X203505771Y-193785771D01*
X203648628Y-193785771D01*
X204720057Y-193714342D02*
X204577200Y-193785771D01*
X204291485Y-193785771D01*
X204148628Y-193714342D01*
X204077200Y-193571485D01*
X204077200Y-193000057D01*
X204148628Y-192857200D01*
X204291485Y-192785771D01*
X204577200Y-192785771D01*
X204720057Y-192857200D01*
X204791485Y-193000057D01*
X204791485Y-193142914D01*
X204077200Y-193285771D01*
X205434342Y-193642914D02*
X205505771Y-193714342D01*
X205434342Y-193785771D01*
X205362914Y-193714342D01*
X205434342Y-193642914D01*
X205434342Y-193785771D01*
X205434342Y-192857200D02*
X205505771Y-192928628D01*
X205434342Y-193000057D01*
X205362914Y-192928628D01*
X205434342Y-192857200D01*
X205434342Y-193000057D01*
D10*
D11*
X177002200Y-194507200D02*
X285002200Y-194507200D01*
D10*
D11*
X178434342Y-196585771D02*
X178434342Y-195085771D01*
X179291485Y-196585771D02*
X178648628Y-195728628D01*
X179291485Y-195085771D02*
X178434342Y-195942914D01*
X179934342Y-196585771D02*
X179934342Y-195585771D01*
X179934342Y-195085771D02*
X179862914Y-195157200D01*
X179934342Y-195228628D01*
X180005771Y-195157200D01*
X179934342Y-195085771D01*
X179934342Y-195228628D01*
X181505771Y-196442914D02*
X181434342Y-196514342D01*
X181220057Y-196585771D01*
X181077200Y-196585771D01*
X180862914Y-196514342D01*
X180720057Y-196371485D01*
X180648628Y-196228628D01*
X180577200Y-195942914D01*
X180577200Y-195728628D01*
X180648628Y-195442914D01*
X180720057Y-195300057D01*
X180862914Y-195157200D01*
X181077200Y-195085771D01*
X181220057Y-195085771D01*
X181434342Y-195157200D01*
X181505771Y-195228628D01*
X182791485Y-196585771D02*
X182791485Y-195800057D01*
X182720057Y-195657200D01*
X182577200Y-195585771D01*
X182291485Y-195585771D01*
X182148628Y-195657200D01*
X182791485Y-196514342D02*
X182648628Y-196585771D01*
X182291485Y-196585771D01*
X182148628Y-196514342D01*
X182077200Y-196371485D01*
X182077200Y-196228628D01*
X182148628Y-196085771D01*
X182291485Y-196014342D01*
X182648628Y-196014342D01*
X182791485Y-195942914D01*
X184148628Y-196585771D02*
X184148628Y-195085771D01*
X184148628Y-196514342D02*
X184005771Y-196585771D01*
X183720057Y-196585771D01*
X183577200Y-196514342D01*
X183505771Y-196442914D01*
X183434342Y-196300057D01*
X183434342Y-195871485D01*
X183505771Y-195728628D01*
X183577200Y-195657200D01*
X183720057Y-195585771D01*
X184005771Y-195585771D01*
X184148628Y-195657200D01*
X186005771Y-195800057D02*
X186505771Y-195800057D01*
X186720057Y-196585771D02*
X186005771Y-196585771D01*
X186005771Y-195085771D01*
X186720057Y-195085771D01*
X187362914Y-196442914D02*
X187434342Y-196514342D01*
X187362914Y-196585771D01*
X187291485Y-196514342D01*
X187362914Y-196442914D01*
X187362914Y-196585771D01*
X188077200Y-196585771D02*
X188077200Y-195085771D01*
X188434342Y-195085771D01*
X188648628Y-195157200D01*
X188791485Y-195300057D01*
X188862914Y-195442914D01*
X188934342Y-195728628D01*
X188934342Y-195942914D01*
X188862914Y-196228628D01*
X188791485Y-196371485D01*
X188648628Y-196514342D01*
X188434342Y-196585771D01*
X188077200Y-196585771D01*
X189577200Y-196442914D02*
X189648628Y-196514342D01*
X189577200Y-196585771D01*
X189505771Y-196514342D01*
X189577200Y-196442914D01*
X189577200Y-196585771D01*
X190220057Y-196157200D02*
X190934342Y-196157200D01*
X190077200Y-196585771D02*
X190577200Y-195085771D01*
X191077200Y-196585771D01*
X191577200Y-196442914D02*
X191648628Y-196514342D01*
X191577200Y-196585771D01*
X191505771Y-196514342D01*
X191577200Y-196442914D01*
X191577200Y-196585771D01*
X194577200Y-196585771D02*
X194577200Y-195085771D01*
X194720057Y-196014342D02*
X195148628Y-196585771D01*
X195148628Y-195585771D02*
X194577200Y-196157200D01*
X195791485Y-196585771D02*
X195791485Y-195585771D01*
X195791485Y-195085771D02*
X195720057Y-195157200D01*
X195791485Y-195228628D01*
X195862914Y-195157200D01*
X195791485Y-195085771D01*
X195791485Y-195228628D01*
X197148628Y-196514342D02*
X197005771Y-196585771D01*
X196720057Y-196585771D01*
X196577200Y-196514342D01*
X196505771Y-196442914D01*
X196434342Y-196300057D01*
X196434342Y-195871485D01*
X196505771Y-195728628D01*
X196577200Y-195657200D01*
X196720057Y-195585771D01*
X197005771Y-195585771D01*
X197148628Y-195657200D01*
X198434342Y-196585771D02*
X198434342Y-195800057D01*
X198362914Y-195657200D01*
X198220057Y-195585771D01*
X197934342Y-195585771D01*
X197791485Y-195657200D01*
X198434342Y-196514342D02*
X198291485Y-196585771D01*
X197934342Y-196585771D01*
X197791485Y-196514342D01*
X197720057Y-196371485D01*
X197720057Y-196228628D01*
X197791485Y-196085771D01*
X197934342Y-196014342D01*
X198291485Y-196014342D01*
X198434342Y-195942914D01*
X199791485Y-196585771D02*
X199791485Y-195085771D01*
X199791485Y-196514342D02*
X199648628Y-196585771D01*
X199362914Y-196585771D01*
X199220057Y-196514342D01*
X199148628Y-196442914D01*
X199077200Y-196300057D01*
X199077200Y-195871485D01*
X199148628Y-195728628D01*
X199220057Y-195657200D01*
X199362914Y-195585771D01*
X199648628Y-195585771D01*
X199791485Y-195657200D01*
X202291485Y-195085771D02*
X202005771Y-195085771D01*
X201862914Y-195157200D01*
X201791485Y-195228628D01*
X201648628Y-195442914D01*
X201577200Y-195728628D01*
X201577200Y-196300057D01*
X201648628Y-196442914D01*
X201720057Y-196514342D01*
X201862914Y-196585771D01*
X202148628Y-196585771D01*
X202291485Y-196514342D01*
X202362914Y-196442914D01*
X202434342Y-196300057D01*
X202434342Y-195942914D01*
X202362914Y-195800057D01*
X202291485Y-195728628D01*
X202148628Y-195657200D01*
X201862914Y-195657200D01*
X201720057Y-195728628D01*
X201648628Y-195800057D01*
X201577200Y-195942914D01*
X203077200Y-196442914D02*
X203148628Y-196514342D01*
X203077200Y-196585771D01*
X203005771Y-196514342D01*
X203077200Y-196442914D01*
X203077200Y-196585771D01*
X204077200Y-195085771D02*
X204220057Y-195085771D01*
X204362914Y-195157200D01*
X204434342Y-195228628D01*
X204505771Y-195371485D01*
X204577200Y-195657200D01*
X204577200Y-196014342D01*
X204505771Y-196300057D01*
X204434342Y-196442914D01*
X204362914Y-196514342D01*
X204220057Y-196585771D01*
X204077200Y-196585771D01*
X203934342Y-196514342D01*
X203862914Y-196442914D01*
X203791485Y-196300057D01*
X203720057Y-196014342D01*
X203720057Y-195657200D01*
X203791485Y-195371485D01*
X203862914Y-195228628D01*
X203934342Y-195157200D01*
X204077200Y-195085771D01*
X205220057Y-196442914D02*
X205291485Y-196514342D01*
X205220057Y-196585771D01*
X205148628Y-196514342D01*
X205220057Y-196442914D01*
X205220057Y-196585771D01*
X205791485Y-195085771D02*
X206791485Y-195085771D01*
X206148628Y-196585771D01*
D10*
D11*
X177002200Y-191507200D02*
X285002200Y-191507200D01*
D10*
D12*
X264411485Y-193785771D02*
X263911485Y-193071485D01*
X263554342Y-193785771D02*
X263554342Y-192285771D01*
X264125771Y-192285771D01*
X264268628Y-192357200D01*
X264340057Y-192428628D01*
X264411485Y-192571485D01*
X264411485Y-192785771D01*
X264340057Y-192928628D01*
X264268628Y-193000057D01*
X264125771Y-193071485D01*
X263554342Y-193071485D01*
X265625771Y-193714342D02*
X265482914Y-193785771D01*
X265197200Y-193785771D01*
X265054342Y-193714342D01*
X264982914Y-193571485D01*
X264982914Y-193000057D01*
X265054342Y-192857200D01*
X265197200Y-192785771D01*
X265482914Y-192785771D01*
X265625771Y-192857200D01*
X265697200Y-193000057D01*
X265697200Y-193142914D01*
X264982914Y-193285771D01*
X266197200Y-192785771D02*
X266554342Y-193785771D01*
X266911485Y-192785771D01*
X267482914Y-193642914D02*
X267554342Y-193714342D01*
X267482914Y-193785771D01*
X267411485Y-193714342D01*
X267482914Y-193642914D01*
X267482914Y-193785771D01*
X267482914Y-192857200D02*
X267554342Y-192928628D01*
X267482914Y-193000057D01*
X267411485Y-192928628D01*
X267482914Y-192857200D01*
X267482914Y-193000057D01*
D10*
D11*
X178362914Y-193714342D02*
X178577200Y-193785771D01*
X178934342Y-193785771D01*
X179077200Y-193714342D01*
X179148628Y-193642914D01*
X179220057Y-193500057D01*
X179220057Y-193357200D01*
X179148628Y-193214342D01*
X179077200Y-193142914D01*
X178934342Y-193071485D01*
X178648628Y-193000057D01*
X178505771Y-192928628D01*
X178434342Y-192857200D01*
X178362914Y-192714342D01*
X178362914Y-192571485D01*
X178434342Y-192428628D01*
X178505771Y-192357200D01*
X178648628Y-192285771D01*
X179005771Y-192285771D01*
X179220057Y-192357200D01*
X179862914Y-193785771D02*
X179862914Y-192785771D01*
X179862914Y-192285771D02*
X179791485Y-192357200D01*
X179862914Y-192428628D01*
X179934342Y-192357200D01*
X179862914Y-192285771D01*
X179862914Y-192428628D01*
X180434342Y-192785771D02*
X181220057Y-192785771D01*
X180434342Y-193785771D01*
X181220057Y-193785771D01*
X182362914Y-193714342D02*
X182220057Y-193785771D01*
X181934342Y-193785771D01*
X181791485Y-193714342D01*
X181720057Y-193571485D01*
X181720057Y-193000057D01*
X181791485Y-192857200D01*
X181934342Y-192785771D01*
X182220057Y-192785771D01*
X182362914Y-192857200D01*
X182434342Y-193000057D01*
X182434342Y-193142914D01*
X181720057Y-193285771D01*
X183077200Y-193642914D02*
X183148628Y-193714342D01*
X183077200Y-193785771D01*
X183005771Y-193714342D01*
X183077200Y-193642914D01*
X183077200Y-193785771D01*
X183077200Y-192857200D02*
X183148628Y-192928628D01*
X183077200Y-193000057D01*
X183005771Y-192928628D01*
X183077200Y-192857200D01*
X183077200Y-193000057D01*
X184862914Y-193357200D02*
X185577200Y-193357200D01*
X184720057Y-193785771D02*
X185220057Y-192285771D01*
X185720057Y-193785771D01*
X186862914Y-192785771D02*
X186862914Y-193785771D01*
X186505771Y-192214342D02*
X186148628Y-193285771D01*
X187077200Y-193285771D01*
D10*
D11*
X263434342Y-196585771D02*
X263434342Y-195085771D01*
X264791485Y-196585771D02*
X264791485Y-195085771D01*
X264791485Y-196514342D02*
X264648628Y-196585771D01*
X264362914Y-196585771D01*
X264220057Y-196514342D01*
X264148628Y-196442914D01*
X264077200Y-196300057D01*
X264077200Y-195871485D01*
X264148628Y-195728628D01*
X264220057Y-195657200D01*
X264362914Y-195585771D01*
X264648628Y-195585771D01*
X264791485Y-195657200D01*
X265505771Y-196442914D02*
X265577200Y-196514342D01*
X265505771Y-196585771D01*
X265434342Y-196514342D01*
X265505771Y-196442914D01*
X265505771Y-196585771D01*
X265505771Y-195657200D02*
X265577200Y-195728628D01*
X265505771Y-195800057D01*
X265434342Y-195728628D01*
X265505771Y-195657200D01*
X265505771Y-195800057D01*
X268148628Y-196585771D02*
X267291485Y-196585771D01*
X267720057Y-196585771D02*
X267720057Y-195085771D01*
X267577200Y-195300057D01*
X267434342Y-195442914D01*
X267291485Y-195514342D01*
X269862914Y-195014342D02*
X268577200Y-196942914D01*
X271148628Y-196585771D02*
X270291485Y-196585771D01*
X270720057Y-196585771D02*
X270720057Y-195085771D01*
X270577200Y-195300057D01*
X270434342Y-195442914D01*
X270291485Y-195514342D01*
D10*
D11*
X177002200Y-187507200D02*
X285002200Y-187507200D01*
D10*
D13*
X178714580Y-188211961D02*
X179857438Y-188211961D01*
X179036009Y-190211961D02*
X179286009Y-188211961D01*
X180274104Y-190211961D02*
X180440771Y-188878628D01*
X180524104Y-188211961D02*
X180416961Y-188307200D01*
X180500295Y-188402438D01*
X180607438Y-188307200D01*
X180524104Y-188211961D01*
X180500295Y-188402438D01*
X181107438Y-188878628D02*
X181869342Y-188878628D01*
X181476485Y-188211961D02*
X181262200Y-189926247D01*
X181333628Y-190116723D01*
X181512200Y-190211961D01*
X181702676Y-190211961D01*
X182655057Y-190211961D02*
X182476485Y-190116723D01*
X182405057Y-189926247D01*
X182619342Y-188211961D01*
X184190771Y-190116723D02*
X183988390Y-190211961D01*
X183607438Y-190211961D01*
X183428866Y-190116723D01*
X183357438Y-189926247D01*
X183452676Y-189164342D01*
X183571723Y-188973866D01*
X183774104Y-188878628D01*
X184155057Y-188878628D01*
X184333628Y-188973866D01*
X184405057Y-189164342D01*
X184381247Y-189354819D01*
X183405057Y-189545295D01*
X185155057Y-190021485D02*
X185238390Y-190116723D01*
X185131247Y-190211961D01*
X185047914Y-190116723D01*
X185155057Y-190021485D01*
X185131247Y-190211961D01*
X185286009Y-188973866D02*
X185369342Y-189069104D01*
X185262200Y-189164342D01*
X185178866Y-189069104D01*
X185286009Y-188973866D01*
X185262200Y-189164342D01*
D10*
D11*
X178934342Y-185600057D02*
X178434342Y-185600057D01*
X178434342Y-186385771D02*
X178434342Y-184885771D01*
X179148628Y-184885771D01*
X179720057Y-186385771D02*
X179720057Y-185385771D01*
X179720057Y-184885771D02*
X179648628Y-184957200D01*
X179720057Y-185028628D01*
X179791485Y-184957200D01*
X179720057Y-184885771D01*
X179720057Y-185028628D01*
X180648628Y-186385771D02*
X180505771Y-186314342D01*
X180434342Y-186171485D01*
X180434342Y-184885771D01*
X181791485Y-186314342D02*
X181648628Y-186385771D01*
X181362914Y-186385771D01*
X181220057Y-186314342D01*
X181148628Y-186171485D01*
X181148628Y-185600057D01*
X181220057Y-185457200D01*
X181362914Y-185385771D01*
X181648628Y-185385771D01*
X181791485Y-185457200D01*
X181862914Y-185600057D01*
X181862914Y-185742914D01*
X181148628Y-185885771D01*
X182505771Y-186242914D02*
X182577200Y-186314342D01*
X182505771Y-186385771D01*
X182434342Y-186314342D01*
X182505771Y-186242914D01*
X182505771Y-186385771D01*
X182505771Y-185457200D02*
X182577200Y-185528628D01*
X182505771Y-185600057D01*
X182434342Y-185528628D01*
X182505771Y-185457200D01*
X182505771Y-185600057D01*
X184577200Y-186385771D02*
X184434342Y-186314342D01*
X184362914Y-186171485D01*
X184362914Y-184885771D01*
X185148628Y-186385771D02*
X185148628Y-185385771D01*
X185148628Y-185671485D02*
X185220057Y-185528628D01*
X185291485Y-185457200D01*
X185434342Y-185385771D01*
X185577200Y-185385771D01*
X186720057Y-186314342D02*
X186577200Y-186385771D01*
X186291485Y-186385771D01*
X186148628Y-186314342D01*
X186077200Y-186242914D01*
X186005771Y-186100057D01*
X186005771Y-185671485D01*
X186077200Y-185528628D01*
X186148628Y-185457200D01*
X186291485Y-185385771D01*
X186577200Y-185385771D01*
X186720057Y-185457200D01*
X187362914Y-186385771D02*
X187362914Y-184885771D01*
X188005771Y-186385771D02*
X188005771Y-185600057D01*
X187934342Y-185457200D01*
X187791485Y-185385771D01*
X187577200Y-185385771D01*
X187434342Y-185457200D01*
X187362914Y-185528628D01*
X189362914Y-186385771D02*
X189362914Y-185600057D01*
X189291485Y-185457200D01*
X189148628Y-185385771D01*
X188862914Y-185385771D01*
X188720057Y-185457200D01*
X189362914Y-186314342D02*
X189220057Y-186385771D01*
X188862914Y-186385771D01*
X188720057Y-186314342D01*
X188648628Y-186171485D01*
X188648628Y-186028628D01*
X188720057Y-185885771D01*
X188862914Y-185814342D01*
X189220057Y-185814342D01*
X189362914Y-185742914D01*
X190077200Y-185385771D02*
X190077200Y-186385771D01*
X190077200Y-185528628D02*
X190148628Y-185457200D01*
X190291485Y-185385771D01*
X190505771Y-185385771D01*
X190648628Y-185457200D01*
X190720057Y-185600057D01*
X190720057Y-186385771D01*
X192077200Y-185385771D02*
X192077200Y-186600057D01*
X192005771Y-186742914D01*
X191934342Y-186814342D01*
X191791485Y-186885771D01*
X191577200Y-186885771D01*
X191434342Y-186814342D01*
X192077200Y-186314342D02*
X191934342Y-186385771D01*
X191648628Y-186385771D01*
X191505771Y-186314342D01*
X191434342Y-186242914D01*
X191362914Y-186100057D01*
X191362914Y-185671485D01*
X191434342Y-185528628D01*
X191505771Y-185457200D01*
X191648628Y-185385771D01*
X191934342Y-185385771D01*
X192077200Y-185457200D01*
X193362914Y-186314342D02*
X193220057Y-186385771D01*
X192934342Y-186385771D01*
X192791485Y-186314342D01*
X192720057Y-186171485D01*
X192720057Y-185600057D01*
X192791485Y-185457200D01*
X192934342Y-185385771D01*
X193220057Y-185385771D01*
X193362914Y-185457200D01*
X193434342Y-185600057D01*
X193434342Y-185742914D01*
X192720057Y-185885771D01*
X194077200Y-186385771D02*
X194077200Y-185385771D01*
X194077200Y-185671485D02*
X194148628Y-185528628D01*
X194220057Y-185457200D01*
X194362914Y-185385771D01*
X194505771Y-185385771D01*
X195005771Y-186242914D02*
X195077200Y-186314342D01*
X195005771Y-186385771D01*
X194934342Y-186314342D01*
X195005771Y-186242914D01*
X195005771Y-186385771D01*
X195720057Y-186385771D02*
X195720057Y-184885771D01*
X195862914Y-185814342D02*
X196291485Y-186385771D01*
X196291485Y-185385771D02*
X195720057Y-185957200D01*
X196934342Y-186385771D02*
X196934342Y-185385771D01*
X196934342Y-184885771D02*
X196862914Y-184957200D01*
X196934342Y-185028628D01*
X197005771Y-184957200D01*
X196934342Y-184885771D01*
X196934342Y-185028628D01*
X198291485Y-186314342D02*
X198148628Y-186385771D01*
X197862914Y-186385771D01*
X197720057Y-186314342D01*
X197648628Y-186242914D01*
X197577200Y-186100057D01*
X197577200Y-185671485D01*
X197648628Y-185528628D01*
X197720057Y-185457200D01*
X197862914Y-185385771D01*
X198148628Y-185385771D01*
X198291485Y-185457200D01*
X199577200Y-186385771D02*
X199577200Y-185600057D01*
X199505771Y-185457200D01*
X199362914Y-185385771D01*
X199077200Y-185385771D01*
X198934342Y-185457200D01*
X199577200Y-186314342D02*
X199434342Y-186385771D01*
X199077200Y-186385771D01*
X198934342Y-186314342D01*
X198862914Y-186171485D01*
X198862914Y-186028628D01*
X198934342Y-185885771D01*
X199077200Y-185814342D01*
X199434342Y-185814342D01*
X199577200Y-185742914D01*
X200934342Y-186385771D02*
X200934342Y-184885771D01*
X200934342Y-186314342D02*
X200791485Y-186385771D01*
X200505771Y-186385771D01*
X200362914Y-186314342D01*
X200291485Y-186242914D01*
X200220057Y-186100057D01*
X200220057Y-185671485D01*
X200291485Y-185528628D01*
X200362914Y-185457200D01*
X200505771Y-185385771D01*
X200791485Y-185385771D01*
X200934342Y-185457200D01*
X201291485Y-186528628D02*
X202434342Y-186528628D01*
X202791485Y-185385771D02*
X202791485Y-186885771D01*
X202791485Y-185457200D02*
X202934342Y-185385771D01*
X203220057Y-185385771D01*
X203362914Y-185457200D01*
X203434342Y-185528628D01*
X203505771Y-185671485D01*
X203505771Y-186100057D01*
X203434342Y-186242914D01*
X203362914Y-186314342D01*
X203220057Y-186385771D01*
X202934342Y-186385771D01*
X202791485Y-186314342D01*
X204791485Y-186314342D02*
X204648628Y-186385771D01*
X204362914Y-186385771D01*
X204220057Y-186314342D01*
X204148628Y-186242914D01*
X204077200Y-186100057D01*
X204077200Y-185671485D01*
X204148628Y-185528628D01*
X204220057Y-185457200D01*
X204362914Y-185385771D01*
X204648628Y-185385771D01*
X204791485Y-185457200D01*
X205434342Y-186385771D02*
X205434342Y-184885771D01*
X205434342Y-185457200D02*
X205577200Y-185385771D01*
X205862914Y-185385771D01*
X206005771Y-185457200D01*
X206077200Y-185528628D01*
X206148628Y-185671485D01*
X206148628Y-186100057D01*
X206077200Y-186242914D01*
X206005771Y-186314342D01*
X205862914Y-186385771D01*
X205577200Y-186385771D01*
X205434342Y-186314342D01*
D10*
D11*
X177002200Y-181507200D02*
X285002200Y-181507200D01*
D10*
D11*
X178362914Y-183614342D02*
X178577200Y-183685771D01*
X178934342Y-183685771D01*
X179077200Y-183614342D01*
X179148628Y-183542914D01*
X179220057Y-183400057D01*
X179220057Y-183257200D01*
X179148628Y-183114342D01*
X179077200Y-183042914D01*
X178934342Y-182971485D01*
X178648628Y-182900057D01*
X178505771Y-182828628D01*
X178434342Y-182757200D01*
X178362914Y-182614342D01*
X178362914Y-182471485D01*
X178434342Y-182328628D01*
X178505771Y-182257200D01*
X178648628Y-182185771D01*
X179005771Y-182185771D01*
X179220057Y-182257200D01*
X179862914Y-183685771D02*
X179862914Y-182185771D01*
X180505771Y-183685771D02*
X180505771Y-182900057D01*
X180434342Y-182757200D01*
X180291485Y-182685771D01*
X180077200Y-182685771D01*
X179934342Y-182757200D01*
X179862914Y-182828628D01*
X181791485Y-183614342D02*
X181648628Y-183685771D01*
X181362914Y-183685771D01*
X181220057Y-183614342D01*
X181148628Y-183471485D01*
X181148628Y-182900057D01*
X181220057Y-182757200D01*
X181362914Y-182685771D01*
X181648628Y-182685771D01*
X181791485Y-182757200D01*
X181862914Y-182900057D01*
X181862914Y-183042914D01*
X181148628Y-183185771D01*
X183077200Y-183614342D02*
X182934342Y-183685771D01*
X182648628Y-183685771D01*
X182505771Y-183614342D01*
X182434342Y-183471485D01*
X182434342Y-182900057D01*
X182505771Y-182757200D01*
X182648628Y-182685771D01*
X182934342Y-182685771D01*
X183077200Y-182757200D01*
X183148628Y-182900057D01*
X183148628Y-183042914D01*
X182434342Y-183185771D01*
X183577200Y-182685771D02*
X184148628Y-182685771D01*
X183791485Y-182185771D02*
X183791485Y-183471485D01*
X183862914Y-183614342D01*
X184005771Y-183685771D01*
X184148628Y-183685771D01*
X184648628Y-183542914D02*
X184720057Y-183614342D01*
X184648628Y-183685771D01*
X184577200Y-183614342D01*
X184648628Y-183542914D01*
X184648628Y-183685771D01*
X184648628Y-182757200D02*
X184720057Y-182828628D01*
X184648628Y-182900057D01*
X184577200Y-182828628D01*
X184648628Y-182757200D01*
X184648628Y-182900057D01*
D10*
D12*
D10*
D11*
D10*
D11*
D10*
D11*
D10*
D11*
D10*
D11*
X197002200Y-191507200D02*
X197002200Y-194507200D01*
D10*
D11*
X261002200Y-191507200D02*
X261002200Y-198007200D01*
X61936380Y-107822857D02*
X62745904Y-107822857D01*
X62841142Y-107775238D01*
X62888761Y-107727619D01*
X62936380Y-107632380D01*
X62936380Y-107441904D01*
X62888761Y-107346666D01*
X62841142Y-107299047D01*
X62745904Y-107251428D01*
X61936380Y-107251428D01*
X62936380Y-106775238D02*
X61936380Y-106775238D01*
X62555428Y-106299047D02*
X62555428Y-105537142D01*
X62936380Y-105918095D02*
X62174476Y-105918095D01*
X62841142Y-112998095D02*
X62888761Y-113045714D01*
X62936380Y-113188571D01*
X62936380Y-113283809D01*
X62888761Y-113426666D01*
X62793523Y-113521904D01*
X62698285Y-113569523D01*
X62507809Y-113617142D01*
X62364952Y-113617142D01*
X62174476Y-113569523D01*
X62079238Y-113521904D01*
X61984000Y-113426666D01*
X61936380Y-113283809D01*
X61936380Y-113188571D01*
X61984000Y-113045714D01*
X62031619Y-112998095D01*
X62936380Y-112569523D02*
X61936380Y-112569523D01*
X62412571Y-112569523D02*
X62412571Y-111998095D01*
X62936380Y-111998095D02*
X61936380Y-111998095D01*
X62936380Y-111521904D02*
X61936380Y-111521904D01*
X62936380Y-110950476D01*
X61936380Y-110950476D01*
X61984000Y-109950476D02*
X61936380Y-110045714D01*
X61936380Y-110188571D01*
X61984000Y-110331428D01*
X62079238Y-110426666D01*
X62174476Y-110474285D01*
X62364952Y-110521904D01*
X62507809Y-110521904D01*
X62698285Y-110474285D01*
X62793523Y-110426666D01*
X62888761Y-110331428D01*
X62936380Y-110188571D01*
X62936380Y-110093333D01*
X62888761Y-109950476D01*
X62841142Y-109902857D01*
X62507809Y-109902857D01*
X62507809Y-110093333D01*
X62412571Y-117149523D02*
X62460190Y-117006666D01*
X62507809Y-116959047D01*
X62603047Y-116911428D01*
X62745904Y-116911428D01*
X62841142Y-116959047D01*
X62888761Y-117006666D01*
X62936380Y-117101904D01*
X62936380Y-117482857D01*
X61936380Y-117482857D01*
X61936380Y-117149523D01*
X61984000Y-117054285D01*
X62031619Y-117006666D01*
X62126857Y-116959047D01*
X62222095Y-116959047D01*
X62317333Y-117006666D01*
X62364952Y-117054285D01*
X62412571Y-117149523D01*
X62412571Y-117482857D01*
X61936380Y-116625714D02*
X61936380Y-116054285D01*
X62936380Y-116340000D02*
X61936380Y-116340000D01*
D14*
X62992000Y-119380000D02*
X61722000Y-119380000D01*
D11*
X119134000Y-101687142D02*
X119086380Y-101782380D01*
X119086380Y-101925238D01*
X119134000Y-102068095D01*
X119229238Y-102163333D01*
X119324476Y-102210952D01*
X119514952Y-102258571D01*
X119657809Y-102258571D01*
X119848285Y-102210952D01*
X119943523Y-102163333D01*
X120038761Y-102068095D01*
X120086380Y-101925238D01*
X120086380Y-101830000D01*
X120038761Y-101687142D01*
X119991142Y-101639523D01*
X119657809Y-101639523D01*
X119657809Y-101830000D01*
X120086380Y-101210952D02*
X119419714Y-101210952D01*
X119610190Y-101210952D02*
X119514952Y-101163333D01*
X119467333Y-101115714D01*
X119419714Y-101020476D01*
X119419714Y-100925238D01*
X120038761Y-100210952D02*
X120086380Y-100306190D01*
X120086380Y-100496666D01*
X120038761Y-100591904D01*
X119943523Y-100639523D01*
X119562571Y-100639523D01*
X119467333Y-100591904D01*
X119419714Y-100496666D01*
X119419714Y-100306190D01*
X119467333Y-100210952D01*
X119562571Y-100163333D01*
X119657809Y-100163333D01*
X119753047Y-100639523D01*
X120038761Y-99353809D02*
X120086380Y-99449047D01*
X120086380Y-99639523D01*
X120038761Y-99734761D01*
X119943523Y-99782380D01*
X119562571Y-99782380D01*
X119467333Y-99734761D01*
X119419714Y-99639523D01*
X119419714Y-99449047D01*
X119467333Y-99353809D01*
X119562571Y-99306190D01*
X119657809Y-99306190D01*
X119753047Y-99782380D01*
X119419714Y-98877619D02*
X120086380Y-98877619D01*
X119514952Y-98877619D02*
X119467333Y-98830000D01*
X119419714Y-98734761D01*
X119419714Y-98591904D01*
X119467333Y-98496666D01*
X119562571Y-98449047D01*
X120086380Y-98449047D01*
X120086380Y-115689047D02*
X119610190Y-116022380D01*
X120086380Y-116260476D02*
X119086380Y-116260476D01*
X119086380Y-115879523D01*
X119134000Y-115784285D01*
X119181619Y-115736666D01*
X119276857Y-115689047D01*
X119419714Y-115689047D01*
X119514952Y-115736666D01*
X119562571Y-115784285D01*
X119610190Y-115879523D01*
X119610190Y-116260476D01*
X120038761Y-114879523D02*
X120086380Y-114974761D01*
X120086380Y-115165238D01*
X120038761Y-115260476D01*
X119943523Y-115308095D01*
X119562571Y-115308095D01*
X119467333Y-115260476D01*
X119419714Y-115165238D01*
X119419714Y-114974761D01*
X119467333Y-114879523D01*
X119562571Y-114831904D01*
X119657809Y-114831904D01*
X119753047Y-115308095D01*
X119562571Y-131397333D02*
X119610190Y-131254476D01*
X119657809Y-131206857D01*
X119753047Y-131159238D01*
X119895904Y-131159238D01*
X119991142Y-131206857D01*
X120038761Y-131254476D01*
X120086380Y-131349714D01*
X120086380Y-131730666D01*
X119086380Y-131730666D01*
X119086380Y-131397333D01*
X119134000Y-131302095D01*
X119181619Y-131254476D01*
X119276857Y-131206857D01*
X119372095Y-131206857D01*
X119467333Y-131254476D01*
X119514952Y-131302095D01*
X119562571Y-131397333D01*
X119562571Y-131730666D01*
X120086380Y-130730666D02*
X119086380Y-130730666D01*
X119705428Y-130635428D02*
X120086380Y-130349714D01*
X119419714Y-130349714D02*
X119800666Y-130730666D01*
X81359428Y-140216000D02*
X81264190Y-140168380D01*
X81121333Y-140168380D01*
X80978476Y-140216000D01*
X80883238Y-140311238D01*
X80835619Y-140406476D01*
X80788000Y-140596952D01*
X80788000Y-140739809D01*
X80835619Y-140930285D01*
X80883238Y-141025523D01*
X80978476Y-141120761D01*
X81121333Y-141168380D01*
X81216571Y-141168380D01*
X81359428Y-141120761D01*
X81407047Y-141073142D01*
X81407047Y-140739809D01*
X81216571Y-140739809D01*
X81835619Y-141168380D02*
X81835619Y-140501714D01*
X81835619Y-140692190D02*
X81883238Y-140596952D01*
X81930857Y-140549333D01*
X82026095Y-140501714D01*
X82121333Y-140501714D01*
X82359428Y-140501714D02*
X82597523Y-141168380D01*
X82835619Y-140501714D02*
X82597523Y-141168380D01*
X82502285Y-141406476D01*
X82454666Y-141454095D01*
X82359428Y-141501714D01*
D14*
X89480000Y-141224000D02*
X89480000Y-139825000D01*
D11*
X85534666Y-141073142D02*
X85487047Y-141120761D01*
X85344190Y-141168380D01*
X85248952Y-141168380D01*
X85106095Y-141120761D01*
X85010857Y-141025523D01*
X84963238Y-140930285D01*
X84915619Y-140739809D01*
X84915619Y-140596952D01*
X84963238Y-140406476D01*
X85010857Y-140311238D01*
X85106095Y-140216000D01*
X85248952Y-140168380D01*
X85344190Y-140168380D01*
X85487047Y-140216000D01*
X85534666Y-140263619D01*
X85963238Y-141168380D02*
X85963238Y-140168380D01*
X85963238Y-140644571D02*
X86534666Y-140644571D01*
X86534666Y-141168380D02*
X86534666Y-140168380D01*
X86772761Y-141263619D02*
X87534666Y-141263619D01*
X87772761Y-141168380D02*
X87772761Y-140168380D01*
X88582285Y-140644571D02*
X88725142Y-140692190D01*
X88772761Y-140739809D01*
X88820380Y-140835047D01*
X88820380Y-140977904D01*
X88772761Y-141073142D01*
X88725142Y-141120761D01*
X88629904Y-141168380D01*
X88248952Y-141168380D01*
X88248952Y-140168380D01*
X88582285Y-140168380D01*
X88677523Y-140216000D01*
X88725142Y-140263619D01*
X88772761Y-140358857D01*
X88772761Y-140454095D01*
X88725142Y-140549333D01*
X88677523Y-140596952D01*
X88582285Y-140644571D01*
X88248952Y-140644571D01*
X75581047Y-140644571D02*
X75723904Y-140692190D01*
X75771523Y-140739809D01*
X75819142Y-140835047D01*
X75819142Y-140977904D01*
X75771523Y-141073142D01*
X75723904Y-141120761D01*
X75628666Y-141168380D01*
X75247714Y-141168380D01*
X75247714Y-140168380D01*
X75581047Y-140168380D01*
X75676285Y-140216000D01*
X75723904Y-140263619D01*
X75771523Y-140358857D01*
X75771523Y-140454095D01*
X75723904Y-140549333D01*
X75676285Y-140596952D01*
X75581047Y-140644571D01*
X75247714Y-140644571D01*
X76104857Y-140168380D02*
X76676285Y-140168380D01*
X76390571Y-141168380D02*
X76390571Y-140168380D01*
X76771523Y-141263619D02*
X77533428Y-141263619D01*
X77771523Y-141168380D02*
X77771523Y-140168380D01*
X78247714Y-141168380D02*
X78247714Y-140168380D01*
X78247714Y-140549333D02*
X78342952Y-140501714D01*
X78533428Y-140501714D01*
X78628666Y-140549333D01*
X78676285Y-140596952D01*
X78723904Y-140692190D01*
X78723904Y-140977904D01*
X78676285Y-141073142D01*
X78628666Y-141120761D01*
X78533428Y-141168380D01*
X78342952Y-141168380D01*
X78247714Y-141120761D01*
X96567714Y-140168380D02*
X96805809Y-141168380D01*
X96996285Y-140454095D01*
X97186761Y-141168380D01*
X97424857Y-140168380D01*
X97662952Y-140501714D02*
X98043904Y-140501714D01*
X97805809Y-140168380D02*
X97805809Y-141025523D01*
X97853428Y-141120761D01*
X97948666Y-141168380D01*
X98043904Y-141168380D01*
X100647714Y-141073142D02*
X100600095Y-141120761D01*
X100457238Y-141168380D01*
X100362000Y-141168380D01*
X100219142Y-141120761D01*
X100123904Y-141025523D01*
X100076285Y-140930285D01*
X100028666Y-140739809D01*
X100028666Y-140596952D01*
X100076285Y-140406476D01*
X100123904Y-140311238D01*
X100219142Y-140216000D01*
X100362000Y-140168380D01*
X100457238Y-140168380D01*
X100600095Y-140216000D01*
X100647714Y-140263619D01*
X101076285Y-141168380D02*
X101076285Y-140168380D01*
X101076285Y-140644571D02*
X101647714Y-140644571D01*
X101647714Y-141168380D02*
X101647714Y-140168380D01*
X101885809Y-141263619D02*
X102647714Y-141263619D01*
X103457238Y-141168380D02*
X103123904Y-140692190D01*
X102885809Y-141168380D02*
X102885809Y-140168380D01*
X103266761Y-140168380D01*
X103362000Y-140216000D01*
X103409619Y-140263619D01*
X103457238Y-140358857D01*
X103457238Y-140501714D01*
X103409619Y-140596952D01*
X103362000Y-140644571D01*
X103266761Y-140692190D01*
X102885809Y-140692190D01*
X103885809Y-140787428D02*
X104647714Y-140787428D01*
X104266761Y-141168380D02*
X104266761Y-140406476D01*
X90138476Y-140644571D02*
X90281333Y-140692190D01*
X90328952Y-140739809D01*
X90376571Y-140835047D01*
X90376571Y-140977904D01*
X90328952Y-141073142D01*
X90281333Y-141120761D01*
X90186095Y-141168380D01*
X89805142Y-141168380D01*
X89805142Y-140168380D01*
X90138476Y-140168380D01*
X90233714Y-140216000D01*
X90281333Y-140263619D01*
X90328952Y-140358857D01*
X90328952Y-140454095D01*
X90281333Y-140549333D01*
X90233714Y-140596952D01*
X90138476Y-140644571D01*
X89805142Y-140644571D01*
X90662285Y-140168380D02*
X91233714Y-140168380D01*
X90948000Y-141168380D02*
X90948000Y-140168380D01*
X91328952Y-141263619D02*
X92090857Y-141263619D01*
X92900380Y-141168380D02*
X92567047Y-140692190D01*
X92328952Y-141168380D02*
X92328952Y-140168380D01*
X92709904Y-140168380D01*
X92805142Y-140216000D01*
X92852761Y-140263619D01*
X92900380Y-140358857D01*
X92900380Y-140501714D01*
X92852761Y-140596952D01*
X92805142Y-140644571D01*
X92709904Y-140692190D01*
X92328952Y-140692190D01*
X93328952Y-140787428D02*
X94090857Y-140787428D01*
X93709904Y-141168380D02*
X93709904Y-140406476D01*
X119705428Y-74151904D02*
X119705428Y-73390000D01*
X120086380Y-73770952D02*
X119324476Y-73770952D01*
X120086380Y-72390000D02*
X120086380Y-72961428D01*
X120086380Y-72675714D02*
X119086380Y-72675714D01*
X119229238Y-72770952D01*
X119324476Y-72866190D01*
X119372095Y-72961428D01*
X119181619Y-72009047D02*
X119134000Y-71961428D01*
X119086380Y-71866190D01*
X119086380Y-71628095D01*
X119134000Y-71532857D01*
X119181619Y-71485238D01*
X119276857Y-71437619D01*
X119372095Y-71437619D01*
X119514952Y-71485238D01*
X120086380Y-72056666D01*
X120086380Y-71437619D01*
X119086380Y-71151904D02*
X120086380Y-70818571D01*
X119086380Y-70485238D01*
X119134000Y-78231904D02*
X119086380Y-78327142D01*
X119086380Y-78470000D01*
X119134000Y-78612857D01*
X119229238Y-78708095D01*
X119324476Y-78755714D01*
X119514952Y-78803333D01*
X119657809Y-78803333D01*
X119848285Y-78755714D01*
X119943523Y-78708095D01*
X120038761Y-78612857D01*
X120086380Y-78470000D01*
X120086380Y-78374761D01*
X120038761Y-78231904D01*
X119991142Y-78184285D01*
X119657809Y-78184285D01*
X119657809Y-78374761D01*
X120086380Y-77755714D02*
X119086380Y-77755714D01*
X120086380Y-77184285D01*
X119086380Y-77184285D01*
X120086380Y-76708095D02*
X119086380Y-76708095D01*
X119086380Y-76470000D01*
X119134000Y-76327142D01*
X119229238Y-76231904D01*
X119324476Y-76184285D01*
X119514952Y-76136666D01*
X119657809Y-76136666D01*
X119848285Y-76184285D01*
X119943523Y-76231904D01*
X120038761Y-76327142D01*
X120086380Y-76470000D01*
X120086380Y-76708095D01*
D14*
X120396000Y-80010000D02*
X118618000Y-80010000D01*
D11*
X120086380Y-83954761D02*
X119086380Y-83954761D01*
X120086380Y-83478571D02*
X119086380Y-83478571D01*
X120086380Y-82907142D01*
X119086380Y-82907142D01*
X120181619Y-82669047D02*
X120181619Y-81907142D01*
X119562571Y-81335714D02*
X119610190Y-81192857D01*
X119657809Y-81145238D01*
X119753047Y-81097619D01*
X119895904Y-81097619D01*
X119991142Y-81145238D01*
X120038761Y-81192857D01*
X120086380Y-81288095D01*
X120086380Y-81669047D01*
X119086380Y-81669047D01*
X119086380Y-81335714D01*
X119134000Y-81240476D01*
X119181619Y-81192857D01*
X119276857Y-81145238D01*
X119372095Y-81145238D01*
X119467333Y-81192857D01*
X119514952Y-81240476D01*
X119562571Y-81335714D01*
X119562571Y-81669047D01*
X120086380Y-88963333D02*
X119086380Y-88963333D01*
X120086380Y-88487142D02*
X119086380Y-88487142D01*
X120086380Y-87915714D01*
X119086380Y-87915714D01*
X120181619Y-87677619D02*
X120181619Y-86915714D01*
X119800666Y-86725238D02*
X119800666Y-86249047D01*
X120086380Y-86820476D02*
X119086380Y-86487142D01*
X120086380Y-86153809D01*
D14*
X120396000Y-91440000D02*
X118110000Y-91440000D01*
X120396000Y-123250000D02*
X118325000Y-123250000D01*
X120396000Y-108010000D02*
X118325000Y-108010000D01*
D11*
X119562571Y-96964285D02*
X119610190Y-96821428D01*
X119657809Y-96773809D01*
X119753047Y-96726190D01*
X119895904Y-96726190D01*
X119991142Y-96773809D01*
X120038761Y-96821428D01*
X120086380Y-96916666D01*
X120086380Y-97297619D01*
X119086380Y-97297619D01*
X119086380Y-96964285D01*
X119134000Y-96869047D01*
X119181619Y-96821428D01*
X119276857Y-96773809D01*
X119372095Y-96773809D01*
X119467333Y-96821428D01*
X119514952Y-96869047D01*
X119562571Y-96964285D01*
X119562571Y-97297619D01*
X119086380Y-96440476D02*
X119086380Y-95869047D01*
X120086380Y-96154761D02*
X119086380Y-96154761D01*
X120181619Y-95773809D02*
X120181619Y-95011904D01*
X120086380Y-94297619D02*
X120086380Y-94773809D01*
X119086380Y-94773809D01*
X119705428Y-93964285D02*
X119705428Y-93202380D01*
X119991142Y-107029047D02*
X120038761Y-107076666D01*
X120086380Y-107219523D01*
X120086380Y-107314761D01*
X120038761Y-107457619D01*
X119943523Y-107552857D01*
X119848285Y-107600476D01*
X119657809Y-107648095D01*
X119514952Y-107648095D01*
X119324476Y-107600476D01*
X119229238Y-107552857D01*
X119134000Y-107457619D01*
X119086380Y-107314761D01*
X119086380Y-107219523D01*
X119134000Y-107076666D01*
X119181619Y-107029047D01*
X120086380Y-106600476D02*
X119086380Y-106600476D01*
X119562571Y-106600476D02*
X119562571Y-106029047D01*
X120086380Y-106029047D02*
X119086380Y-106029047D01*
X120181619Y-105790952D02*
X120181619Y-105029047D01*
X120086380Y-104314761D02*
X120086380Y-104790952D01*
X119086380Y-104790952D01*
X119705428Y-103981428D02*
X119705428Y-103219523D01*
X119991142Y-112109047D02*
X120038761Y-112156666D01*
X120086380Y-112299523D01*
X120086380Y-112394761D01*
X120038761Y-112537619D01*
X119943523Y-112632857D01*
X119848285Y-112680476D01*
X119657809Y-112728095D01*
X119514952Y-112728095D01*
X119324476Y-112680476D01*
X119229238Y-112632857D01*
X119134000Y-112537619D01*
X119086380Y-112394761D01*
X119086380Y-112299523D01*
X119134000Y-112156666D01*
X119181619Y-112109047D01*
X120086380Y-111680476D02*
X119086380Y-111680476D01*
X119562571Y-111680476D02*
X119562571Y-111109047D01*
X120086380Y-111109047D02*
X119086380Y-111109047D01*
X120181619Y-110870952D02*
X120181619Y-110109047D01*
X120086380Y-109394761D02*
X120086380Y-109870952D01*
X119086380Y-109870952D01*
X119705428Y-109061428D02*
X119705428Y-108299523D01*
X120086380Y-108680476D02*
X119324476Y-108680476D01*
X119562571Y-122364285D02*
X119610190Y-122221428D01*
X119657809Y-122173809D01*
X119753047Y-122126190D01*
X119895904Y-122126190D01*
X119991142Y-122173809D01*
X120038761Y-122221428D01*
X120086380Y-122316666D01*
X120086380Y-122697619D01*
X119086380Y-122697619D01*
X119086380Y-122364285D01*
X119134000Y-122269047D01*
X119181619Y-122221428D01*
X119276857Y-122173809D01*
X119372095Y-122173809D01*
X119467333Y-122221428D01*
X119514952Y-122269047D01*
X119562571Y-122364285D01*
X119562571Y-122697619D01*
X119086380Y-121840476D02*
X119086380Y-121269047D01*
X120086380Y-121554761D02*
X119086380Y-121554761D01*
X120181619Y-121173809D02*
X120181619Y-120411904D01*
X120086380Y-119697619D02*
X120086380Y-120173809D01*
X119086380Y-120173809D01*
X119705428Y-119364285D02*
X119705428Y-118602380D01*
X120086380Y-118983333D02*
X119324476Y-118983333D01*
X119562571Y-127793523D02*
X119610190Y-127650666D01*
X119657809Y-127603047D01*
X119753047Y-127555428D01*
X119895904Y-127555428D01*
X119991142Y-127603047D01*
X120038761Y-127650666D01*
X120086380Y-127745904D01*
X120086380Y-128126857D01*
X119086380Y-128126857D01*
X119086380Y-127793523D01*
X119134000Y-127698285D01*
X119181619Y-127650666D01*
X119276857Y-127603047D01*
X119372095Y-127603047D01*
X119467333Y-127650666D01*
X119514952Y-127698285D01*
X119562571Y-127793523D01*
X119562571Y-128126857D01*
X119086380Y-127269714D02*
X119086380Y-126698285D01*
X120086380Y-126984000D02*
X119086380Y-126984000D01*
X120181619Y-126603047D02*
X120181619Y-125841142D01*
X120086380Y-125031619D02*
X119610190Y-125364952D01*
X120086380Y-125603047D02*
X119086380Y-125603047D01*
X119086380Y-125222095D01*
X119134000Y-125126857D01*
X119181619Y-125079238D01*
X119276857Y-125031619D01*
X119419714Y-125031619D01*
X119514952Y-125079238D01*
X119562571Y-125126857D01*
X119610190Y-125222095D01*
X119610190Y-125603047D01*
X119705428Y-124603047D02*
X119705428Y-123841142D01*
X62650666Y-139571809D02*
X62650666Y-139095619D01*
X62936380Y-139667047D02*
X61936380Y-139333714D01*
X62936380Y-139000380D01*
X61936380Y-138667047D02*
X62745904Y-138667047D01*
X62841142Y-138619428D01*
X62888761Y-138571809D01*
X62936380Y-138476571D01*
X62936380Y-138286095D01*
X62888761Y-138190857D01*
X62841142Y-138143238D01*
X62745904Y-138095619D01*
X61936380Y-138095619D01*
X62936380Y-137619428D02*
X61936380Y-137619428D01*
X61936380Y-137381333D01*
X61984000Y-137238476D01*
X62079238Y-137143238D01*
X62174476Y-137095619D01*
X62364952Y-137048000D01*
X62507809Y-137048000D01*
X62698285Y-137095619D01*
X62793523Y-137143238D01*
X62888761Y-137238476D01*
X62936380Y-137381333D01*
X62936380Y-137619428D01*
X62936380Y-136619428D02*
X61936380Y-136619428D01*
X61936380Y-135952761D02*
X61936380Y-135762285D01*
X61984000Y-135667047D01*
X62079238Y-135571809D01*
X62269714Y-135524190D01*
X62603047Y-135524190D01*
X62793523Y-135571809D01*
X62888761Y-135667047D01*
X62936380Y-135762285D01*
X62936380Y-135952761D01*
X62888761Y-136048000D01*
X62793523Y-136143238D01*
X62603047Y-136190857D01*
X62269714Y-136190857D01*
X62079238Y-136143238D01*
X61984000Y-136048000D01*
X61936380Y-135952761D01*
X62555428Y-135095619D02*
X62555428Y-134333714D01*
X61984000Y-133333714D02*
X61936380Y-133428952D01*
X61936380Y-133571809D01*
X61984000Y-133714666D01*
X62079238Y-133809904D01*
X62174476Y-133857523D01*
X62364952Y-133905142D01*
X62507809Y-133905142D01*
X62698285Y-133857523D01*
X62793523Y-133809904D01*
X62888761Y-133714666D01*
X62936380Y-133571809D01*
X62936380Y-133476571D01*
X62888761Y-133333714D01*
X62841142Y-133286095D01*
X62507809Y-133286095D01*
X62507809Y-133476571D01*
X62936380Y-132857523D02*
X61936380Y-132857523D01*
X62936380Y-132286095D01*
X61936380Y-132286095D01*
X62936380Y-131809904D02*
X61936380Y-131809904D01*
X61936380Y-131571809D01*
X61984000Y-131428952D01*
X62079238Y-131333714D01*
X62174476Y-131286095D01*
X62364952Y-131238476D01*
X62507809Y-131238476D01*
X62698285Y-131286095D01*
X62793523Y-131333714D01*
X62888761Y-131428952D01*
X62936380Y-131571809D01*
X62936380Y-131809904D01*
X62650666Y-128571809D02*
X62650666Y-128095619D01*
X62936380Y-128667047D02*
X61936380Y-128333714D01*
X62936380Y-128000380D01*
X61936380Y-127667047D02*
X62745904Y-127667047D01*
X62841142Y-127619428D01*
X62888761Y-127571809D01*
X62936380Y-127476571D01*
X62936380Y-127286095D01*
X62888761Y-127190857D01*
X62841142Y-127143238D01*
X62745904Y-127095619D01*
X61936380Y-127095619D01*
X62936380Y-126619428D02*
X61936380Y-126619428D01*
X61936380Y-126381333D01*
X61984000Y-126238476D01*
X62079238Y-126143238D01*
X62174476Y-126095619D01*
X62364952Y-126048000D01*
X62507809Y-126048000D01*
X62698285Y-126095619D01*
X62793523Y-126143238D01*
X62888761Y-126238476D01*
X62936380Y-126381333D01*
X62936380Y-126619428D01*
X62936380Y-125619428D02*
X61936380Y-125619428D01*
X61936380Y-124952761D02*
X61936380Y-124762285D01*
X61984000Y-124667047D01*
X62079238Y-124571809D01*
X62269714Y-124524190D01*
X62603047Y-124524190D01*
X62793523Y-124571809D01*
X62888761Y-124667047D01*
X62936380Y-124762285D01*
X62936380Y-124952761D01*
X62888761Y-125048000D01*
X62793523Y-125143238D01*
X62603047Y-125190857D01*
X62269714Y-125190857D01*
X62079238Y-125143238D01*
X61984000Y-125048000D01*
X61936380Y-124952761D01*
X62555428Y-124095619D02*
X62555428Y-123333714D01*
X62936380Y-123714666D02*
X62174476Y-123714666D01*
X62936380Y-122333714D02*
X62936380Y-122905142D01*
X62936380Y-122619428D02*
X61936380Y-122619428D01*
X62079238Y-122714666D01*
X62174476Y-122809904D01*
X62222095Y-122905142D01*
X62031619Y-121952761D02*
X61984000Y-121905142D01*
X61936380Y-121809904D01*
X61936380Y-121571809D01*
X61984000Y-121476571D01*
X62031619Y-121428952D01*
X62126857Y-121381333D01*
X62222095Y-121381333D01*
X62364952Y-121428952D01*
X62936380Y-122000380D01*
X62936380Y-121381333D01*
X61936380Y-121095619D02*
X62936380Y-120762285D01*
X61936380Y-120428952D01*
X119991142Y-137096285D02*
X120038761Y-137143904D01*
X120086380Y-137286761D01*
X120086380Y-137382000D01*
X120038761Y-137524857D01*
X119943523Y-137620095D01*
X119848285Y-137667714D01*
X119657809Y-137715333D01*
X119514952Y-137715333D01*
X119324476Y-137667714D01*
X119229238Y-137620095D01*
X119134000Y-137524857D01*
X119086380Y-137382000D01*
X119086380Y-137286761D01*
X119134000Y-137143904D01*
X119181619Y-137096285D01*
X120086380Y-136667714D02*
X119086380Y-136667714D01*
X119562571Y-136667714D02*
X119562571Y-136096285D01*
X120086380Y-136096285D02*
X119086380Y-136096285D01*
X120181619Y-135858190D02*
X120181619Y-135096285D01*
X120086380Y-134286761D02*
X119610190Y-134620095D01*
X120086380Y-134858190D02*
X119086380Y-134858190D01*
X119086380Y-134477238D01*
X119134000Y-134382000D01*
X119181619Y-134334380D01*
X119276857Y-134286761D01*
X119419714Y-134286761D01*
X119514952Y-134334380D01*
X119562571Y-134382000D01*
X119610190Y-134477238D01*
X119610190Y-134858190D01*
X119705428Y-133858190D02*
X119705428Y-133096285D01*
D15*
X61595000Y-141605000D02*
X61595000Y-63500000D01*
X61595000Y-63500000D02*
X120650000Y-63500000D01*
X112490000Y-66040000D02*
G75*
G03*
X112490000Y-66040000I-2000000J0D01*
G01*
X107442000Y-126746000D02*
G75*
G03*
X107442000Y-126746000I-2000000J0D01*
G01*
X68580000Y-67945000D02*
G75*
G03*
X68580000Y-67945000I-2000000J0D01*
G01*
X120650000Y-63500000D02*
X120650000Y-141605000D01*
X120650000Y-141605000D02*
X61595000Y-141605000D01*
D11*
%TO.C,Q6*%
X73564761Y-98337619D02*
X73469523Y-98290000D01*
X73374285Y-98194761D01*
X73231428Y-98051904D01*
X73136190Y-98004285D01*
X73040952Y-98004285D01*
X73088571Y-98242380D02*
X72993333Y-98194761D01*
X72898095Y-98099523D01*
X72850476Y-97909047D01*
X72850476Y-97575714D01*
X72898095Y-97385238D01*
X72993333Y-97290000D01*
X73088571Y-97242380D01*
X73279047Y-97242380D01*
X73374285Y-97290000D01*
X73469523Y-97385238D01*
X73517142Y-97575714D01*
X73517142Y-97909047D01*
X73469523Y-98099523D01*
X73374285Y-98194761D01*
X73279047Y-98242380D01*
X73088571Y-98242380D01*
X74374285Y-97242380D02*
X74183809Y-97242380D01*
X74088571Y-97290000D01*
X74040952Y-97337619D01*
X73945714Y-97480476D01*
X73898095Y-97670952D01*
X73898095Y-98051904D01*
X73945714Y-98147142D01*
X73993333Y-98194761D01*
X74088571Y-98242380D01*
X74279047Y-98242380D01*
X74374285Y-98194761D01*
X74421904Y-98147142D01*
X74469523Y-98051904D01*
X74469523Y-97813809D01*
X74421904Y-97718571D01*
X74374285Y-97670952D01*
X74279047Y-97623333D01*
X74088571Y-97623333D01*
X73993333Y-97670952D01*
X73945714Y-97718571D01*
X73898095Y-97813809D01*
%TO.C,Q5*%
X83089761Y-91602619D02*
X82994523Y-91555000D01*
X82899285Y-91459761D01*
X82756428Y-91316904D01*
X82661190Y-91269285D01*
X82565952Y-91269285D01*
X82613571Y-91507380D02*
X82518333Y-91459761D01*
X82423095Y-91364523D01*
X82375476Y-91174047D01*
X82375476Y-90840714D01*
X82423095Y-90650238D01*
X82518333Y-90555000D01*
X82613571Y-90507380D01*
X82804047Y-90507380D01*
X82899285Y-90555000D01*
X82994523Y-90650238D01*
X83042142Y-90840714D01*
X83042142Y-91174047D01*
X82994523Y-91364523D01*
X82899285Y-91459761D01*
X82804047Y-91507380D01*
X82613571Y-91507380D01*
X83946904Y-90507380D02*
X83470714Y-90507380D01*
X83423095Y-90983571D01*
X83470714Y-90935952D01*
X83565952Y-90888333D01*
X83804047Y-90888333D01*
X83899285Y-90935952D01*
X83946904Y-90983571D01*
X83994523Y-91078809D01*
X83994523Y-91316904D01*
X83946904Y-91412142D01*
X83899285Y-91459761D01*
X83804047Y-91507380D01*
X83565952Y-91507380D01*
X83470714Y-91459761D01*
X83423095Y-91412142D01*
%TO.C,Q4*%
X77374761Y-91602619D02*
X77279523Y-91555000D01*
X77184285Y-91459761D01*
X77041428Y-91316904D01*
X76946190Y-91269285D01*
X76850952Y-91269285D01*
X76898571Y-91507380D02*
X76803333Y-91459761D01*
X76708095Y-91364523D01*
X76660476Y-91174047D01*
X76660476Y-90840714D01*
X76708095Y-90650238D01*
X76803333Y-90555000D01*
X76898571Y-90507380D01*
X77089047Y-90507380D01*
X77184285Y-90555000D01*
X77279523Y-90650238D01*
X77327142Y-90840714D01*
X77327142Y-91174047D01*
X77279523Y-91364523D01*
X77184285Y-91459761D01*
X77089047Y-91507380D01*
X76898571Y-91507380D01*
X78184285Y-90840714D02*
X78184285Y-91507380D01*
X77946190Y-90459761D02*
X77708095Y-91174047D01*
X78327142Y-91174047D01*
%TO.C,Q3*%
X71659761Y-91602619D02*
X71564523Y-91555000D01*
X71469285Y-91459761D01*
X71326428Y-91316904D01*
X71231190Y-91269285D01*
X71135952Y-91269285D01*
X71183571Y-91507380D02*
X71088333Y-91459761D01*
X70993095Y-91364523D01*
X70945476Y-91174047D01*
X70945476Y-90840714D01*
X70993095Y-90650238D01*
X71088333Y-90555000D01*
X71183571Y-90507380D01*
X71374047Y-90507380D01*
X71469285Y-90555000D01*
X71564523Y-90650238D01*
X71612142Y-90840714D01*
X71612142Y-91174047D01*
X71564523Y-91364523D01*
X71469285Y-91459761D01*
X71374047Y-91507380D01*
X71183571Y-91507380D01*
X71945476Y-90507380D02*
X72564523Y-90507380D01*
X72231190Y-90888333D01*
X72374047Y-90888333D01*
X72469285Y-90935952D01*
X72516904Y-90983571D01*
X72564523Y-91078809D01*
X72564523Y-91316904D01*
X72516904Y-91412142D01*
X72469285Y-91459761D01*
X72374047Y-91507380D01*
X72088333Y-91507380D01*
X71993095Y-91459761D01*
X71945476Y-91412142D01*
%TO.C,Q1*%
X105060761Y-67095619D02*
X104965523Y-67048000D01*
X104870285Y-66952761D01*
X104727428Y-66809904D01*
X104632190Y-66762285D01*
X104536952Y-66762285D01*
X104584571Y-67000380D02*
X104489333Y-66952761D01*
X104394095Y-66857523D01*
X104346476Y-66667047D01*
X104346476Y-66333714D01*
X104394095Y-66143238D01*
X104489333Y-66048000D01*
X104584571Y-66000380D01*
X104775047Y-66000380D01*
X104870285Y-66048000D01*
X104965523Y-66143238D01*
X105013142Y-66333714D01*
X105013142Y-66667047D01*
X104965523Y-66857523D01*
X104870285Y-66952761D01*
X104775047Y-67000380D01*
X104584571Y-67000380D01*
X105965523Y-67000380D02*
X105394095Y-67000380D01*
X105679809Y-67000380D02*
X105679809Y-66000380D01*
X105584571Y-66143238D01*
X105489333Y-66238476D01*
X105394095Y-66286095D01*
%TO.C,C1*%
X63984142Y-98170666D02*
X64031761Y-98218285D01*
X64079380Y-98361142D01*
X64079380Y-98456380D01*
X64031761Y-98599238D01*
X63936523Y-98694476D01*
X63841285Y-98742095D01*
X63650809Y-98789714D01*
X63507952Y-98789714D01*
X63317476Y-98742095D01*
X63222238Y-98694476D01*
X63127000Y-98599238D01*
X63079380Y-98456380D01*
X63079380Y-98361142D01*
X63127000Y-98218285D01*
X63174619Y-98170666D01*
X64079380Y-97218285D02*
X64079380Y-97789714D01*
X64079380Y-97504000D02*
X63079380Y-97504000D01*
X63222238Y-97599238D01*
X63317476Y-97694476D01*
X63365095Y-97789714D01*
%TO.C,C2*%
X64111142Y-76346666D02*
X64158761Y-76394285D01*
X64206380Y-76537142D01*
X64206380Y-76632380D01*
X64158761Y-76775238D01*
X64063523Y-76870476D01*
X63968285Y-76918095D01*
X63777809Y-76965714D01*
X63634952Y-76965714D01*
X63444476Y-76918095D01*
X63349238Y-76870476D01*
X63254000Y-76775238D01*
X63206380Y-76632380D01*
X63206380Y-76537142D01*
X63254000Y-76394285D01*
X63301619Y-76346666D01*
X63301619Y-75965714D02*
X63254000Y-75918095D01*
X63206380Y-75822857D01*
X63206380Y-75584761D01*
X63254000Y-75489523D01*
X63301619Y-75441904D01*
X63396857Y-75394285D01*
X63492095Y-75394285D01*
X63634952Y-75441904D01*
X64206380Y-76013333D01*
X64206380Y-75394285D01*
%TO.C,R1*%
X103576380Y-88431666D02*
X103100190Y-88765000D01*
X103576380Y-89003095D02*
X102576380Y-89003095D01*
X102576380Y-88622142D01*
X102624000Y-88526904D01*
X102671619Y-88479285D01*
X102766857Y-88431666D01*
X102909714Y-88431666D01*
X103004952Y-88479285D01*
X103052571Y-88526904D01*
X103100190Y-88622142D01*
X103100190Y-89003095D01*
X103576380Y-87479285D02*
X103576380Y-88050714D01*
X103576380Y-87765000D02*
X102576380Y-87765000D01*
X102719238Y-87860238D01*
X102814476Y-87955476D01*
X102862095Y-88050714D01*
%TO.C,R2*%
X103576380Y-78144666D02*
X103100190Y-78478000D01*
X103576380Y-78716095D02*
X102576380Y-78716095D01*
X102576380Y-78335142D01*
X102624000Y-78239904D01*
X102671619Y-78192285D01*
X102766857Y-78144666D01*
X102909714Y-78144666D01*
X103004952Y-78192285D01*
X103052571Y-78239904D01*
X103100190Y-78335142D01*
X103100190Y-78716095D01*
X102671619Y-77763714D02*
X102624000Y-77716095D01*
X102576380Y-77620857D01*
X102576380Y-77382761D01*
X102624000Y-77287523D01*
X102671619Y-77239904D01*
X102766857Y-77192285D01*
X102862095Y-77192285D01*
X103004952Y-77239904D01*
X103576380Y-77811333D01*
X103576380Y-77192285D01*
%TO.C,U1*%
X68326095Y-64222380D02*
X68326095Y-65031904D01*
X68373714Y-65127142D01*
X68421333Y-65174761D01*
X68516571Y-65222380D01*
X68707047Y-65222380D01*
X68802285Y-65174761D01*
X68849904Y-65127142D01*
X68897523Y-65031904D01*
X68897523Y-64222380D01*
X69897523Y-65222380D02*
X69326095Y-65222380D01*
X69611809Y-65222380D02*
X69611809Y-64222380D01*
X69516571Y-64365238D01*
X69421333Y-64460476D01*
X69326095Y-64508095D01*
%TO.C,U2*%
X86320380Y-70865904D02*
X87129904Y-70865904D01*
X87225142Y-70818285D01*
X87272761Y-70770666D01*
X87320380Y-70675428D01*
X87320380Y-70484952D01*
X87272761Y-70389714D01*
X87225142Y-70342095D01*
X87129904Y-70294476D01*
X86320380Y-70294476D01*
X86415619Y-69865904D02*
X86368000Y-69818285D01*
X86320380Y-69723047D01*
X86320380Y-69484952D01*
X86368000Y-69389714D01*
X86415619Y-69342095D01*
X86510857Y-69294476D01*
X86606095Y-69294476D01*
X86748952Y-69342095D01*
X87320380Y-69913523D01*
X87320380Y-69294476D01*
%TO.C,Y1*%
X62460190Y-86836190D02*
X62936380Y-86836190D01*
X61936380Y-87169523D02*
X62460190Y-86836190D01*
X61936380Y-86502857D01*
X62936380Y-85645714D02*
X62936380Y-86217142D01*
X62936380Y-85931428D02*
X61936380Y-85931428D01*
X62079238Y-86026666D01*
X62174476Y-86121904D01*
X62222095Y-86217142D01*
%TO.C,C4*%
X85193142Y-80176666D02*
X85240761Y-80224285D01*
X85288380Y-80367142D01*
X85288380Y-80462380D01*
X85240761Y-80605238D01*
X85145523Y-80700476D01*
X85050285Y-80748095D01*
X84859809Y-80795714D01*
X84716952Y-80795714D01*
X84526476Y-80748095D01*
X84431238Y-80700476D01*
X84336000Y-80605238D01*
X84288380Y-80462380D01*
X84288380Y-80367142D01*
X84336000Y-80224285D01*
X84383619Y-80176666D01*
X84621714Y-79319523D02*
X85288380Y-79319523D01*
X84240761Y-79557619D02*
X84955047Y-79795714D01*
X84955047Y-79176666D01*
%TO.C,C5*%
X82145142Y-80176666D02*
X82192761Y-80224285D01*
X82240380Y-80367142D01*
X82240380Y-80462380D01*
X82192761Y-80605238D01*
X82097523Y-80700476D01*
X82002285Y-80748095D01*
X81811809Y-80795714D01*
X81668952Y-80795714D01*
X81478476Y-80748095D01*
X81383238Y-80700476D01*
X81288000Y-80605238D01*
X81240380Y-80462380D01*
X81240380Y-80367142D01*
X81288000Y-80224285D01*
X81335619Y-80176666D01*
X81240380Y-79271904D02*
X81240380Y-79748095D01*
X81716571Y-79795714D01*
X81668952Y-79748095D01*
X81621333Y-79652857D01*
X81621333Y-79414761D01*
X81668952Y-79319523D01*
X81716571Y-79271904D01*
X81811809Y-79224285D01*
X82049904Y-79224285D01*
X82145142Y-79271904D01*
X82192761Y-79319523D01*
X82240380Y-79414761D01*
X82240380Y-79652857D01*
X82192761Y-79748095D01*
X82145142Y-79795714D01*
%TO.C,K2*%
X94257904Y-97988380D02*
X94257904Y-96988380D01*
X94829333Y-97988380D02*
X94400761Y-97416952D01*
X94829333Y-96988380D02*
X94257904Y-97559809D01*
X95210285Y-97083619D02*
X95257904Y-97036000D01*
X95353142Y-96988380D01*
X95591238Y-96988380D01*
X95686476Y-97036000D01*
X95734095Y-97083619D01*
X95781714Y-97178857D01*
X95781714Y-97274095D01*
X95734095Y-97416952D01*
X95162666Y-97988380D01*
X95781714Y-97988380D01*
%TO.C,K3*%
X94765904Y-65984380D02*
X94765904Y-64984380D01*
X95337333Y-65984380D02*
X94908761Y-65412952D01*
X95337333Y-64984380D02*
X94765904Y-65555809D01*
X95670666Y-64984380D02*
X96289714Y-64984380D01*
X95956380Y-65365333D01*
X96099238Y-65365333D01*
X96194476Y-65412952D01*
X96242095Y-65460571D01*
X96289714Y-65555809D01*
X96289714Y-65793904D01*
X96242095Y-65889142D01*
X96194476Y-65936761D01*
X96099238Y-65984380D01*
X95813523Y-65984380D01*
X95718285Y-65936761D01*
X95670666Y-65889142D01*
%TO.C,K1*%
X81557904Y-97988380D02*
X81557904Y-96988380D01*
X82129333Y-97988380D02*
X81700761Y-97416952D01*
X82129333Y-96988380D02*
X81557904Y-97559809D01*
X83081714Y-97988380D02*
X82510285Y-97988380D01*
X82796000Y-97988380D02*
X82796000Y-96988380D01*
X82700761Y-97131238D01*
X82605523Y-97226476D01*
X82510285Y-97274095D01*
%TO.C,R4*%
X103576380Y-98972666D02*
X103100190Y-99306000D01*
X103576380Y-99544095D02*
X102576380Y-99544095D01*
X102576380Y-99163142D01*
X102624000Y-99067904D01*
X102671619Y-99020285D01*
X102766857Y-98972666D01*
X102909714Y-98972666D01*
X103004952Y-99020285D01*
X103052571Y-99067904D01*
X103100190Y-99163142D01*
X103100190Y-99544095D01*
X102909714Y-98115523D02*
X103576380Y-98115523D01*
X102528761Y-98353619D02*
X103243047Y-98591714D01*
X103243047Y-97972666D01*
%TO.C,J2*%
X73366380Y-112088333D02*
X74080666Y-112088333D01*
X74223523Y-112135952D01*
X74318761Y-112231190D01*
X74366380Y-112374047D01*
X74366380Y-112469285D01*
X73461619Y-111659761D02*
X73414000Y-111612142D01*
X73366380Y-111516904D01*
X73366380Y-111278809D01*
X73414000Y-111183571D01*
X73461619Y-111135952D01*
X73556857Y-111088333D01*
X73652095Y-111088333D01*
X73794952Y-111135952D01*
X74366380Y-111707380D01*
X74366380Y-111088333D01*
%TO.C,J4*%
X96816666Y-128117380D02*
X96816666Y-128831666D01*
X96769047Y-128974523D01*
X96673809Y-129069761D01*
X96530952Y-129117380D01*
X96435714Y-129117380D01*
X97721428Y-128450714D02*
X97721428Y-129117380D01*
X97483333Y-128069761D02*
X97245238Y-128784047D01*
X97864285Y-128784047D01*
%TO.C,J5*%
X106857380Y-131263333D02*
X107571666Y-131263333D01*
X107714523Y-131310952D01*
X107809761Y-131406190D01*
X107857380Y-131549047D01*
X107857380Y-131644285D01*
X106857380Y-130310952D02*
X106857380Y-130787142D01*
X107333571Y-130834761D01*
X107285952Y-130787142D01*
X107238333Y-130691904D01*
X107238333Y-130453809D01*
X107285952Y-130358571D01*
X107333571Y-130310952D01*
X107428809Y-130263333D01*
X107666904Y-130263333D01*
X107762142Y-130310952D01*
X107809761Y-130358571D01*
X107857380Y-130453809D01*
X107857380Y-130691904D01*
X107809761Y-130787142D01*
X107762142Y-130834761D01*
%TO.C,J6*%
X106857380Y-115903333D02*
X107571666Y-115903333D01*
X107714523Y-115950952D01*
X107809761Y-116046190D01*
X107857380Y-116189047D01*
X107857380Y-116284285D01*
X106857380Y-114998571D02*
X106857380Y-115189047D01*
X106905000Y-115284285D01*
X106952619Y-115331904D01*
X107095476Y-115427142D01*
X107285952Y-115474761D01*
X107666904Y-115474761D01*
X107762142Y-115427142D01*
X107809761Y-115379523D01*
X107857380Y-115284285D01*
X107857380Y-115093809D01*
X107809761Y-114998571D01*
X107762142Y-114950952D01*
X107666904Y-114903333D01*
X107428809Y-114903333D01*
X107333571Y-114950952D01*
X107285952Y-114998571D01*
X107238333Y-115093809D01*
X107238333Y-115284285D01*
X107285952Y-115379523D01*
X107333571Y-115427142D01*
X107428809Y-115474761D01*
%TO.C,J7*%
X106857380Y-100663333D02*
X107571666Y-100663333D01*
X107714523Y-100710952D01*
X107809761Y-100806190D01*
X107857380Y-100949047D01*
X107857380Y-101044285D01*
X106857380Y-100282380D02*
X106857380Y-99615714D01*
X107857380Y-100044285D01*
%TO.C,J3*%
X81576666Y-128117380D02*
X81576666Y-128831666D01*
X81529047Y-128974523D01*
X81433809Y-129069761D01*
X81290952Y-129117380D01*
X81195714Y-129117380D01*
X81957619Y-128117380D02*
X82576666Y-128117380D01*
X82243333Y-128498333D01*
X82386190Y-128498333D01*
X82481428Y-128545952D01*
X82529047Y-128593571D01*
X82576666Y-128688809D01*
X82576666Y-128926904D01*
X82529047Y-129022142D01*
X82481428Y-129069761D01*
X82386190Y-129117380D01*
X82100476Y-129117380D01*
X82005238Y-129069761D01*
X81957619Y-129022142D01*
%TO.C,J8*%
X73620380Y-128857333D02*
X74334666Y-128857333D01*
X74477523Y-128904952D01*
X74572761Y-129000190D01*
X74620380Y-129143047D01*
X74620380Y-129238285D01*
X74048952Y-128238285D02*
X74001333Y-128333523D01*
X73953714Y-128381142D01*
X73858476Y-128428761D01*
X73810857Y-128428761D01*
X73715619Y-128381142D01*
X73668000Y-128333523D01*
X73620380Y-128238285D01*
X73620380Y-128047809D01*
X73668000Y-127952571D01*
X73715619Y-127904952D01*
X73810857Y-127857333D01*
X73858476Y-127857333D01*
X73953714Y-127904952D01*
X74001333Y-127952571D01*
X74048952Y-128047809D01*
X74048952Y-128238285D01*
X74096571Y-128333523D01*
X74144190Y-128381142D01*
X74239428Y-128428761D01*
X74429904Y-128428761D01*
X74525142Y-128381142D01*
X74572761Y-128333523D01*
X74620380Y-128238285D01*
X74620380Y-128047809D01*
X74572761Y-127952571D01*
X74525142Y-127904952D01*
X74429904Y-127857333D01*
X74239428Y-127857333D01*
X74144190Y-127904952D01*
X74096571Y-127952571D01*
X74048952Y-128047809D01*
%TO.C,J1*%
X106857380Y-80343333D02*
X107571666Y-80343333D01*
X107714523Y-80390952D01*
X107809761Y-80486190D01*
X107857380Y-80629047D01*
X107857380Y-80724285D01*
X107857380Y-79343333D02*
X107857380Y-79914761D01*
X107857380Y-79629047D02*
X106857380Y-79629047D01*
X107000238Y-79724285D01*
X107095476Y-79819523D01*
X107143095Y-79914761D01*
%TO.C,Q7*%
X86010761Y-86145619D02*
X85915523Y-86098000D01*
X85820285Y-86002761D01*
X85677428Y-85859904D01*
X85582190Y-85812285D01*
X85486952Y-85812285D01*
X85534571Y-86050380D02*
X85439333Y-86002761D01*
X85344095Y-85907523D01*
X85296476Y-85717047D01*
X85296476Y-85383714D01*
X85344095Y-85193238D01*
X85439333Y-85098000D01*
X85534571Y-85050380D01*
X85725047Y-85050380D01*
X85820285Y-85098000D01*
X85915523Y-85193238D01*
X85963142Y-85383714D01*
X85963142Y-85717047D01*
X85915523Y-85907523D01*
X85820285Y-86002761D01*
X85725047Y-86050380D01*
X85534571Y-86050380D01*
X86296476Y-85050380D02*
X86963142Y-85050380D01*
X86534571Y-86050380D01*
%TO.C,R3*%
X103576380Y-110656666D02*
X103100190Y-110990000D01*
X103576380Y-111228095D02*
X102576380Y-111228095D01*
X102576380Y-110847142D01*
X102624000Y-110751904D01*
X102671619Y-110704285D01*
X102766857Y-110656666D01*
X102909714Y-110656666D01*
X103004952Y-110704285D01*
X103052571Y-110751904D01*
X103100190Y-110847142D01*
X103100190Y-111228095D01*
X102576380Y-110323333D02*
X102576380Y-109704285D01*
X102957333Y-110037619D01*
X102957333Y-109894761D01*
X103004952Y-109799523D01*
X103052571Y-109751904D01*
X103147809Y-109704285D01*
X103385904Y-109704285D01*
X103481142Y-109751904D01*
X103528761Y-109799523D01*
X103576380Y-109894761D01*
X103576380Y-110180476D01*
X103528761Y-110275714D01*
X103481142Y-110323333D01*
D14*
%TO.C,Q6*%
X69320000Y-102180000D02*
X72920000Y-102180000D01*
X72958478Y-102168478D02*
G75*
G03*
X71120000Y-97730000I-1838478J1838478D01*
G01*
X71120000Y-97729999D02*
G75*
G03*
X69281522Y-102168478I0J-2600001D01*
G01*
%TO.C,Q5*%
X81385000Y-96465000D02*
X84985000Y-96465000D01*
X85023478Y-96453478D02*
G75*
G03*
X83185000Y-92015000I-1838478J1838478D01*
G01*
X83185000Y-92014999D02*
G75*
G03*
X81346522Y-96453478I0J-2600001D01*
G01*
%TO.C,Q4*%
X75670000Y-96465000D02*
X79270000Y-96465000D01*
X79308478Y-96453478D02*
G75*
G03*
X77470000Y-92015000I-1838478J1838478D01*
G01*
X77470000Y-92014999D02*
G75*
G03*
X75631522Y-96453478I0J-2600001D01*
G01*
%TO.C,Q3*%
X69955000Y-96465000D02*
X73555000Y-96465000D01*
X73593478Y-96453478D02*
G75*
G03*
X71755000Y-92015000I-1838478J1838478D01*
G01*
X71755000Y-92014999D02*
G75*
G03*
X69916522Y-96453478I0J-2600001D01*
G01*
%TO.C,Q1*%
X102925000Y-68050000D02*
X102925000Y-71650000D01*
X102936522Y-71688478D02*
G75*
G03*
X107375000Y-69850000I1838478J1838478D01*
G01*
X107375001Y-69850000D02*
G75*
G03*
X102936522Y-68011522I-2600001J0D01*
G01*
%TO.C,C1*%
X64670000Y-100644000D02*
X64670000Y-95404000D01*
X67410000Y-100644000D02*
X67410000Y-95404000D01*
X64670000Y-100644000D02*
X67410000Y-100644000D01*
X64670000Y-95404000D02*
X67410000Y-95404000D01*
%TO.C,C2*%
X67410000Y-73560000D02*
X64670000Y-73560000D01*
X64670000Y-73560000D02*
X64670000Y-78800000D01*
X67410000Y-73560000D02*
X67410000Y-78800000D01*
X67410000Y-78800000D02*
X64670000Y-78800000D01*
%TO.C,R1*%
X105695000Y-86345000D02*
X103855000Y-86345000D01*
X104775000Y-85395000D02*
X104775000Y-86345000D01*
X105695000Y-90185000D02*
X105695000Y-86345000D01*
X103855000Y-90185000D02*
X105695000Y-90185000D01*
X103855000Y-86345000D02*
X103855000Y-90185000D01*
X104775000Y-91135000D02*
X104775000Y-90185000D01*
%TO.C,R2*%
X103855000Y-80025000D02*
X105695000Y-80025000D01*
X105695000Y-76185000D02*
X103855000Y-76185000D01*
X105695000Y-80025000D02*
X105695000Y-76185000D01*
X103855000Y-76185000D02*
X103855000Y-80025000D01*
X104775000Y-75235000D02*
X104775000Y-76185000D01*
X104775000Y-80975000D02*
X104775000Y-80025000D01*
%TO.C,U1*%
X73930000Y-64710000D02*
X72280000Y-64710000D01*
X77580000Y-64710000D02*
X75930000Y-64710000D01*
X72280000Y-64710000D02*
X72280000Y-90230000D01*
X77580000Y-90230000D02*
X77580000Y-64710000D01*
X72280000Y-90230000D02*
X77580000Y-90230000D01*
X73930000Y-64710000D02*
G75*
G03*
X75930000Y-64710000I1000000J0D01*
G01*
%TO.C,U2*%
X84381000Y-64984000D02*
X84381000Y-75224000D01*
X85891000Y-71955000D02*
X84381000Y-71955000D01*
X85891000Y-75224000D02*
X81250000Y-75224000D01*
X85891000Y-68254000D02*
X84381000Y-68254000D01*
X81250000Y-64984000D02*
X81250000Y-75224000D01*
X85891000Y-64984000D02*
X81250000Y-64984000D01*
X85891000Y-64984000D02*
X85891000Y-75224000D01*
%TO.C,Y1*%
X63515000Y-89660000D02*
X63515000Y-83260000D01*
X68565000Y-89660000D02*
X68565000Y-83260000D01*
X68565000Y-83260000D02*
G75*
G03*
X63515000Y-83260000I-2525000J0D01*
G01*
X63515000Y-89660000D02*
G75*
G03*
X68565000Y-89660000I2525000J0D01*
G01*
%TO.C,C4*%
X85891000Y-77740000D02*
X85906000Y-77740000D01*
X83766000Y-82280000D02*
X83766000Y-77740000D01*
X85906000Y-82280000D02*
X85906000Y-77740000D01*
X85891000Y-82280000D02*
X85906000Y-82280000D01*
X83766000Y-77740000D02*
X83781000Y-77740000D01*
X83766000Y-82280000D02*
X83781000Y-82280000D01*
%TO.C,C5*%
X82843000Y-77740000D02*
X82858000Y-77740000D01*
X80718000Y-77740000D02*
X80733000Y-77740000D01*
X82843000Y-82280000D02*
X82858000Y-82280000D01*
X82858000Y-82280000D02*
X82858000Y-77740000D01*
X80718000Y-82280000D02*
X80733000Y-82280000D01*
X80718000Y-82280000D02*
X80718000Y-77740000D01*
%TO.C,K2*%
X88646000Y-127762000D02*
X88646000Y-98298000D01*
X101854000Y-98298000D02*
X101854000Y-127762000D01*
X88646000Y-98298000D02*
X101854000Y-98298000D01*
X101854000Y-127762000D02*
X88646000Y-127762000D01*
%TO.C,K3*%
X101854000Y-96012000D02*
X88646000Y-96012000D01*
X88646000Y-96012000D02*
X88646000Y-66548000D01*
X88646000Y-66548000D02*
X101854000Y-66548000D01*
X101854000Y-66548000D02*
X101854000Y-96012000D01*
%TO.C,K1*%
X74676000Y-98298000D02*
X87884000Y-98298000D01*
X87884000Y-98298000D02*
X87884000Y-127762000D01*
X74676000Y-127762000D02*
X74676000Y-98298000D01*
X87884000Y-127762000D02*
X74676000Y-127762000D01*
%TO.C,R4*%
X104775000Y-101930000D02*
X104775000Y-100980000D01*
X103855000Y-97140000D02*
X103855000Y-100980000D01*
X103855000Y-100980000D02*
X105695000Y-100980000D01*
X104775000Y-96190000D02*
X104775000Y-97140000D01*
X105695000Y-100980000D02*
X105695000Y-97140000D01*
X105695000Y-97140000D02*
X103855000Y-97140000D01*
%TO.C,J2*%
X66782000Y-115801000D02*
X66747000Y-115766000D01*
X73282000Y-119435000D02*
X63361000Y-119435000D01*
X63121000Y-103835000D02*
X63121000Y-104335000D01*
X69090000Y-113030000D02*
X69044000Y-112983000D01*
X73282000Y-104075000D02*
X63361000Y-104075000D01*
X63921000Y-104075000D02*
X63921000Y-119435000D01*
X73282000Y-104075000D02*
X73282000Y-119435000D01*
X69296000Y-112825000D02*
X69260000Y-112790000D01*
X63861000Y-103835000D02*
X63121000Y-103835000D01*
X66998000Y-115608000D02*
X66952000Y-115561000D01*
X63361000Y-104075000D02*
X63361000Y-119435000D01*
X66998000Y-110528000D02*
X66952000Y-110481000D01*
X70322000Y-104075000D02*
X70322000Y-119435000D01*
X69296000Y-117905000D02*
X69260000Y-117870000D01*
X65421000Y-104075000D02*
X65421000Y-119435000D01*
X69090000Y-118110000D02*
X69044000Y-118063000D01*
X66782000Y-110721000D02*
X66747000Y-110686000D01*
X69556000Y-107359000D02*
G75*
G03*
X69556427Y-105991958I-1534993J684001D01*
G01*
X67337000Y-108210001D02*
G75*
G03*
X68704042Y-108210427I684000J1535001D01*
G01*
X68705000Y-105140000D02*
G75*
G03*
X67337958Y-105139573I-684001J-1534993D01*
G01*
X66486000Y-105991000D02*
G75*
G03*
X66340747Y-106703805I1535001J-683999D01*
G01*
X66341000Y-106675000D02*
G75*
G03*
X66486244Y-107358318I1680000J0D01*
G01*
X69701000Y-116835000D02*
G75*
G03*
X69701000Y-116835000I-1680000J0D01*
G01*
X69701000Y-111755000D02*
G75*
G03*
X69701000Y-111755000I-1680000J0D01*
G01*
%TO.C,J4*%
X101003000Y-135948000D02*
X100956000Y-135994000D01*
X103300000Y-133650000D02*
X103265000Y-133686000D01*
X103505000Y-133856000D02*
X103458000Y-133902000D01*
X101196000Y-136164000D02*
X101161000Y-136199000D01*
X89470000Y-139585000D02*
X104830000Y-139585000D01*
X98220000Y-133650000D02*
X98185000Y-133686000D01*
X104830000Y-129664000D02*
X104830000Y-139585000D01*
X89470000Y-139025000D02*
X104830000Y-139025000D01*
X89470000Y-129664000D02*
X104830000Y-129664000D01*
X95923000Y-135948000D02*
X95876000Y-135994000D01*
X89470000Y-137525000D02*
X104830000Y-137525000D01*
X89230000Y-139085000D02*
X89230000Y-139825000D01*
X96116000Y-136164000D02*
X96081000Y-136199000D01*
X89470000Y-132624000D02*
X104830000Y-132624000D01*
X89230000Y-139825000D02*
X89730000Y-139825000D01*
X98425000Y-133856000D02*
X98378000Y-133902000D01*
X89470000Y-129664000D02*
X89470000Y-139585000D01*
X93605001Y-135609000D02*
G75*
G03*
X93605427Y-134241958I-1535001J684000D01*
G01*
X92070000Y-136605000D02*
G75*
G03*
X92753318Y-136459756I0J1680000D01*
G01*
X91386000Y-136460000D02*
G75*
G03*
X92098805Y-136605253I683999J1535001D01*
G01*
X92754000Y-133390000D02*
G75*
G03*
X91386958Y-133389573I-684001J-1534993D01*
G01*
X90535000Y-134241000D02*
G75*
G03*
X90534573Y-135608042I1534993J-684001D01*
G01*
X103910000Y-134925000D02*
G75*
G03*
X103910000Y-134925000I-1680000J0D01*
G01*
X98830000Y-134925000D02*
G75*
G03*
X98830000Y-134925000I-1680000J0D01*
G01*
%TO.C,J5*%
X112596000Y-124575000D02*
X112642000Y-124622000D01*
X112390000Y-124780000D02*
X112426000Y-124815000D01*
X114688000Y-132157000D02*
X114734000Y-132204000D01*
X116265000Y-138610000D02*
X116265000Y-123250000D01*
X108404000Y-138610000D02*
X118325000Y-138610000D01*
X118325000Y-138610000D02*
X118325000Y-123250000D01*
X117825000Y-138850000D02*
X118565000Y-138850000D01*
X117765000Y-138610000D02*
X117765000Y-123250000D01*
X114688000Y-127077000D02*
X114734000Y-127124000D01*
X112390000Y-129860000D02*
X112426000Y-129895000D01*
X111364000Y-138610000D02*
X111364000Y-123250000D01*
X118565000Y-138850000D02*
X118565000Y-138350000D01*
X114904000Y-126884000D02*
X114939000Y-126919000D01*
X108404000Y-138610000D02*
X108404000Y-123250000D01*
X108404000Y-123250000D02*
X118325000Y-123250000D01*
X112596000Y-129655000D02*
X112642000Y-129702000D01*
X114904000Y-131964000D02*
X114939000Y-131999000D01*
X114349000Y-134474999D02*
G75*
G03*
X112981958Y-134474573I-684000J-1535001D01*
G01*
X112981000Y-137545000D02*
G75*
G03*
X114348042Y-137545427I684001J1534993D01*
G01*
X115200000Y-136694000D02*
G75*
G03*
X115345253Y-135981195I-1535001J683999D01*
G01*
X112130000Y-135326000D02*
G75*
G03*
X112129573Y-136693042I1534993J-684001D01*
G01*
X115345000Y-136010000D02*
G75*
G03*
X115199756Y-135326682I-1680000J0D01*
G01*
X115345000Y-125850000D02*
G75*
G03*
X115345000Y-125850000I-1680000J0D01*
G01*
X115345000Y-130930000D02*
G75*
G03*
X115345000Y-130930000I-1680000J0D01*
G01*
%TO.C,J6*%
X108404000Y-107890000D02*
X118325000Y-107890000D01*
X117825000Y-123490000D02*
X118565000Y-123490000D01*
X111364000Y-123250000D02*
X111364000Y-107890000D01*
X114904000Y-111524000D02*
X114939000Y-111559000D01*
X112390000Y-114500000D02*
X112426000Y-114535000D01*
X112596000Y-114295000D02*
X112642000Y-114342000D01*
X117765000Y-123250000D02*
X117765000Y-107890000D01*
X114688000Y-111717000D02*
X114734000Y-111764000D01*
X116265000Y-123250000D02*
X116265000Y-107890000D01*
X108404000Y-123250000D02*
X108404000Y-107890000D01*
X118565000Y-123490000D02*
X118565000Y-122990000D01*
X112596000Y-109215000D02*
X112642000Y-109262000D01*
X112390000Y-109420000D02*
X112426000Y-109455000D01*
X114904000Y-116604000D02*
X114939000Y-116639000D01*
X114688000Y-116797000D02*
X114734000Y-116844000D01*
X108404000Y-123250000D02*
X118325000Y-123250000D01*
X118325000Y-123250000D02*
X118325000Y-107890000D01*
X114349000Y-119114999D02*
G75*
G03*
X112981958Y-119114573I-684000J-1535001D01*
G01*
X112130000Y-119966000D02*
G75*
G03*
X112129573Y-121333042I1534993J-684001D01*
G01*
X115200000Y-121334000D02*
G75*
G03*
X115345253Y-120621195I-1535001J683999D01*
G01*
X115345000Y-120650000D02*
G75*
G03*
X115199756Y-119966682I-1680000J0D01*
G01*
X112981000Y-122185000D02*
G75*
G03*
X114348042Y-122185427I684001J1534993D01*
G01*
X115345000Y-115570000D02*
G75*
G03*
X115345000Y-115570000I-1680000J0D01*
G01*
X115345000Y-110490000D02*
G75*
G03*
X115345000Y-110490000I-1680000J0D01*
G01*
%TO.C,J7*%
X117825000Y-108250000D02*
X118565000Y-108250000D01*
X108404000Y-108010000D02*
X118325000Y-108010000D01*
X114688000Y-96477000D02*
X114734000Y-96524000D01*
X114904000Y-101364000D02*
X114939000Y-101399000D01*
X112596000Y-99055000D02*
X112642000Y-99102000D01*
X118325000Y-108010000D02*
X118325000Y-92650000D01*
X116265000Y-108010000D02*
X116265000Y-92650000D01*
X114688000Y-101557000D02*
X114734000Y-101604000D01*
X112390000Y-94180000D02*
X112426000Y-94215000D01*
X117765000Y-108010000D02*
X117765000Y-92650000D01*
X112596000Y-93975000D02*
X112642000Y-94022000D01*
X108404000Y-108010000D02*
X108404000Y-92650000D01*
X114904000Y-96284000D02*
X114939000Y-96319000D01*
X111364000Y-108010000D02*
X111364000Y-92650000D01*
X112390000Y-99260000D02*
X112426000Y-99295000D01*
X118565000Y-108250000D02*
X118565000Y-107750000D01*
X108404000Y-92650000D02*
X118325000Y-92650000D01*
X112130000Y-104726000D02*
G75*
G03*
X112129573Y-106093042I1534993J-684001D01*
G01*
X114349000Y-103874999D02*
G75*
G03*
X112981958Y-103874573I-684000J-1535001D01*
G01*
X115200000Y-106094000D02*
G75*
G03*
X115345253Y-105381195I-1535001J683999D01*
G01*
X115345000Y-105410000D02*
G75*
G03*
X115199756Y-104726682I-1680000J0D01*
G01*
X112981000Y-106945000D02*
G75*
G03*
X114348042Y-106945427I684001J1534993D01*
G01*
X115345000Y-95250000D02*
G75*
G03*
X115345000Y-95250000I-1680000J0D01*
G01*
X115345000Y-100330000D02*
G75*
G03*
X115345000Y-100330000I-1680000J0D01*
G01*
%TO.C,J3*%
X73990000Y-139825000D02*
X74490000Y-139825000D01*
X85956000Y-136164000D02*
X85921000Y-136199000D01*
X74230000Y-137525000D02*
X89590000Y-137525000D01*
X74230000Y-139585000D02*
X89590000Y-139585000D01*
X80683000Y-135948000D02*
X80636000Y-135994000D01*
X85763000Y-135948000D02*
X85716000Y-135994000D01*
X80876000Y-136164000D02*
X80841000Y-136199000D01*
X74230000Y-132624000D02*
X89590000Y-132624000D01*
X74230000Y-129664000D02*
X74230000Y-139585000D01*
X88265000Y-133856000D02*
X88218000Y-133902000D01*
X83185000Y-133856000D02*
X83138000Y-133902000D01*
X82980000Y-133650000D02*
X82945000Y-133686000D01*
X88060000Y-133650000D02*
X88025000Y-133686000D01*
X73990000Y-139085000D02*
X73990000Y-139825000D01*
X74230000Y-129664000D02*
X89590000Y-129664000D01*
X89590000Y-129664000D02*
X89590000Y-139585000D01*
X74230000Y-139025000D02*
X89590000Y-139025000D01*
X77514000Y-133390000D02*
G75*
G03*
X76146958Y-133389573I-684001J-1534993D01*
G01*
X76830000Y-136605000D02*
G75*
G03*
X77513318Y-136459756I0J1680000D01*
G01*
X76146000Y-136460000D02*
G75*
G03*
X76858805Y-136605253I683999J1535001D01*
G01*
X78365001Y-135609000D02*
G75*
G03*
X78365427Y-134241958I-1535001J684000D01*
G01*
X75295000Y-134241000D02*
G75*
G03*
X75294573Y-135608042I1534993J-684001D01*
G01*
X88670000Y-134925000D02*
G75*
G03*
X88670000Y-134925000I-1680000J0D01*
G01*
X83590000Y-134925000D02*
G75*
G03*
X83590000Y-134925000I-1680000J0D01*
G01*
%TO.C,J8*%
X69090000Y-133350000D02*
X69044000Y-133303000D01*
X70322000Y-119315000D02*
X70322000Y-139755000D01*
X73282000Y-119315000D02*
X63361000Y-119315000D01*
X69296000Y-128065000D02*
X69260000Y-128030000D01*
X65421000Y-119315000D02*
X65421000Y-139755000D01*
X69090000Y-138430000D02*
X69044000Y-138383000D01*
X63921000Y-119315000D02*
X63921000Y-139755000D01*
X69296000Y-138225000D02*
X69260000Y-138190000D01*
X69090000Y-128270000D02*
X69044000Y-128223000D01*
X63361000Y-119315000D02*
X63361000Y-139755000D01*
X63121000Y-119075000D02*
X63121000Y-119575000D01*
X66998000Y-130848000D02*
X66952000Y-130801000D01*
X66782000Y-136121000D02*
X66747000Y-136086000D01*
X69296000Y-133145000D02*
X69260000Y-133110000D01*
X73282000Y-119315000D02*
X73282000Y-139755000D01*
X63861000Y-119075000D02*
X63121000Y-119075000D01*
X66998000Y-125768000D02*
X66952000Y-125721000D01*
X73282000Y-139755000D02*
X63361000Y-139755000D01*
X66782000Y-131041000D02*
X66747000Y-131006000D01*
X66998000Y-135928000D02*
X66952000Y-135881000D01*
X66782000Y-125961000D02*
X66747000Y-125926000D01*
X68705000Y-120380000D02*
G75*
G03*
X67337958Y-120379573I-684001J-1534993D01*
G01*
X66341000Y-121915000D02*
G75*
G03*
X66486244Y-122598318I1680000J0D01*
G01*
X67337000Y-123450001D02*
G75*
G03*
X68704042Y-123450427I684000J1535001D01*
G01*
X69556000Y-122599000D02*
G75*
G03*
X69556427Y-121231958I-1534993J684001D01*
G01*
X66486000Y-121231000D02*
G75*
G03*
X66340747Y-121943805I1535001J-683999D01*
G01*
X69701000Y-137155000D02*
G75*
G03*
X69701000Y-137155000I-1680000J0D01*
G01*
X69701000Y-126995000D02*
G75*
G03*
X69701000Y-126995000I-1680000J0D01*
G01*
X69701000Y-132075000D02*
G75*
G03*
X69701000Y-132075000I-1680000J0D01*
G01*
%TO.C,J1*%
X114688000Y-73617000D02*
X114734000Y-73664000D01*
X112596000Y-81275000D02*
X112642000Y-81322000D01*
X114688000Y-78697000D02*
X114734000Y-78744000D01*
X112390000Y-71320000D02*
X112426000Y-71355000D01*
X118325000Y-90230000D02*
X118325000Y-69790000D01*
X114904000Y-78504000D02*
X114939000Y-78539000D01*
X112390000Y-76400000D02*
X112426000Y-76435000D01*
X114904000Y-83584000D02*
X114939000Y-83619000D01*
X108404000Y-90230000D02*
X118325000Y-90230000D01*
X112596000Y-76195000D02*
X112642000Y-76242000D01*
X112390000Y-81480000D02*
X112426000Y-81515000D01*
X111364000Y-90230000D02*
X111364000Y-69790000D01*
X117825000Y-90470000D02*
X118565000Y-90470000D01*
X116265000Y-90230000D02*
X116265000Y-69790000D01*
X108404000Y-69790000D02*
X118325000Y-69790000D01*
X118565000Y-90470000D02*
X118565000Y-89970000D01*
X108404000Y-90230000D02*
X108404000Y-69790000D01*
X114904000Y-73424000D02*
X114939000Y-73459000D01*
X117765000Y-90230000D02*
X117765000Y-69790000D01*
X114688000Y-83777000D02*
X114734000Y-83824000D01*
X112596000Y-71115000D02*
X112642000Y-71162000D01*
X115345000Y-87630000D02*
G75*
G03*
X115199756Y-86946682I-1680000J0D01*
G01*
X115200000Y-88314000D02*
G75*
G03*
X115345253Y-87601195I-1535001J683999D01*
G01*
X114349000Y-86094999D02*
G75*
G03*
X112981958Y-86094573I-684000J-1535001D01*
G01*
X112130000Y-86946000D02*
G75*
G03*
X112129573Y-88313042I1534993J-684001D01*
G01*
X112981000Y-89165000D02*
G75*
G03*
X114348042Y-89165427I684001J1534993D01*
G01*
X115345000Y-72390000D02*
G75*
G03*
X115345000Y-72390000I-1680000J0D01*
G01*
X115345000Y-82550000D02*
G75*
G03*
X115345000Y-82550000I-1680000J0D01*
G01*
X115345000Y-77470000D02*
G75*
G03*
X115345000Y-77470000I-1680000J0D01*
G01*
%TO.C,Q7*%
X81385000Y-89480000D02*
X84985000Y-89480000D01*
X83185000Y-85029999D02*
G75*
G03*
X81346522Y-89468478I0J-2600001D01*
G01*
X85023478Y-89468478D02*
G75*
G03*
X83185000Y-85030000I-1838478J1838478D01*
G01*
%TO.C,R3*%
X105695000Y-112410000D02*
X105695000Y-108570000D01*
X104775000Y-107620000D02*
X104775000Y-108570000D01*
X103855000Y-112410000D02*
X105695000Y-112410000D01*
X103855000Y-108570000D02*
X103855000Y-112410000D01*
X105695000Y-108570000D02*
X103855000Y-108570000D01*
X104775000Y-113360000D02*
X104775000Y-112410000D01*
%TD*%
M02*
