M48
; DRILL file {KiCad 5.1.8-5.1.8} date Mon Feb  8 23:37:42 2021
; FORMAT={-:-/ absolute / metric / decimal}
; #@! TF.CreationDate,2021-02-08T23:37:42+01:00
; #@! TF.GenerationSoftware,Kicad,Pcbnew,5.1.8-5.1.8
; #@! TF.FileFunction,Plated,1,2,PTH
FMAT,2
METRIC
T1C0.400
T2C0.700
T3C0.750
T4C0.800
T5C1.100
T6C1.270
T7C1.300
%
G90
G05
T1
X74.295Y-88.265
X81.788Y-100.203
X81.915Y-89.535
X113.03Y-109.855
T2
X146.05Y-78.74
X146.05Y-86.36
X109.22Y-92.71
X116.84Y-92.71
X83.185Y-107.95
X83.185Y-115.57
X99.06Y-92.71
X106.68Y-92.71
T3
X100.965Y-67.945
X100.965Y-69.215
X100.965Y-70.485
X72.39Y-101.6
X73.66Y-101.6
X74.93Y-101.6
X143.51Y-92.71
X144.78Y-92.71
X146.05Y-92.71
X78.105Y-101.6
X79.375Y-101.6
X80.645Y-101.6
X72.39Y-96.52
X73.66Y-96.52
X74.93Y-96.52
X78.105Y-96.52
X79.375Y-96.52
X80.645Y-96.52
T4
X80.01Y-71.795
X80.01Y-74.295
X86.995Y-67.945
X86.995Y-70.485
X86.995Y-73.025
X86.995Y-75.565
X86.995Y-78.105
X86.995Y-80.645
X86.995Y-83.185
X86.995Y-85.725
X86.995Y-88.265
X86.995Y-90.805
X94.615Y-67.945
X94.615Y-70.485
X94.615Y-73.025
X94.615Y-75.565
X94.615Y-78.105
X94.615Y-80.645
X94.615Y-83.185
X94.615Y-85.725
X94.615Y-88.265
X94.615Y-90.805
X72.39Y-74.495
X72.39Y-79.375
X101.045Y-80.645
X106.045Y-80.645
X121.92Y-83.82
X129.54Y-83.82
X136.525Y-78.74
X139.025Y-78.74
X109.3Y-80.645
X114.3Y-80.645
X121.92Y-88.9
X129.54Y-88.9
X80.01Y-78.74
X80.01Y-81.24
T5
X100.965Y-86.995
X103.505Y-86.995
X106.045Y-86.995
T6
X143.51Y-100.33
X143.51Y-105.41
X143.51Y-115.57
X143.51Y-120.65
X143.51Y-125.73
X151.13Y-100.33
X151.13Y-105.41
X151.13Y-115.57
X151.13Y-120.65
X151.13Y-125.73
X90.17Y-100.33
X90.17Y-105.41
X90.17Y-115.57
X90.17Y-120.65
X90.17Y-125.73
X97.79Y-100.33
X97.79Y-105.41
X97.79Y-115.57
X97.79Y-120.65
X97.79Y-125.73
X113.03Y-100.33
X113.03Y-105.41
X113.03Y-115.57
X113.03Y-120.65
X113.03Y-125.73
X120.65Y-100.33
X120.65Y-105.41
X120.65Y-115.57
X120.65Y-120.65
X120.65Y-125.73
T7
X154.94Y-74.93
X154.94Y-80.01
X154.94Y-85.09
X154.94Y-90.17
X147.32Y-137.16
X152.4Y-137.16
X157.48Y-137.16
X116.84Y-137.16
X121.92Y-137.16
X127.0Y-137.16
X72.39Y-124.46
X72.39Y-129.54
X72.39Y-134.62
X72.39Y-139.7
X72.39Y-109.22
X72.39Y-114.3
X72.39Y-119.38
X86.36Y-137.16
X91.44Y-137.16
X96.52Y-137.16
X132.08Y-137.16
X137.16Y-137.16
X142.24Y-137.16
X101.6Y-137.16
X106.68Y-137.16
X111.76Y-137.16
T0
M30
