%TF.GenerationSoftware,KiCad,Pcbnew,6.0.7*%
%TF.CreationDate,2022-10-17T15:43:20+02:00*%
%TF.ProjectId,lrchanger,6c726368-616e-4676-9572-2e6b69636164,rev?*%
%TF.SameCoordinates,Original*%
%TF.FileFunction,AssemblyDrawing,Top*%
%FSLAX46Y46*%
G04 Gerber Fmt 4.6, Leading zero omitted, Abs format (unit mm)*
G04 Created by KiCad (PCBNEW 6.0.7) date 2022-10-17 15:43:20*
%MOMM*%
%LPD*%
G01*
G04 APERTURE LIST*
%ADD10C,0.100000*%
%ADD11C,0.150000*%
%ADD12C,0.300000*%
%ADD13C,0.400000*%
%TA.AperFunction,Profile*%
%ADD14C,0.050000*%
%TD*%
%ADD15C,0.108000*%
%ADD16C,0.129000*%
G04 APERTURE END LIST*
D10*
D11*
X177002200Y-166007200D02*
X177002200Y-198007200D01*
X285002200Y-198007200D01*
X285002200Y-166007200D01*
X177002200Y-166007200D01*
D10*
D11*
X10000000Y-10000000D02*
X10000000Y-200007200D01*
X287002200Y-200007200D01*
X287002200Y-10000000D01*
X10000000Y-10000000D01*
D10*
D11*
X12000000Y-12000000D02*
X12000000Y-198007200D01*
X285002200Y-198007200D01*
X285002200Y-12000000D01*
X12000000Y-12000000D01*
D10*
D11*
X60000000Y-12000000D02*
X60000000Y-10000000D01*
D10*
D11*
X110000000Y-12000000D02*
X110000000Y-10000000D01*
D10*
D11*
X160000000Y-12000000D02*
X160000000Y-10000000D01*
D10*
D11*
X210000000Y-12000000D02*
X210000000Y-10000000D01*
D10*
D11*
X260000000Y-12000000D02*
X260000000Y-10000000D01*
D10*
D11*
X36065476Y-11588095D02*
X35322619Y-11588095D01*
X35694047Y-11588095D02*
X35694047Y-10288095D01*
X35570238Y-10473809D01*
X35446428Y-10597619D01*
X35322619Y-10659523D01*
D10*
D11*
X85322619Y-10411904D02*
X85384523Y-10350000D01*
X85508333Y-10288095D01*
X85817857Y-10288095D01*
X85941666Y-10350000D01*
X86003571Y-10411904D01*
X86065476Y-10535714D01*
X86065476Y-10659523D01*
X86003571Y-10845238D01*
X85260714Y-11588095D01*
X86065476Y-11588095D01*
D10*
D11*
X135260714Y-10288095D02*
X136065476Y-10288095D01*
X135632142Y-10783333D01*
X135817857Y-10783333D01*
X135941666Y-10845238D01*
X136003571Y-10907142D01*
X136065476Y-11030952D01*
X136065476Y-11340476D01*
X136003571Y-11464285D01*
X135941666Y-11526190D01*
X135817857Y-11588095D01*
X135446428Y-11588095D01*
X135322619Y-11526190D01*
X135260714Y-11464285D01*
D10*
D11*
X185941666Y-10721428D02*
X185941666Y-11588095D01*
X185632142Y-10226190D02*
X185322619Y-11154761D01*
X186127380Y-11154761D01*
D10*
D11*
X236003571Y-10288095D02*
X235384523Y-10288095D01*
X235322619Y-10907142D01*
X235384523Y-10845238D01*
X235508333Y-10783333D01*
X235817857Y-10783333D01*
X235941666Y-10845238D01*
X236003571Y-10907142D01*
X236065476Y-11030952D01*
X236065476Y-11340476D01*
X236003571Y-11464285D01*
X235941666Y-11526190D01*
X235817857Y-11588095D01*
X235508333Y-11588095D01*
X235384523Y-11526190D01*
X235322619Y-11464285D01*
D10*
D11*
X285941666Y-10288095D02*
X285694047Y-10288095D01*
X285570238Y-10350000D01*
X285508333Y-10411904D01*
X285384523Y-10597619D01*
X285322619Y-10845238D01*
X285322619Y-11340476D01*
X285384523Y-11464285D01*
X285446428Y-11526190D01*
X285570238Y-11588095D01*
X285817857Y-11588095D01*
X285941666Y-11526190D01*
X286003571Y-11464285D01*
X286065476Y-11340476D01*
X286065476Y-11030952D01*
X286003571Y-10907142D01*
X285941666Y-10845238D01*
X285817857Y-10783333D01*
X285570238Y-10783333D01*
X285446428Y-10845238D01*
X285384523Y-10907142D01*
X285322619Y-11030952D01*
D10*
D11*
X60000000Y-198007200D02*
X60000000Y-200007200D01*
D10*
D11*
X110000000Y-198007200D02*
X110000000Y-200007200D01*
D10*
D11*
X160000000Y-198007200D02*
X160000000Y-200007200D01*
D10*
D11*
X210000000Y-198007200D02*
X210000000Y-200007200D01*
D10*
D11*
X260000000Y-198007200D02*
X260000000Y-200007200D01*
D10*
D11*
X36065476Y-199595295D02*
X35322619Y-199595295D01*
X35694047Y-199595295D02*
X35694047Y-198295295D01*
X35570238Y-198481009D01*
X35446428Y-198604819D01*
X35322619Y-198666723D01*
D10*
D11*
X85322619Y-198419104D02*
X85384523Y-198357200D01*
X85508333Y-198295295D01*
X85817857Y-198295295D01*
X85941666Y-198357200D01*
X86003571Y-198419104D01*
X86065476Y-198542914D01*
X86065476Y-198666723D01*
X86003571Y-198852438D01*
X85260714Y-199595295D01*
X86065476Y-199595295D01*
D10*
D11*
X135260714Y-198295295D02*
X136065476Y-198295295D01*
X135632142Y-198790533D01*
X135817857Y-198790533D01*
X135941666Y-198852438D01*
X136003571Y-198914342D01*
X136065476Y-199038152D01*
X136065476Y-199347676D01*
X136003571Y-199471485D01*
X135941666Y-199533390D01*
X135817857Y-199595295D01*
X135446428Y-199595295D01*
X135322619Y-199533390D01*
X135260714Y-199471485D01*
D10*
D11*
X185941666Y-198728628D02*
X185941666Y-199595295D01*
X185632142Y-198233390D02*
X185322619Y-199161961D01*
X186127380Y-199161961D01*
D10*
D11*
X236003571Y-198295295D02*
X235384523Y-198295295D01*
X235322619Y-198914342D01*
X235384523Y-198852438D01*
X235508333Y-198790533D01*
X235817857Y-198790533D01*
X235941666Y-198852438D01*
X236003571Y-198914342D01*
X236065476Y-199038152D01*
X236065476Y-199347676D01*
X236003571Y-199471485D01*
X235941666Y-199533390D01*
X235817857Y-199595295D01*
X235508333Y-199595295D01*
X235384523Y-199533390D01*
X235322619Y-199471485D01*
D10*
D11*
X285941666Y-198295295D02*
X285694047Y-198295295D01*
X285570238Y-198357200D01*
X285508333Y-198419104D01*
X285384523Y-198604819D01*
X285322619Y-198852438D01*
X285322619Y-199347676D01*
X285384523Y-199471485D01*
X285446428Y-199533390D01*
X285570238Y-199595295D01*
X285817857Y-199595295D01*
X285941666Y-199533390D01*
X286003571Y-199471485D01*
X286065476Y-199347676D01*
X286065476Y-199038152D01*
X286003571Y-198914342D01*
X285941666Y-198852438D01*
X285817857Y-198790533D01*
X285570238Y-198790533D01*
X285446428Y-198852438D01*
X285384523Y-198914342D01*
X285322619Y-199038152D01*
D10*
D11*
X10000000Y-60000000D02*
X12000000Y-60000000D01*
D10*
D11*
X10000000Y-110000000D02*
X12000000Y-110000000D01*
D10*
D11*
X10000000Y-160000000D02*
X12000000Y-160000000D01*
D10*
D11*
X10690476Y-35216666D02*
X11309523Y-35216666D01*
X10566666Y-35588095D02*
X11000000Y-34288095D01*
X11433333Y-35588095D01*
D10*
D11*
X11092857Y-84907142D02*
X11278571Y-84969047D01*
X11340476Y-85030952D01*
X11402380Y-85154761D01*
X11402380Y-85340476D01*
X11340476Y-85464285D01*
X11278571Y-85526190D01*
X11154761Y-85588095D01*
X10659523Y-85588095D01*
X10659523Y-84288095D01*
X11092857Y-84288095D01*
X11216666Y-84350000D01*
X11278571Y-84411904D01*
X11340476Y-84535714D01*
X11340476Y-84659523D01*
X11278571Y-84783333D01*
X11216666Y-84845238D01*
X11092857Y-84907142D01*
X10659523Y-84907142D01*
D10*
D11*
X11402380Y-135464285D02*
X11340476Y-135526190D01*
X11154761Y-135588095D01*
X11030952Y-135588095D01*
X10845238Y-135526190D01*
X10721428Y-135402380D01*
X10659523Y-135278571D01*
X10597619Y-135030952D01*
X10597619Y-134845238D01*
X10659523Y-134597619D01*
X10721428Y-134473809D01*
X10845238Y-134350000D01*
X11030952Y-134288095D01*
X11154761Y-134288095D01*
X11340476Y-134350000D01*
X11402380Y-134411904D01*
D10*
D11*
X10659523Y-185588095D02*
X10659523Y-184288095D01*
X10969047Y-184288095D01*
X11154761Y-184350000D01*
X11278571Y-184473809D01*
X11340476Y-184597619D01*
X11402380Y-184845238D01*
X11402380Y-185030952D01*
X11340476Y-185278571D01*
X11278571Y-185402380D01*
X11154761Y-185526190D01*
X10969047Y-185588095D01*
X10659523Y-185588095D01*
D10*
D11*
X287002200Y-60000000D02*
X285002200Y-60000000D01*
D10*
D11*
X287002200Y-110000000D02*
X285002200Y-110000000D01*
D10*
D11*
X287002200Y-160000000D02*
X285002200Y-160000000D01*
D10*
D11*
X285692676Y-35216666D02*
X286311723Y-35216666D01*
X285568866Y-35588095D02*
X286002200Y-34288095D01*
X286435533Y-35588095D01*
D10*
D11*
X286095057Y-84907142D02*
X286280771Y-84969047D01*
X286342676Y-85030952D01*
X286404580Y-85154761D01*
X286404580Y-85340476D01*
X286342676Y-85464285D01*
X286280771Y-85526190D01*
X286156961Y-85588095D01*
X285661723Y-85588095D01*
X285661723Y-84288095D01*
X286095057Y-84288095D01*
X286218866Y-84350000D01*
X286280771Y-84411904D01*
X286342676Y-84535714D01*
X286342676Y-84659523D01*
X286280771Y-84783333D01*
X286218866Y-84845238D01*
X286095057Y-84907142D01*
X285661723Y-84907142D01*
D10*
D11*
X286404580Y-135464285D02*
X286342676Y-135526190D01*
X286156961Y-135588095D01*
X286033152Y-135588095D01*
X285847438Y-135526190D01*
X285723628Y-135402380D01*
X285661723Y-135278571D01*
X285599819Y-135030952D01*
X285599819Y-134845238D01*
X285661723Y-134597619D01*
X285723628Y-134473809D01*
X285847438Y-134350000D01*
X286033152Y-134288095D01*
X286156961Y-134288095D01*
X286342676Y-134350000D01*
X286404580Y-134411904D01*
D10*
D11*
X285661723Y-185588095D02*
X285661723Y-184288095D01*
X285971247Y-184288095D01*
X286156961Y-184350000D01*
X286280771Y-184473809D01*
X286342676Y-184597619D01*
X286404580Y-184845238D01*
X286404580Y-185030952D01*
X286342676Y-185278571D01*
X286280771Y-185402380D01*
X286156961Y-185526190D01*
X285971247Y-185588095D01*
X285661723Y-185588095D01*
D10*
D11*
X200434342Y-193785771D02*
X200434342Y-192285771D01*
X200791485Y-192285771D01*
X201005771Y-192357200D01*
X201148628Y-192500057D01*
X201220057Y-192642914D01*
X201291485Y-192928628D01*
X201291485Y-193142914D01*
X201220057Y-193428628D01*
X201148628Y-193571485D01*
X201005771Y-193714342D01*
X200791485Y-193785771D01*
X200434342Y-193785771D01*
X202577200Y-193785771D02*
X202577200Y-193000057D01*
X202505771Y-192857200D01*
X202362914Y-192785771D01*
X202077200Y-192785771D01*
X201934342Y-192857200D01*
X202577200Y-193714342D02*
X202434342Y-193785771D01*
X202077200Y-193785771D01*
X201934342Y-193714342D01*
X201862914Y-193571485D01*
X201862914Y-193428628D01*
X201934342Y-193285771D01*
X202077200Y-193214342D01*
X202434342Y-193214342D01*
X202577200Y-193142914D01*
X203077200Y-192785771D02*
X203648628Y-192785771D01*
X203291485Y-192285771D02*
X203291485Y-193571485D01*
X203362914Y-193714342D01*
X203505771Y-193785771D01*
X203648628Y-193785771D01*
X204720057Y-193714342D02*
X204577200Y-193785771D01*
X204291485Y-193785771D01*
X204148628Y-193714342D01*
X204077200Y-193571485D01*
X204077200Y-193000057D01*
X204148628Y-192857200D01*
X204291485Y-192785771D01*
X204577200Y-192785771D01*
X204720057Y-192857200D01*
X204791485Y-193000057D01*
X204791485Y-193142914D01*
X204077200Y-193285771D01*
X205434342Y-193642914D02*
X205505771Y-193714342D01*
X205434342Y-193785771D01*
X205362914Y-193714342D01*
X205434342Y-193642914D01*
X205434342Y-193785771D01*
X205434342Y-192857200D02*
X205505771Y-192928628D01*
X205434342Y-193000057D01*
X205362914Y-192928628D01*
X205434342Y-192857200D01*
X205434342Y-193000057D01*
D10*
D11*
X177002200Y-194507200D02*
X285002200Y-194507200D01*
D10*
D11*
X178434342Y-196585771D02*
X178434342Y-195085771D01*
X179291485Y-196585771D02*
X178648628Y-195728628D01*
X179291485Y-195085771D02*
X178434342Y-195942914D01*
X179934342Y-196585771D02*
X179934342Y-195585771D01*
X179934342Y-195085771D02*
X179862914Y-195157200D01*
X179934342Y-195228628D01*
X180005771Y-195157200D01*
X179934342Y-195085771D01*
X179934342Y-195228628D01*
X181505771Y-196442914D02*
X181434342Y-196514342D01*
X181220057Y-196585771D01*
X181077200Y-196585771D01*
X180862914Y-196514342D01*
X180720057Y-196371485D01*
X180648628Y-196228628D01*
X180577200Y-195942914D01*
X180577200Y-195728628D01*
X180648628Y-195442914D01*
X180720057Y-195300057D01*
X180862914Y-195157200D01*
X181077200Y-195085771D01*
X181220057Y-195085771D01*
X181434342Y-195157200D01*
X181505771Y-195228628D01*
X182791485Y-196585771D02*
X182791485Y-195800057D01*
X182720057Y-195657200D01*
X182577200Y-195585771D01*
X182291485Y-195585771D01*
X182148628Y-195657200D01*
X182791485Y-196514342D02*
X182648628Y-196585771D01*
X182291485Y-196585771D01*
X182148628Y-196514342D01*
X182077200Y-196371485D01*
X182077200Y-196228628D01*
X182148628Y-196085771D01*
X182291485Y-196014342D01*
X182648628Y-196014342D01*
X182791485Y-195942914D01*
X184148628Y-196585771D02*
X184148628Y-195085771D01*
X184148628Y-196514342D02*
X184005771Y-196585771D01*
X183720057Y-196585771D01*
X183577200Y-196514342D01*
X183505771Y-196442914D01*
X183434342Y-196300057D01*
X183434342Y-195871485D01*
X183505771Y-195728628D01*
X183577200Y-195657200D01*
X183720057Y-195585771D01*
X184005771Y-195585771D01*
X184148628Y-195657200D01*
X186005771Y-195800057D02*
X186505771Y-195800057D01*
X186720057Y-196585771D02*
X186005771Y-196585771D01*
X186005771Y-195085771D01*
X186720057Y-195085771D01*
X187362914Y-196442914D02*
X187434342Y-196514342D01*
X187362914Y-196585771D01*
X187291485Y-196514342D01*
X187362914Y-196442914D01*
X187362914Y-196585771D01*
X188077200Y-196585771D02*
X188077200Y-195085771D01*
X188434342Y-195085771D01*
X188648628Y-195157200D01*
X188791485Y-195300057D01*
X188862914Y-195442914D01*
X188934342Y-195728628D01*
X188934342Y-195942914D01*
X188862914Y-196228628D01*
X188791485Y-196371485D01*
X188648628Y-196514342D01*
X188434342Y-196585771D01*
X188077200Y-196585771D01*
X189577200Y-196442914D02*
X189648628Y-196514342D01*
X189577200Y-196585771D01*
X189505771Y-196514342D01*
X189577200Y-196442914D01*
X189577200Y-196585771D01*
X190220057Y-196157200D02*
X190934342Y-196157200D01*
X190077200Y-196585771D02*
X190577200Y-195085771D01*
X191077200Y-196585771D01*
X191577200Y-196442914D02*
X191648628Y-196514342D01*
X191577200Y-196585771D01*
X191505771Y-196514342D01*
X191577200Y-196442914D01*
X191577200Y-196585771D01*
X194577200Y-196585771D02*
X194577200Y-195085771D01*
X194720057Y-196014342D02*
X195148628Y-196585771D01*
X195148628Y-195585771D02*
X194577200Y-196157200D01*
X195791485Y-196585771D02*
X195791485Y-195585771D01*
X195791485Y-195085771D02*
X195720057Y-195157200D01*
X195791485Y-195228628D01*
X195862914Y-195157200D01*
X195791485Y-195085771D01*
X195791485Y-195228628D01*
X197148628Y-196514342D02*
X197005771Y-196585771D01*
X196720057Y-196585771D01*
X196577200Y-196514342D01*
X196505771Y-196442914D01*
X196434342Y-196300057D01*
X196434342Y-195871485D01*
X196505771Y-195728628D01*
X196577200Y-195657200D01*
X196720057Y-195585771D01*
X197005771Y-195585771D01*
X197148628Y-195657200D01*
X198434342Y-196585771D02*
X198434342Y-195800057D01*
X198362914Y-195657200D01*
X198220057Y-195585771D01*
X197934342Y-195585771D01*
X197791485Y-195657200D01*
X198434342Y-196514342D02*
X198291485Y-196585771D01*
X197934342Y-196585771D01*
X197791485Y-196514342D01*
X197720057Y-196371485D01*
X197720057Y-196228628D01*
X197791485Y-196085771D01*
X197934342Y-196014342D01*
X198291485Y-196014342D01*
X198434342Y-195942914D01*
X199791485Y-196585771D02*
X199791485Y-195085771D01*
X199791485Y-196514342D02*
X199648628Y-196585771D01*
X199362914Y-196585771D01*
X199220057Y-196514342D01*
X199148628Y-196442914D01*
X199077200Y-196300057D01*
X199077200Y-195871485D01*
X199148628Y-195728628D01*
X199220057Y-195657200D01*
X199362914Y-195585771D01*
X199648628Y-195585771D01*
X199791485Y-195657200D01*
X202291485Y-195085771D02*
X202005771Y-195085771D01*
X201862914Y-195157200D01*
X201791485Y-195228628D01*
X201648628Y-195442914D01*
X201577200Y-195728628D01*
X201577200Y-196300057D01*
X201648628Y-196442914D01*
X201720057Y-196514342D01*
X201862914Y-196585771D01*
X202148628Y-196585771D01*
X202291485Y-196514342D01*
X202362914Y-196442914D01*
X202434342Y-196300057D01*
X202434342Y-195942914D01*
X202362914Y-195800057D01*
X202291485Y-195728628D01*
X202148628Y-195657200D01*
X201862914Y-195657200D01*
X201720057Y-195728628D01*
X201648628Y-195800057D01*
X201577200Y-195942914D01*
X203077200Y-196442914D02*
X203148628Y-196514342D01*
X203077200Y-196585771D01*
X203005771Y-196514342D01*
X203077200Y-196442914D01*
X203077200Y-196585771D01*
X204077200Y-195085771D02*
X204220057Y-195085771D01*
X204362914Y-195157200D01*
X204434342Y-195228628D01*
X204505771Y-195371485D01*
X204577200Y-195657200D01*
X204577200Y-196014342D01*
X204505771Y-196300057D01*
X204434342Y-196442914D01*
X204362914Y-196514342D01*
X204220057Y-196585771D01*
X204077200Y-196585771D01*
X203934342Y-196514342D01*
X203862914Y-196442914D01*
X203791485Y-196300057D01*
X203720057Y-196014342D01*
X203720057Y-195657200D01*
X203791485Y-195371485D01*
X203862914Y-195228628D01*
X203934342Y-195157200D01*
X204077200Y-195085771D01*
X205220057Y-196442914D02*
X205291485Y-196514342D01*
X205220057Y-196585771D01*
X205148628Y-196514342D01*
X205220057Y-196442914D01*
X205220057Y-196585771D01*
X205791485Y-195085771D02*
X206791485Y-195085771D01*
X206148628Y-196585771D01*
D10*
D11*
X177002200Y-191507200D02*
X285002200Y-191507200D01*
D10*
D12*
X264411485Y-193785771D02*
X263911485Y-193071485D01*
X263554342Y-193785771D02*
X263554342Y-192285771D01*
X264125771Y-192285771D01*
X264268628Y-192357200D01*
X264340057Y-192428628D01*
X264411485Y-192571485D01*
X264411485Y-192785771D01*
X264340057Y-192928628D01*
X264268628Y-193000057D01*
X264125771Y-193071485D01*
X263554342Y-193071485D01*
X265625771Y-193714342D02*
X265482914Y-193785771D01*
X265197200Y-193785771D01*
X265054342Y-193714342D01*
X264982914Y-193571485D01*
X264982914Y-193000057D01*
X265054342Y-192857200D01*
X265197200Y-192785771D01*
X265482914Y-192785771D01*
X265625771Y-192857200D01*
X265697200Y-193000057D01*
X265697200Y-193142914D01*
X264982914Y-193285771D01*
X266197200Y-192785771D02*
X266554342Y-193785771D01*
X266911485Y-192785771D01*
X267482914Y-193642914D02*
X267554342Y-193714342D01*
X267482914Y-193785771D01*
X267411485Y-193714342D01*
X267482914Y-193642914D01*
X267482914Y-193785771D01*
X267482914Y-192857200D02*
X267554342Y-192928628D01*
X267482914Y-193000057D01*
X267411485Y-192928628D01*
X267482914Y-192857200D01*
X267482914Y-193000057D01*
D10*
D11*
X178362914Y-193714342D02*
X178577200Y-193785771D01*
X178934342Y-193785771D01*
X179077200Y-193714342D01*
X179148628Y-193642914D01*
X179220057Y-193500057D01*
X179220057Y-193357200D01*
X179148628Y-193214342D01*
X179077200Y-193142914D01*
X178934342Y-193071485D01*
X178648628Y-193000057D01*
X178505771Y-192928628D01*
X178434342Y-192857200D01*
X178362914Y-192714342D01*
X178362914Y-192571485D01*
X178434342Y-192428628D01*
X178505771Y-192357200D01*
X178648628Y-192285771D01*
X179005771Y-192285771D01*
X179220057Y-192357200D01*
X179862914Y-193785771D02*
X179862914Y-192785771D01*
X179862914Y-192285771D02*
X179791485Y-192357200D01*
X179862914Y-192428628D01*
X179934342Y-192357200D01*
X179862914Y-192285771D01*
X179862914Y-192428628D01*
X180434342Y-192785771D02*
X181220057Y-192785771D01*
X180434342Y-193785771D01*
X181220057Y-193785771D01*
X182362914Y-193714342D02*
X182220057Y-193785771D01*
X181934342Y-193785771D01*
X181791485Y-193714342D01*
X181720057Y-193571485D01*
X181720057Y-193000057D01*
X181791485Y-192857200D01*
X181934342Y-192785771D01*
X182220057Y-192785771D01*
X182362914Y-192857200D01*
X182434342Y-193000057D01*
X182434342Y-193142914D01*
X181720057Y-193285771D01*
X183077200Y-193642914D02*
X183148628Y-193714342D01*
X183077200Y-193785771D01*
X183005771Y-193714342D01*
X183077200Y-193642914D01*
X183077200Y-193785771D01*
X183077200Y-192857200D02*
X183148628Y-192928628D01*
X183077200Y-193000057D01*
X183005771Y-192928628D01*
X183077200Y-192857200D01*
X183077200Y-193000057D01*
X184862914Y-193357200D02*
X185577200Y-193357200D01*
X184720057Y-193785771D02*
X185220057Y-192285771D01*
X185720057Y-193785771D01*
X186862914Y-192785771D02*
X186862914Y-193785771D01*
X186505771Y-192214342D02*
X186148628Y-193285771D01*
X187077200Y-193285771D01*
D10*
D11*
X263434342Y-196585771D02*
X263434342Y-195085771D01*
X264791485Y-196585771D02*
X264791485Y-195085771D01*
X264791485Y-196514342D02*
X264648628Y-196585771D01*
X264362914Y-196585771D01*
X264220057Y-196514342D01*
X264148628Y-196442914D01*
X264077200Y-196300057D01*
X264077200Y-195871485D01*
X264148628Y-195728628D01*
X264220057Y-195657200D01*
X264362914Y-195585771D01*
X264648628Y-195585771D01*
X264791485Y-195657200D01*
X265505771Y-196442914D02*
X265577200Y-196514342D01*
X265505771Y-196585771D01*
X265434342Y-196514342D01*
X265505771Y-196442914D01*
X265505771Y-196585771D01*
X265505771Y-195657200D02*
X265577200Y-195728628D01*
X265505771Y-195800057D01*
X265434342Y-195728628D01*
X265505771Y-195657200D01*
X265505771Y-195800057D01*
X268148628Y-196585771D02*
X267291485Y-196585771D01*
X267720057Y-196585771D02*
X267720057Y-195085771D01*
X267577200Y-195300057D01*
X267434342Y-195442914D01*
X267291485Y-195514342D01*
X269862914Y-195014342D02*
X268577200Y-196942914D01*
X271148628Y-196585771D02*
X270291485Y-196585771D01*
X270720057Y-196585771D02*
X270720057Y-195085771D01*
X270577200Y-195300057D01*
X270434342Y-195442914D01*
X270291485Y-195514342D01*
D10*
D11*
X177002200Y-187507200D02*
X285002200Y-187507200D01*
D10*
D13*
X178714580Y-188211961D02*
X179857438Y-188211961D01*
X179036009Y-190211961D02*
X179286009Y-188211961D01*
X180274104Y-190211961D02*
X180440771Y-188878628D01*
X180524104Y-188211961D02*
X180416961Y-188307200D01*
X180500295Y-188402438D01*
X180607438Y-188307200D01*
X180524104Y-188211961D01*
X180500295Y-188402438D01*
X181107438Y-188878628D02*
X181869342Y-188878628D01*
X181476485Y-188211961D02*
X181262200Y-189926247D01*
X181333628Y-190116723D01*
X181512200Y-190211961D01*
X181702676Y-190211961D01*
X182655057Y-190211961D02*
X182476485Y-190116723D01*
X182405057Y-189926247D01*
X182619342Y-188211961D01*
X184190771Y-190116723D02*
X183988390Y-190211961D01*
X183607438Y-190211961D01*
X183428866Y-190116723D01*
X183357438Y-189926247D01*
X183452676Y-189164342D01*
X183571723Y-188973866D01*
X183774104Y-188878628D01*
X184155057Y-188878628D01*
X184333628Y-188973866D01*
X184405057Y-189164342D01*
X184381247Y-189354819D01*
X183405057Y-189545295D01*
X185155057Y-190021485D02*
X185238390Y-190116723D01*
X185131247Y-190211961D01*
X185047914Y-190116723D01*
X185155057Y-190021485D01*
X185131247Y-190211961D01*
X185286009Y-188973866D02*
X185369342Y-189069104D01*
X185262200Y-189164342D01*
X185178866Y-189069104D01*
X185286009Y-188973866D01*
X185262200Y-189164342D01*
D10*
D11*
X178934342Y-185600057D02*
X178434342Y-185600057D01*
X178434342Y-186385771D02*
X178434342Y-184885771D01*
X179148628Y-184885771D01*
X179720057Y-186385771D02*
X179720057Y-185385771D01*
X179720057Y-184885771D02*
X179648628Y-184957200D01*
X179720057Y-185028628D01*
X179791485Y-184957200D01*
X179720057Y-184885771D01*
X179720057Y-185028628D01*
X180648628Y-186385771D02*
X180505771Y-186314342D01*
X180434342Y-186171485D01*
X180434342Y-184885771D01*
X181791485Y-186314342D02*
X181648628Y-186385771D01*
X181362914Y-186385771D01*
X181220057Y-186314342D01*
X181148628Y-186171485D01*
X181148628Y-185600057D01*
X181220057Y-185457200D01*
X181362914Y-185385771D01*
X181648628Y-185385771D01*
X181791485Y-185457200D01*
X181862914Y-185600057D01*
X181862914Y-185742914D01*
X181148628Y-185885771D01*
X182505771Y-186242914D02*
X182577200Y-186314342D01*
X182505771Y-186385771D01*
X182434342Y-186314342D01*
X182505771Y-186242914D01*
X182505771Y-186385771D01*
X182505771Y-185457200D02*
X182577200Y-185528628D01*
X182505771Y-185600057D01*
X182434342Y-185528628D01*
X182505771Y-185457200D01*
X182505771Y-185600057D01*
X184577200Y-186385771D02*
X184434342Y-186314342D01*
X184362914Y-186171485D01*
X184362914Y-184885771D01*
X185148628Y-186385771D02*
X185148628Y-185385771D01*
X185148628Y-185671485D02*
X185220057Y-185528628D01*
X185291485Y-185457200D01*
X185434342Y-185385771D01*
X185577200Y-185385771D01*
X186720057Y-186314342D02*
X186577200Y-186385771D01*
X186291485Y-186385771D01*
X186148628Y-186314342D01*
X186077200Y-186242914D01*
X186005771Y-186100057D01*
X186005771Y-185671485D01*
X186077200Y-185528628D01*
X186148628Y-185457200D01*
X186291485Y-185385771D01*
X186577200Y-185385771D01*
X186720057Y-185457200D01*
X187362914Y-186385771D02*
X187362914Y-184885771D01*
X188005771Y-186385771D02*
X188005771Y-185600057D01*
X187934342Y-185457200D01*
X187791485Y-185385771D01*
X187577200Y-185385771D01*
X187434342Y-185457200D01*
X187362914Y-185528628D01*
X189362914Y-186385771D02*
X189362914Y-185600057D01*
X189291485Y-185457200D01*
X189148628Y-185385771D01*
X188862914Y-185385771D01*
X188720057Y-185457200D01*
X189362914Y-186314342D02*
X189220057Y-186385771D01*
X188862914Y-186385771D01*
X188720057Y-186314342D01*
X188648628Y-186171485D01*
X188648628Y-186028628D01*
X188720057Y-185885771D01*
X188862914Y-185814342D01*
X189220057Y-185814342D01*
X189362914Y-185742914D01*
X190077200Y-185385771D02*
X190077200Y-186385771D01*
X190077200Y-185528628D02*
X190148628Y-185457200D01*
X190291485Y-185385771D01*
X190505771Y-185385771D01*
X190648628Y-185457200D01*
X190720057Y-185600057D01*
X190720057Y-186385771D01*
X192077200Y-185385771D02*
X192077200Y-186600057D01*
X192005771Y-186742914D01*
X191934342Y-186814342D01*
X191791485Y-186885771D01*
X191577200Y-186885771D01*
X191434342Y-186814342D01*
X192077200Y-186314342D02*
X191934342Y-186385771D01*
X191648628Y-186385771D01*
X191505771Y-186314342D01*
X191434342Y-186242914D01*
X191362914Y-186100057D01*
X191362914Y-185671485D01*
X191434342Y-185528628D01*
X191505771Y-185457200D01*
X191648628Y-185385771D01*
X191934342Y-185385771D01*
X192077200Y-185457200D01*
X193362914Y-186314342D02*
X193220057Y-186385771D01*
X192934342Y-186385771D01*
X192791485Y-186314342D01*
X192720057Y-186171485D01*
X192720057Y-185600057D01*
X192791485Y-185457200D01*
X192934342Y-185385771D01*
X193220057Y-185385771D01*
X193362914Y-185457200D01*
X193434342Y-185600057D01*
X193434342Y-185742914D01*
X192720057Y-185885771D01*
X194077200Y-186385771D02*
X194077200Y-185385771D01*
X194077200Y-185671485D02*
X194148628Y-185528628D01*
X194220057Y-185457200D01*
X194362914Y-185385771D01*
X194505771Y-185385771D01*
X195005771Y-186242914D02*
X195077200Y-186314342D01*
X195005771Y-186385771D01*
X194934342Y-186314342D01*
X195005771Y-186242914D01*
X195005771Y-186385771D01*
X195720057Y-186385771D02*
X195720057Y-184885771D01*
X195862914Y-185814342D02*
X196291485Y-186385771D01*
X196291485Y-185385771D02*
X195720057Y-185957200D01*
X196934342Y-186385771D02*
X196934342Y-185385771D01*
X196934342Y-184885771D02*
X196862914Y-184957200D01*
X196934342Y-185028628D01*
X197005771Y-184957200D01*
X196934342Y-184885771D01*
X196934342Y-185028628D01*
X198291485Y-186314342D02*
X198148628Y-186385771D01*
X197862914Y-186385771D01*
X197720057Y-186314342D01*
X197648628Y-186242914D01*
X197577200Y-186100057D01*
X197577200Y-185671485D01*
X197648628Y-185528628D01*
X197720057Y-185457200D01*
X197862914Y-185385771D01*
X198148628Y-185385771D01*
X198291485Y-185457200D01*
X199577200Y-186385771D02*
X199577200Y-185600057D01*
X199505771Y-185457200D01*
X199362914Y-185385771D01*
X199077200Y-185385771D01*
X198934342Y-185457200D01*
X199577200Y-186314342D02*
X199434342Y-186385771D01*
X199077200Y-186385771D01*
X198934342Y-186314342D01*
X198862914Y-186171485D01*
X198862914Y-186028628D01*
X198934342Y-185885771D01*
X199077200Y-185814342D01*
X199434342Y-185814342D01*
X199577200Y-185742914D01*
X200934342Y-186385771D02*
X200934342Y-184885771D01*
X200934342Y-186314342D02*
X200791485Y-186385771D01*
X200505771Y-186385771D01*
X200362914Y-186314342D01*
X200291485Y-186242914D01*
X200220057Y-186100057D01*
X200220057Y-185671485D01*
X200291485Y-185528628D01*
X200362914Y-185457200D01*
X200505771Y-185385771D01*
X200791485Y-185385771D01*
X200934342Y-185457200D01*
X201291485Y-186528628D02*
X202434342Y-186528628D01*
X202791485Y-185385771D02*
X202791485Y-186885771D01*
X202791485Y-185457200D02*
X202934342Y-185385771D01*
X203220057Y-185385771D01*
X203362914Y-185457200D01*
X203434342Y-185528628D01*
X203505771Y-185671485D01*
X203505771Y-186100057D01*
X203434342Y-186242914D01*
X203362914Y-186314342D01*
X203220057Y-186385771D01*
X202934342Y-186385771D01*
X202791485Y-186314342D01*
X204791485Y-186314342D02*
X204648628Y-186385771D01*
X204362914Y-186385771D01*
X204220057Y-186314342D01*
X204148628Y-186242914D01*
X204077200Y-186100057D01*
X204077200Y-185671485D01*
X204148628Y-185528628D01*
X204220057Y-185457200D01*
X204362914Y-185385771D01*
X204648628Y-185385771D01*
X204791485Y-185457200D01*
X205434342Y-186385771D02*
X205434342Y-184885771D01*
X205434342Y-185457200D02*
X205577200Y-185385771D01*
X205862914Y-185385771D01*
X206005771Y-185457200D01*
X206077200Y-185528628D01*
X206148628Y-185671485D01*
X206148628Y-186100057D01*
X206077200Y-186242914D01*
X206005771Y-186314342D01*
X205862914Y-186385771D01*
X205577200Y-186385771D01*
X205434342Y-186314342D01*
D10*
D11*
X177002200Y-181507200D02*
X285002200Y-181507200D01*
D10*
D11*
X178362914Y-183614342D02*
X178577200Y-183685771D01*
X178934342Y-183685771D01*
X179077200Y-183614342D01*
X179148628Y-183542914D01*
X179220057Y-183400057D01*
X179220057Y-183257200D01*
X179148628Y-183114342D01*
X179077200Y-183042914D01*
X178934342Y-182971485D01*
X178648628Y-182900057D01*
X178505771Y-182828628D01*
X178434342Y-182757200D01*
X178362914Y-182614342D01*
X178362914Y-182471485D01*
X178434342Y-182328628D01*
X178505771Y-182257200D01*
X178648628Y-182185771D01*
X179005771Y-182185771D01*
X179220057Y-182257200D01*
X179862914Y-183685771D02*
X179862914Y-182185771D01*
X180505771Y-183685771D02*
X180505771Y-182900057D01*
X180434342Y-182757200D01*
X180291485Y-182685771D01*
X180077200Y-182685771D01*
X179934342Y-182757200D01*
X179862914Y-182828628D01*
X181791485Y-183614342D02*
X181648628Y-183685771D01*
X181362914Y-183685771D01*
X181220057Y-183614342D01*
X181148628Y-183471485D01*
X181148628Y-182900057D01*
X181220057Y-182757200D01*
X181362914Y-182685771D01*
X181648628Y-182685771D01*
X181791485Y-182757200D01*
X181862914Y-182900057D01*
X181862914Y-183042914D01*
X181148628Y-183185771D01*
X183077200Y-183614342D02*
X182934342Y-183685771D01*
X182648628Y-183685771D01*
X182505771Y-183614342D01*
X182434342Y-183471485D01*
X182434342Y-182900057D01*
X182505771Y-182757200D01*
X182648628Y-182685771D01*
X182934342Y-182685771D01*
X183077200Y-182757200D01*
X183148628Y-182900057D01*
X183148628Y-183042914D01*
X182434342Y-183185771D01*
X183577200Y-182685771D02*
X184148628Y-182685771D01*
X183791485Y-182185771D02*
X183791485Y-183471485D01*
X183862914Y-183614342D01*
X184005771Y-183685771D01*
X184148628Y-183685771D01*
X184648628Y-183542914D02*
X184720057Y-183614342D01*
X184648628Y-183685771D01*
X184577200Y-183614342D01*
X184648628Y-183542914D01*
X184648628Y-183685771D01*
X184648628Y-182757200D02*
X184720057Y-182828628D01*
X184648628Y-182900057D01*
X184577200Y-182828628D01*
X184648628Y-182757200D01*
X184648628Y-182900057D01*
D10*
D12*
D10*
D11*
D10*
D11*
D10*
D11*
D10*
D11*
D10*
D11*
X197002200Y-191507200D02*
X197002200Y-194507200D01*
D10*
D11*
X261002200Y-191507200D02*
X261002200Y-198007200D01*
D14*
X61595000Y-141605000D02*
X61595000Y-63500000D01*
X61595000Y-63500000D02*
X120650000Y-63500000D01*
X112490000Y-66040000D02*
G75*
G03*
X112490000Y-66040000I-2000000J0D01*
G01*
X107442000Y-126746000D02*
G75*
G03*
X107442000Y-126746000I-2000000J0D01*
G01*
X68580000Y-67945000D02*
G75*
G03*
X68580000Y-67945000I-2000000J0D01*
G01*
X120650000Y-63500000D02*
X120650000Y-141605000D01*
X120650000Y-141605000D02*
X61595000Y-141605000D01*
D11*
%TO.C,Q6*%
X69286666Y-103048571D02*
X69429523Y-103096190D01*
X69477142Y-103143809D01*
X69524761Y-103239047D01*
X69524761Y-103381904D01*
X69477142Y-103477142D01*
X69429523Y-103524761D01*
X69334285Y-103572380D01*
X68953333Y-103572380D01*
X68953333Y-102572380D01*
X69286666Y-102572380D01*
X69381904Y-102620000D01*
X69429523Y-102667619D01*
X69477142Y-102762857D01*
X69477142Y-102858095D01*
X69429523Y-102953333D01*
X69381904Y-103000952D01*
X69286666Y-103048571D01*
X68953333Y-103048571D01*
X69905714Y-103524761D02*
X70048571Y-103572380D01*
X70286666Y-103572380D01*
X70381904Y-103524761D01*
X70429523Y-103477142D01*
X70477142Y-103381904D01*
X70477142Y-103286666D01*
X70429523Y-103191428D01*
X70381904Y-103143809D01*
X70286666Y-103096190D01*
X70096190Y-103048571D01*
X70000952Y-103000952D01*
X69953333Y-102953333D01*
X69905714Y-102858095D01*
X69905714Y-102762857D01*
X69953333Y-102667619D01*
X70000952Y-102620000D01*
X70096190Y-102572380D01*
X70334285Y-102572380D01*
X70477142Y-102620000D01*
X71429523Y-103572380D02*
X70858095Y-103572380D01*
X71143809Y-103572380D02*
X71143809Y-102572380D01*
X71048571Y-102715238D01*
X70953333Y-102810476D01*
X70858095Y-102858095D01*
X71762857Y-102572380D02*
X72429523Y-102572380D01*
X72000952Y-103572380D01*
X73000952Y-102572380D02*
X73096190Y-102572380D01*
X73191428Y-102620000D01*
X73239047Y-102667619D01*
X73286666Y-102762857D01*
X73334285Y-102953333D01*
X73334285Y-103191428D01*
X73286666Y-103381904D01*
X73239047Y-103477142D01*
X73191428Y-103524761D01*
X73096190Y-103572380D01*
X73000952Y-103572380D01*
X72905714Y-103524761D01*
X72858095Y-103477142D01*
X72810476Y-103381904D01*
X72762857Y-103191428D01*
X72762857Y-102953333D01*
X72810476Y-102762857D01*
X72858095Y-102667619D01*
X72905714Y-102620000D01*
X73000952Y-102572380D01*
X71024761Y-100877619D02*
X70929523Y-100830000D01*
X70834285Y-100734761D01*
X70691428Y-100591904D01*
X70596190Y-100544285D01*
X70500952Y-100544285D01*
X70548571Y-100782380D02*
X70453333Y-100734761D01*
X70358095Y-100639523D01*
X70310476Y-100449047D01*
X70310476Y-100115714D01*
X70358095Y-99925238D01*
X70453333Y-99830000D01*
X70548571Y-99782380D01*
X70739047Y-99782380D01*
X70834285Y-99830000D01*
X70929523Y-99925238D01*
X70977142Y-100115714D01*
X70977142Y-100449047D01*
X70929523Y-100639523D01*
X70834285Y-100734761D01*
X70739047Y-100782380D01*
X70548571Y-100782380D01*
X71834285Y-99782380D02*
X71643809Y-99782380D01*
X71548571Y-99830000D01*
X71500952Y-99877619D01*
X71405714Y-100020476D01*
X71358095Y-100210952D01*
X71358095Y-100591904D01*
X71405714Y-100687142D01*
X71453333Y-100734761D01*
X71548571Y-100782380D01*
X71739047Y-100782380D01*
X71834285Y-100734761D01*
X71881904Y-100687142D01*
X71929523Y-100591904D01*
X71929523Y-100353809D01*
X71881904Y-100258571D01*
X71834285Y-100210952D01*
X71739047Y-100163333D01*
X71548571Y-100163333D01*
X71453333Y-100210952D01*
X71405714Y-100258571D01*
X71358095Y-100353809D01*
%TO.C,Q5*%
X81351666Y-97333571D02*
X81494523Y-97381190D01*
X81542142Y-97428809D01*
X81589761Y-97524047D01*
X81589761Y-97666904D01*
X81542142Y-97762142D01*
X81494523Y-97809761D01*
X81399285Y-97857380D01*
X81018333Y-97857380D01*
X81018333Y-96857380D01*
X81351666Y-96857380D01*
X81446904Y-96905000D01*
X81494523Y-96952619D01*
X81542142Y-97047857D01*
X81542142Y-97143095D01*
X81494523Y-97238333D01*
X81446904Y-97285952D01*
X81351666Y-97333571D01*
X81018333Y-97333571D01*
X81970714Y-97809761D02*
X82113571Y-97857380D01*
X82351666Y-97857380D01*
X82446904Y-97809761D01*
X82494523Y-97762142D01*
X82542142Y-97666904D01*
X82542142Y-97571666D01*
X82494523Y-97476428D01*
X82446904Y-97428809D01*
X82351666Y-97381190D01*
X82161190Y-97333571D01*
X82065952Y-97285952D01*
X82018333Y-97238333D01*
X81970714Y-97143095D01*
X81970714Y-97047857D01*
X82018333Y-96952619D01*
X82065952Y-96905000D01*
X82161190Y-96857380D01*
X82399285Y-96857380D01*
X82542142Y-96905000D01*
X83494523Y-97857380D02*
X82923095Y-97857380D01*
X83208809Y-97857380D02*
X83208809Y-96857380D01*
X83113571Y-97000238D01*
X83018333Y-97095476D01*
X82923095Y-97143095D01*
X83827857Y-96857380D02*
X84494523Y-96857380D01*
X84065952Y-97857380D01*
X85065952Y-96857380D02*
X85161190Y-96857380D01*
X85256428Y-96905000D01*
X85304047Y-96952619D01*
X85351666Y-97047857D01*
X85399285Y-97238333D01*
X85399285Y-97476428D01*
X85351666Y-97666904D01*
X85304047Y-97762142D01*
X85256428Y-97809761D01*
X85161190Y-97857380D01*
X85065952Y-97857380D01*
X84970714Y-97809761D01*
X84923095Y-97762142D01*
X84875476Y-97666904D01*
X84827857Y-97476428D01*
X84827857Y-97238333D01*
X84875476Y-97047857D01*
X84923095Y-96952619D01*
X84970714Y-96905000D01*
X85065952Y-96857380D01*
X83089761Y-95162619D02*
X82994523Y-95115000D01*
X82899285Y-95019761D01*
X82756428Y-94876904D01*
X82661190Y-94829285D01*
X82565952Y-94829285D01*
X82613571Y-95067380D02*
X82518333Y-95019761D01*
X82423095Y-94924523D01*
X82375476Y-94734047D01*
X82375476Y-94400714D01*
X82423095Y-94210238D01*
X82518333Y-94115000D01*
X82613571Y-94067380D01*
X82804047Y-94067380D01*
X82899285Y-94115000D01*
X82994523Y-94210238D01*
X83042142Y-94400714D01*
X83042142Y-94734047D01*
X82994523Y-94924523D01*
X82899285Y-95019761D01*
X82804047Y-95067380D01*
X82613571Y-95067380D01*
X83946904Y-94067380D02*
X83470714Y-94067380D01*
X83423095Y-94543571D01*
X83470714Y-94495952D01*
X83565952Y-94448333D01*
X83804047Y-94448333D01*
X83899285Y-94495952D01*
X83946904Y-94543571D01*
X83994523Y-94638809D01*
X83994523Y-94876904D01*
X83946904Y-94972142D01*
X83899285Y-95019761D01*
X83804047Y-95067380D01*
X83565952Y-95067380D01*
X83470714Y-95019761D01*
X83423095Y-94972142D01*
%TO.C,Q4*%
X75636666Y-97333571D02*
X75779523Y-97381190D01*
X75827142Y-97428809D01*
X75874761Y-97524047D01*
X75874761Y-97666904D01*
X75827142Y-97762142D01*
X75779523Y-97809761D01*
X75684285Y-97857380D01*
X75303333Y-97857380D01*
X75303333Y-96857380D01*
X75636666Y-96857380D01*
X75731904Y-96905000D01*
X75779523Y-96952619D01*
X75827142Y-97047857D01*
X75827142Y-97143095D01*
X75779523Y-97238333D01*
X75731904Y-97285952D01*
X75636666Y-97333571D01*
X75303333Y-97333571D01*
X76255714Y-97809761D02*
X76398571Y-97857380D01*
X76636666Y-97857380D01*
X76731904Y-97809761D01*
X76779523Y-97762142D01*
X76827142Y-97666904D01*
X76827142Y-97571666D01*
X76779523Y-97476428D01*
X76731904Y-97428809D01*
X76636666Y-97381190D01*
X76446190Y-97333571D01*
X76350952Y-97285952D01*
X76303333Y-97238333D01*
X76255714Y-97143095D01*
X76255714Y-97047857D01*
X76303333Y-96952619D01*
X76350952Y-96905000D01*
X76446190Y-96857380D01*
X76684285Y-96857380D01*
X76827142Y-96905000D01*
X77779523Y-97857380D02*
X77208095Y-97857380D01*
X77493809Y-97857380D02*
X77493809Y-96857380D01*
X77398571Y-97000238D01*
X77303333Y-97095476D01*
X77208095Y-97143095D01*
X78112857Y-96857380D02*
X78779523Y-96857380D01*
X78350952Y-97857380D01*
X79350952Y-96857380D02*
X79446190Y-96857380D01*
X79541428Y-96905000D01*
X79589047Y-96952619D01*
X79636666Y-97047857D01*
X79684285Y-97238333D01*
X79684285Y-97476428D01*
X79636666Y-97666904D01*
X79589047Y-97762142D01*
X79541428Y-97809761D01*
X79446190Y-97857380D01*
X79350952Y-97857380D01*
X79255714Y-97809761D01*
X79208095Y-97762142D01*
X79160476Y-97666904D01*
X79112857Y-97476428D01*
X79112857Y-97238333D01*
X79160476Y-97047857D01*
X79208095Y-96952619D01*
X79255714Y-96905000D01*
X79350952Y-96857380D01*
X77374761Y-95162619D02*
X77279523Y-95115000D01*
X77184285Y-95019761D01*
X77041428Y-94876904D01*
X76946190Y-94829285D01*
X76850952Y-94829285D01*
X76898571Y-95067380D02*
X76803333Y-95019761D01*
X76708095Y-94924523D01*
X76660476Y-94734047D01*
X76660476Y-94400714D01*
X76708095Y-94210238D01*
X76803333Y-94115000D01*
X76898571Y-94067380D01*
X77089047Y-94067380D01*
X77184285Y-94115000D01*
X77279523Y-94210238D01*
X77327142Y-94400714D01*
X77327142Y-94734047D01*
X77279523Y-94924523D01*
X77184285Y-95019761D01*
X77089047Y-95067380D01*
X76898571Y-95067380D01*
X78184285Y-94400714D02*
X78184285Y-95067380D01*
X77946190Y-94019761D02*
X77708095Y-94734047D01*
X78327142Y-94734047D01*
%TO.C,Q3*%
X69921666Y-97333571D02*
X70064523Y-97381190D01*
X70112142Y-97428809D01*
X70159761Y-97524047D01*
X70159761Y-97666904D01*
X70112142Y-97762142D01*
X70064523Y-97809761D01*
X69969285Y-97857380D01*
X69588333Y-97857380D01*
X69588333Y-96857380D01*
X69921666Y-96857380D01*
X70016904Y-96905000D01*
X70064523Y-96952619D01*
X70112142Y-97047857D01*
X70112142Y-97143095D01*
X70064523Y-97238333D01*
X70016904Y-97285952D01*
X69921666Y-97333571D01*
X69588333Y-97333571D01*
X70540714Y-97809761D02*
X70683571Y-97857380D01*
X70921666Y-97857380D01*
X71016904Y-97809761D01*
X71064523Y-97762142D01*
X71112142Y-97666904D01*
X71112142Y-97571666D01*
X71064523Y-97476428D01*
X71016904Y-97428809D01*
X70921666Y-97381190D01*
X70731190Y-97333571D01*
X70635952Y-97285952D01*
X70588333Y-97238333D01*
X70540714Y-97143095D01*
X70540714Y-97047857D01*
X70588333Y-96952619D01*
X70635952Y-96905000D01*
X70731190Y-96857380D01*
X70969285Y-96857380D01*
X71112142Y-96905000D01*
X72064523Y-97857380D02*
X71493095Y-97857380D01*
X71778809Y-97857380D02*
X71778809Y-96857380D01*
X71683571Y-97000238D01*
X71588333Y-97095476D01*
X71493095Y-97143095D01*
X72397857Y-96857380D02*
X73064523Y-96857380D01*
X72635952Y-97857380D01*
X73635952Y-96857380D02*
X73731190Y-96857380D01*
X73826428Y-96905000D01*
X73874047Y-96952619D01*
X73921666Y-97047857D01*
X73969285Y-97238333D01*
X73969285Y-97476428D01*
X73921666Y-97666904D01*
X73874047Y-97762142D01*
X73826428Y-97809761D01*
X73731190Y-97857380D01*
X73635952Y-97857380D01*
X73540714Y-97809761D01*
X73493095Y-97762142D01*
X73445476Y-97666904D01*
X73397857Y-97476428D01*
X73397857Y-97238333D01*
X73445476Y-97047857D01*
X73493095Y-96952619D01*
X73540714Y-96905000D01*
X73635952Y-96857380D01*
X71659761Y-95162619D02*
X71564523Y-95115000D01*
X71469285Y-95019761D01*
X71326428Y-94876904D01*
X71231190Y-94829285D01*
X71135952Y-94829285D01*
X71183571Y-95067380D02*
X71088333Y-95019761D01*
X70993095Y-94924523D01*
X70945476Y-94734047D01*
X70945476Y-94400714D01*
X70993095Y-94210238D01*
X71088333Y-94115000D01*
X71183571Y-94067380D01*
X71374047Y-94067380D01*
X71469285Y-94115000D01*
X71564523Y-94210238D01*
X71612142Y-94400714D01*
X71612142Y-94734047D01*
X71564523Y-94924523D01*
X71469285Y-95019761D01*
X71374047Y-95067380D01*
X71183571Y-95067380D01*
X71945476Y-94067380D02*
X72564523Y-94067380D01*
X72231190Y-94448333D01*
X72374047Y-94448333D01*
X72469285Y-94495952D01*
X72516904Y-94543571D01*
X72564523Y-94638809D01*
X72564523Y-94876904D01*
X72516904Y-94972142D01*
X72469285Y-95019761D01*
X72374047Y-95067380D01*
X72088333Y-95067380D01*
X71993095Y-95019761D01*
X71945476Y-94972142D01*
%TO.C,Q1*%
X101913571Y-71683333D02*
X101961190Y-71540476D01*
X102008809Y-71492857D01*
X102104047Y-71445238D01*
X102246904Y-71445238D01*
X102342142Y-71492857D01*
X102389761Y-71540476D01*
X102437380Y-71635714D01*
X102437380Y-72016666D01*
X101437380Y-72016666D01*
X101437380Y-71683333D01*
X101485000Y-71588095D01*
X101532619Y-71540476D01*
X101627857Y-71492857D01*
X101723095Y-71492857D01*
X101818333Y-71540476D01*
X101865952Y-71588095D01*
X101913571Y-71683333D01*
X101913571Y-72016666D01*
X102389761Y-71064285D02*
X102437380Y-70921428D01*
X102437380Y-70683333D01*
X102389761Y-70588095D01*
X102342142Y-70540476D01*
X102246904Y-70492857D01*
X102151666Y-70492857D01*
X102056428Y-70540476D01*
X102008809Y-70588095D01*
X101961190Y-70683333D01*
X101913571Y-70873809D01*
X101865952Y-70969047D01*
X101818333Y-71016666D01*
X101723095Y-71064285D01*
X101627857Y-71064285D01*
X101532619Y-71016666D01*
X101485000Y-70969047D01*
X101437380Y-70873809D01*
X101437380Y-70635714D01*
X101485000Y-70492857D01*
X102437380Y-69540476D02*
X102437380Y-70111904D01*
X102437380Y-69826190D02*
X101437380Y-69826190D01*
X101580238Y-69921428D01*
X101675476Y-70016666D01*
X101723095Y-70111904D01*
X101437380Y-69207142D02*
X101437380Y-68540476D01*
X102437380Y-68969047D01*
X101437380Y-67969047D02*
X101437380Y-67873809D01*
X101485000Y-67778571D01*
X101532619Y-67730952D01*
X101627857Y-67683333D01*
X101818333Y-67635714D01*
X102056428Y-67635714D01*
X102246904Y-67683333D01*
X102342142Y-67730952D01*
X102389761Y-67778571D01*
X102437380Y-67873809D01*
X102437380Y-67969047D01*
X102389761Y-68064285D01*
X102342142Y-68111904D01*
X102246904Y-68159523D01*
X102056428Y-68207142D01*
X101818333Y-68207142D01*
X101627857Y-68159523D01*
X101532619Y-68111904D01*
X101485000Y-68064285D01*
X101437380Y-67969047D01*
X105322619Y-69945238D02*
X105275000Y-70040476D01*
X105179761Y-70135714D01*
X105036904Y-70278571D01*
X104989285Y-70373809D01*
X104989285Y-70469047D01*
X105227380Y-70421428D02*
X105179761Y-70516666D01*
X105084523Y-70611904D01*
X104894047Y-70659523D01*
X104560714Y-70659523D01*
X104370238Y-70611904D01*
X104275000Y-70516666D01*
X104227380Y-70421428D01*
X104227380Y-70230952D01*
X104275000Y-70135714D01*
X104370238Y-70040476D01*
X104560714Y-69992857D01*
X104894047Y-69992857D01*
X105084523Y-70040476D01*
X105179761Y-70135714D01*
X105227380Y-70230952D01*
X105227380Y-70421428D01*
X105227380Y-69040476D02*
X105227380Y-69611904D01*
X105227380Y-69326190D02*
X104227380Y-69326190D01*
X104370238Y-69421428D01*
X104465476Y-69516666D01*
X104513095Y-69611904D01*
%TO.C,C1*%
X67992380Y-99285904D02*
X67992380Y-98666857D01*
X68373333Y-99000190D01*
X68373333Y-98857333D01*
X68420952Y-98762095D01*
X68468571Y-98714476D01*
X68563809Y-98666857D01*
X68801904Y-98666857D01*
X68897142Y-98714476D01*
X68944761Y-98762095D01*
X68992380Y-98857333D01*
X68992380Y-99143047D01*
X68944761Y-99238285D01*
X68897142Y-99285904D01*
X67992380Y-98333523D02*
X67992380Y-97714476D01*
X68373333Y-98047809D01*
X68373333Y-97904952D01*
X68420952Y-97809714D01*
X68468571Y-97762095D01*
X68563809Y-97714476D01*
X68801904Y-97714476D01*
X68897142Y-97762095D01*
X68944761Y-97809714D01*
X68992380Y-97904952D01*
X68992380Y-98190666D01*
X68944761Y-98285904D01*
X68897142Y-98333523D01*
X68325714Y-97285904D02*
X69325714Y-97285904D01*
X68373333Y-97285904D02*
X68325714Y-97190666D01*
X68325714Y-97000190D01*
X68373333Y-96904952D01*
X68420952Y-96857333D01*
X68516190Y-96809714D01*
X68801904Y-96809714D01*
X68897142Y-96857333D01*
X68944761Y-96904952D01*
X68992380Y-97000190D01*
X68992380Y-97190666D01*
X68944761Y-97285904D01*
X66397142Y-98190666D02*
X66444761Y-98238285D01*
X66492380Y-98381142D01*
X66492380Y-98476380D01*
X66444761Y-98619238D01*
X66349523Y-98714476D01*
X66254285Y-98762095D01*
X66063809Y-98809714D01*
X65920952Y-98809714D01*
X65730476Y-98762095D01*
X65635238Y-98714476D01*
X65540000Y-98619238D01*
X65492380Y-98476380D01*
X65492380Y-98381142D01*
X65540000Y-98238285D01*
X65587619Y-98190666D01*
X66492380Y-97238285D02*
X66492380Y-97809714D01*
X66492380Y-97524000D02*
X65492380Y-97524000D01*
X65635238Y-97619238D01*
X65730476Y-97714476D01*
X65778095Y-97809714D01*
%TO.C,C2*%
X62992380Y-77441904D02*
X62992380Y-76822857D01*
X63373333Y-77156190D01*
X63373333Y-77013333D01*
X63420952Y-76918095D01*
X63468571Y-76870476D01*
X63563809Y-76822857D01*
X63801904Y-76822857D01*
X63897142Y-76870476D01*
X63944761Y-76918095D01*
X63992380Y-77013333D01*
X63992380Y-77299047D01*
X63944761Y-77394285D01*
X63897142Y-77441904D01*
X62992380Y-76489523D02*
X62992380Y-75870476D01*
X63373333Y-76203809D01*
X63373333Y-76060952D01*
X63420952Y-75965714D01*
X63468571Y-75918095D01*
X63563809Y-75870476D01*
X63801904Y-75870476D01*
X63897142Y-75918095D01*
X63944761Y-75965714D01*
X63992380Y-76060952D01*
X63992380Y-76346666D01*
X63944761Y-76441904D01*
X63897142Y-76489523D01*
X63325714Y-75441904D02*
X64325714Y-75441904D01*
X63373333Y-75441904D02*
X63325714Y-75346666D01*
X63325714Y-75156190D01*
X63373333Y-75060952D01*
X63420952Y-75013333D01*
X63516190Y-74965714D01*
X63801904Y-74965714D01*
X63897142Y-75013333D01*
X63944761Y-75060952D01*
X63992380Y-75156190D01*
X63992380Y-75346666D01*
X63944761Y-75441904D01*
X66397142Y-76346666D02*
X66444761Y-76394285D01*
X66492380Y-76537142D01*
X66492380Y-76632380D01*
X66444761Y-76775238D01*
X66349523Y-76870476D01*
X66254285Y-76918095D01*
X66063809Y-76965714D01*
X65920952Y-76965714D01*
X65730476Y-76918095D01*
X65635238Y-76870476D01*
X65540000Y-76775238D01*
X65492380Y-76632380D01*
X65492380Y-76537142D01*
X65540000Y-76394285D01*
X65587619Y-76346666D01*
X65587619Y-75965714D02*
X65540000Y-75918095D01*
X65492380Y-75822857D01*
X65492380Y-75584761D01*
X65540000Y-75489523D01*
X65587619Y-75441904D01*
X65682857Y-75394285D01*
X65778095Y-75394285D01*
X65920952Y-75441904D01*
X66492380Y-76013333D01*
X66492380Y-75394285D01*
%TO.C,R1*%
X106017380Y-88015952D02*
X106017380Y-88492142D01*
X106493571Y-88539761D01*
X106445952Y-88492142D01*
X106398333Y-88396904D01*
X106398333Y-88158809D01*
X106445952Y-88063571D01*
X106493571Y-88015952D01*
X106588809Y-87968333D01*
X106826904Y-87968333D01*
X106922142Y-88015952D01*
X106969761Y-88063571D01*
X107017380Y-88158809D01*
X107017380Y-88396904D01*
X106969761Y-88492142D01*
X106922142Y-88539761D01*
X106922142Y-87539761D02*
X106969761Y-87492142D01*
X107017380Y-87539761D01*
X106969761Y-87587380D01*
X106922142Y-87539761D01*
X107017380Y-87539761D01*
X106017380Y-86635000D02*
X106017380Y-86825476D01*
X106065000Y-86920714D01*
X106112619Y-86968333D01*
X106255476Y-87063571D01*
X106445952Y-87111190D01*
X106826904Y-87111190D01*
X106922142Y-87063571D01*
X106969761Y-87015952D01*
X107017380Y-86920714D01*
X107017380Y-86730238D01*
X106969761Y-86635000D01*
X106922142Y-86587380D01*
X106826904Y-86539761D01*
X106588809Y-86539761D01*
X106493571Y-86587380D01*
X106445952Y-86635000D01*
X106398333Y-86730238D01*
X106398333Y-86920714D01*
X106445952Y-87015952D01*
X106493571Y-87063571D01*
X106588809Y-87111190D01*
X107017380Y-86111190D02*
X106017380Y-86111190D01*
X106636428Y-86015952D02*
X107017380Y-85730238D01*
X106350714Y-85730238D02*
X106731666Y-86111190D01*
D15*
X105100714Y-88385000D02*
X104757857Y-88625000D01*
X105100714Y-88796428D02*
X104380714Y-88796428D01*
X104380714Y-88522142D01*
X104415000Y-88453571D01*
X104449285Y-88419285D01*
X104517857Y-88385000D01*
X104620714Y-88385000D01*
X104689285Y-88419285D01*
X104723571Y-88453571D01*
X104757857Y-88522142D01*
X104757857Y-88796428D01*
X105100714Y-87699285D02*
X105100714Y-88110714D01*
X105100714Y-87905000D02*
X104380714Y-87905000D01*
X104483571Y-87973571D01*
X104552142Y-88042142D01*
X104586428Y-88110714D01*
D11*
%TO.C,R2*%
X107017380Y-76730238D02*
X107017380Y-77301666D01*
X107017380Y-77015952D02*
X106017380Y-77015952D01*
X106160238Y-77111190D01*
X106255476Y-77206428D01*
X106303095Y-77301666D01*
X106017380Y-76111190D02*
X106017380Y-76015952D01*
X106065000Y-75920714D01*
X106112619Y-75873095D01*
X106207857Y-75825476D01*
X106398333Y-75777857D01*
X106636428Y-75777857D01*
X106826904Y-75825476D01*
X106922142Y-75873095D01*
X106969761Y-75920714D01*
X107017380Y-76015952D01*
X107017380Y-76111190D01*
X106969761Y-76206428D01*
X106922142Y-76254047D01*
X106826904Y-76301666D01*
X106636428Y-76349285D01*
X106398333Y-76349285D01*
X106207857Y-76301666D01*
X106112619Y-76254047D01*
X106065000Y-76206428D01*
X106017380Y-76111190D01*
X107017380Y-75349285D02*
X106017380Y-75349285D01*
X106636428Y-75254047D02*
X107017380Y-74968333D01*
X106350714Y-74968333D02*
X106731666Y-75349285D01*
D15*
X105100714Y-78225000D02*
X104757857Y-78465000D01*
X105100714Y-78636428D02*
X104380714Y-78636428D01*
X104380714Y-78362142D01*
X104415000Y-78293571D01*
X104449285Y-78259285D01*
X104517857Y-78225000D01*
X104620714Y-78225000D01*
X104689285Y-78259285D01*
X104723571Y-78293571D01*
X104757857Y-78362142D01*
X104757857Y-78636428D01*
X104449285Y-77950714D02*
X104415000Y-77916428D01*
X104380714Y-77847857D01*
X104380714Y-77676428D01*
X104415000Y-77607857D01*
X104449285Y-77573571D01*
X104517857Y-77539285D01*
X104586428Y-77539285D01*
X104689285Y-77573571D01*
X105100714Y-77985000D01*
X105100714Y-77539285D01*
D11*
%TO.C,U1*%
X69053571Y-63761666D02*
X69529761Y-63761666D01*
X68958333Y-64047380D02*
X69291666Y-63047380D01*
X69625000Y-64047380D01*
X69815476Y-63047380D02*
X70386904Y-63047380D01*
X70101190Y-64047380D02*
X70101190Y-63047380D01*
X70863095Y-63475952D02*
X70767857Y-63428333D01*
X70720238Y-63380714D01*
X70672619Y-63285476D01*
X70672619Y-63237857D01*
X70720238Y-63142619D01*
X70767857Y-63095000D01*
X70863095Y-63047380D01*
X71053571Y-63047380D01*
X71148809Y-63095000D01*
X71196428Y-63142619D01*
X71244047Y-63237857D01*
X71244047Y-63285476D01*
X71196428Y-63380714D01*
X71148809Y-63428333D01*
X71053571Y-63475952D01*
X70863095Y-63475952D01*
X70767857Y-63523571D01*
X70720238Y-63571190D01*
X70672619Y-63666428D01*
X70672619Y-63856904D01*
X70720238Y-63952142D01*
X70767857Y-63999761D01*
X70863095Y-64047380D01*
X71053571Y-64047380D01*
X71148809Y-63999761D01*
X71196428Y-63952142D01*
X71244047Y-63856904D01*
X71244047Y-63666428D01*
X71196428Y-63571190D01*
X71148809Y-63523571D01*
X71053571Y-63475952D01*
X71720238Y-64047380D02*
X71910714Y-64047380D01*
X72005952Y-63999761D01*
X72053571Y-63952142D01*
X72148809Y-63809285D01*
X72196428Y-63618809D01*
X72196428Y-63237857D01*
X72148809Y-63142619D01*
X72101190Y-63095000D01*
X72005952Y-63047380D01*
X71815476Y-63047380D01*
X71720238Y-63095000D01*
X71672619Y-63142619D01*
X71625000Y-63237857D01*
X71625000Y-63475952D01*
X71672619Y-63571190D01*
X71720238Y-63618809D01*
X71815476Y-63666428D01*
X72005952Y-63666428D01*
X72101190Y-63618809D01*
X72148809Y-63571190D01*
X72196428Y-63475952D01*
X73196428Y-63952142D02*
X73148809Y-63999761D01*
X73005952Y-64047380D01*
X72910714Y-64047380D01*
X72767857Y-63999761D01*
X72672619Y-63904523D01*
X72625000Y-63809285D01*
X72577380Y-63618809D01*
X72577380Y-63475952D01*
X72625000Y-63285476D01*
X72672619Y-63190238D01*
X72767857Y-63095000D01*
X72910714Y-63047380D01*
X73005952Y-63047380D01*
X73148809Y-63095000D01*
X73196428Y-63142619D01*
X74053571Y-63380714D02*
X74053571Y-64047380D01*
X73815476Y-62999761D02*
X73577380Y-63714047D01*
X74196428Y-63714047D01*
X74767857Y-63047380D02*
X74863095Y-63047380D01*
X74958333Y-63095000D01*
X75005952Y-63142619D01*
X75053571Y-63237857D01*
X75101190Y-63428333D01*
X75101190Y-63666428D01*
X75053571Y-63856904D01*
X75005952Y-63952142D01*
X74958333Y-63999761D01*
X74863095Y-64047380D01*
X74767857Y-64047380D01*
X74672619Y-63999761D01*
X74625000Y-63952142D01*
X74577380Y-63856904D01*
X74529761Y-63666428D01*
X74529761Y-63428333D01*
X74577380Y-63237857D01*
X74625000Y-63142619D01*
X74672619Y-63095000D01*
X74767857Y-63047380D01*
X76005952Y-63047380D02*
X75529761Y-63047380D01*
X75482142Y-63523571D01*
X75529761Y-63475952D01*
X75625000Y-63428333D01*
X75863095Y-63428333D01*
X75958333Y-63475952D01*
X76005952Y-63523571D01*
X76053571Y-63618809D01*
X76053571Y-63856904D01*
X76005952Y-63952142D01*
X75958333Y-63999761D01*
X75863095Y-64047380D01*
X75625000Y-64047380D01*
X75529761Y-63999761D01*
X75482142Y-63952142D01*
X77005952Y-64047380D02*
X76434523Y-64047380D01*
X76720238Y-64047380D02*
X76720238Y-63047380D01*
X76625000Y-63190238D01*
X76529761Y-63285476D01*
X76434523Y-63333095D01*
X77434523Y-63666428D02*
X78196428Y-63666428D01*
X78625000Y-63142619D02*
X78672619Y-63095000D01*
X78767857Y-63047380D01*
X79005952Y-63047380D01*
X79101190Y-63095000D01*
X79148809Y-63142619D01*
X79196428Y-63237857D01*
X79196428Y-63333095D01*
X79148809Y-63475952D01*
X78577380Y-64047380D01*
X79196428Y-64047380D01*
X80053571Y-63380714D02*
X80053571Y-64047380D01*
X79815476Y-62999761D02*
X79577380Y-63714047D01*
X80196428Y-63714047D01*
X80577380Y-64047380D02*
X80577380Y-63047380D01*
X80958333Y-63047380D01*
X81053571Y-63095000D01*
X81101190Y-63142619D01*
X81148809Y-63237857D01*
X81148809Y-63380714D01*
X81101190Y-63475952D01*
X81053571Y-63523571D01*
X80958333Y-63571190D01*
X80577380Y-63571190D01*
X81577380Y-63047380D02*
X81577380Y-63856904D01*
X81625000Y-63952142D01*
X81672619Y-63999761D01*
X81767857Y-64047380D01*
X81958333Y-64047380D01*
X82053571Y-63999761D01*
X82101190Y-63952142D01*
X82148809Y-63856904D01*
X82148809Y-63047380D01*
X74168095Y-76922380D02*
X74168095Y-77731904D01*
X74215714Y-77827142D01*
X74263333Y-77874761D01*
X74358571Y-77922380D01*
X74549047Y-77922380D01*
X74644285Y-77874761D01*
X74691904Y-77827142D01*
X74739523Y-77731904D01*
X74739523Y-76922380D01*
X75739523Y-77922380D02*
X75168095Y-77922380D01*
X75453809Y-77922380D02*
X75453809Y-76922380D01*
X75358571Y-77065238D01*
X75263333Y-77160476D01*
X75168095Y-77208095D01*
%TO.C,U2*%
X80717047Y-65730380D02*
X80240857Y-65730380D01*
X80240857Y-64730380D01*
X81050380Y-65730380D02*
X81050380Y-64730380D01*
X81383714Y-65444666D01*
X81717047Y-64730380D01*
X81717047Y-65730380D01*
X82098000Y-64730380D02*
X82764666Y-64730380D01*
X82336095Y-65730380D01*
X83288476Y-65158952D02*
X83193238Y-65111333D01*
X83145619Y-65063714D01*
X83098000Y-64968476D01*
X83098000Y-64920857D01*
X83145619Y-64825619D01*
X83193238Y-64778000D01*
X83288476Y-64730380D01*
X83478952Y-64730380D01*
X83574190Y-64778000D01*
X83621809Y-64825619D01*
X83669428Y-64920857D01*
X83669428Y-64968476D01*
X83621809Y-65063714D01*
X83574190Y-65111333D01*
X83478952Y-65158952D01*
X83288476Y-65158952D01*
X83193238Y-65206571D01*
X83145619Y-65254190D01*
X83098000Y-65349428D01*
X83098000Y-65539904D01*
X83145619Y-65635142D01*
X83193238Y-65682761D01*
X83288476Y-65730380D01*
X83478952Y-65730380D01*
X83574190Y-65682761D01*
X83621809Y-65635142D01*
X83669428Y-65539904D01*
X83669428Y-65349428D01*
X83621809Y-65254190D01*
X83574190Y-65206571D01*
X83478952Y-65158952D01*
X84288476Y-64730380D02*
X84383714Y-64730380D01*
X84478952Y-64778000D01*
X84526571Y-64825619D01*
X84574190Y-64920857D01*
X84621809Y-65111333D01*
X84621809Y-65349428D01*
X84574190Y-65539904D01*
X84526571Y-65635142D01*
X84478952Y-65682761D01*
X84383714Y-65730380D01*
X84288476Y-65730380D01*
X84193238Y-65682761D01*
X84145619Y-65635142D01*
X84098000Y-65539904D01*
X84050380Y-65349428D01*
X84050380Y-65111333D01*
X84098000Y-64920857D01*
X84145619Y-64825619D01*
X84193238Y-64778000D01*
X84288476Y-64730380D01*
X85526571Y-64730380D02*
X85050380Y-64730380D01*
X85002761Y-65206571D01*
X85050380Y-65158952D01*
X85145619Y-65111333D01*
X85383714Y-65111333D01*
X85478952Y-65158952D01*
X85526571Y-65206571D01*
X85574190Y-65301809D01*
X85574190Y-65539904D01*
X85526571Y-65635142D01*
X85478952Y-65682761D01*
X85383714Y-65730380D01*
X85145619Y-65730380D01*
X85050380Y-65682761D01*
X85002761Y-65635142D01*
X85764666Y-65825619D02*
X86526571Y-65825619D01*
X86621809Y-64730380D02*
X87193238Y-64730380D01*
X86907523Y-65730380D02*
X86907523Y-64730380D01*
X87717047Y-64730380D02*
X87907523Y-64730380D01*
X88002761Y-64778000D01*
X88098000Y-64873238D01*
X88145619Y-65063714D01*
X88145619Y-65397047D01*
X88098000Y-65587523D01*
X88002761Y-65682761D01*
X87907523Y-65730380D01*
X87717047Y-65730380D01*
X87621809Y-65682761D01*
X87526571Y-65587523D01*
X87478952Y-65397047D01*
X87478952Y-65063714D01*
X87526571Y-64873238D01*
X87621809Y-64778000D01*
X87717047Y-64730380D01*
X88526571Y-64825619D02*
X88574190Y-64778000D01*
X88669428Y-64730380D01*
X88907523Y-64730380D01*
X89002761Y-64778000D01*
X89050380Y-64825619D01*
X89098000Y-64920857D01*
X89098000Y-65016095D01*
X89050380Y-65158952D01*
X88478952Y-65730380D01*
X89098000Y-65730380D01*
X89478952Y-64825619D02*
X89526571Y-64778000D01*
X89621809Y-64730380D01*
X89859904Y-64730380D01*
X89955142Y-64778000D01*
X90002761Y-64825619D01*
X90050380Y-64920857D01*
X90050380Y-65016095D01*
X90002761Y-65158952D01*
X89431333Y-65730380D01*
X90050380Y-65730380D01*
X90669428Y-64730380D02*
X90764666Y-64730380D01*
X90859904Y-64778000D01*
X90907523Y-64825619D01*
X90955142Y-64920857D01*
X91002761Y-65111333D01*
X91002761Y-65349428D01*
X90955142Y-65539904D01*
X90907523Y-65635142D01*
X90859904Y-65682761D01*
X90764666Y-65730380D01*
X90669428Y-65730380D01*
X90574190Y-65682761D01*
X90526571Y-65635142D01*
X90478952Y-65539904D01*
X90431333Y-65349428D01*
X90431333Y-65111333D01*
X90478952Y-64920857D01*
X90526571Y-64825619D01*
X90574190Y-64778000D01*
X90669428Y-64730380D01*
%TO.C,Y1*%
X69922142Y-88245714D02*
X69969761Y-88293333D01*
X70017380Y-88436190D01*
X70017380Y-88531428D01*
X69969761Y-88674285D01*
X69874523Y-88769523D01*
X69779285Y-88817142D01*
X69588809Y-88864761D01*
X69445952Y-88864761D01*
X69255476Y-88817142D01*
X69160238Y-88769523D01*
X69065000Y-88674285D01*
X69017380Y-88531428D01*
X69017380Y-88436190D01*
X69065000Y-88293333D01*
X69112619Y-88245714D01*
X70017380Y-87817142D02*
X69350714Y-87817142D01*
X69541190Y-87817142D02*
X69445952Y-87769523D01*
X69398333Y-87721904D01*
X69350714Y-87626666D01*
X69350714Y-87531428D01*
X69350714Y-87293333D02*
X70017380Y-87055238D01*
X69350714Y-86817142D02*
X70017380Y-87055238D01*
X70255476Y-87150476D01*
X70303095Y-87198095D01*
X70350714Y-87293333D01*
X69969761Y-86483809D02*
X70017380Y-86388571D01*
X70017380Y-86198095D01*
X69969761Y-86102857D01*
X69874523Y-86055238D01*
X69826904Y-86055238D01*
X69731666Y-86102857D01*
X69684047Y-86198095D01*
X69684047Y-86340952D01*
X69636428Y-86436190D01*
X69541190Y-86483809D01*
X69493571Y-86483809D01*
X69398333Y-86436190D01*
X69350714Y-86340952D01*
X69350714Y-86198095D01*
X69398333Y-86102857D01*
X69350714Y-85769523D02*
X69350714Y-85388571D01*
X69017380Y-85626666D02*
X69874523Y-85626666D01*
X69969761Y-85579047D01*
X70017380Y-85483809D01*
X70017380Y-85388571D01*
X70017380Y-84626666D02*
X69493571Y-84626666D01*
X69398333Y-84674285D01*
X69350714Y-84769523D01*
X69350714Y-84960000D01*
X69398333Y-85055238D01*
X69969761Y-84626666D02*
X70017380Y-84721904D01*
X70017380Y-84960000D01*
X69969761Y-85055238D01*
X69874523Y-85102857D01*
X69779285Y-85102857D01*
X69684047Y-85055238D01*
X69636428Y-84960000D01*
X69636428Y-84721904D01*
X69588809Y-84626666D01*
X70017380Y-84007619D02*
X69969761Y-84102857D01*
X69874523Y-84150476D01*
X69017380Y-84150476D01*
X66016190Y-86936190D02*
X66492380Y-86936190D01*
X65492380Y-87269523D02*
X66016190Y-86936190D01*
X65492380Y-86602857D01*
X66492380Y-85745714D02*
X66492380Y-86317142D01*
X66492380Y-86031428D02*
X65492380Y-86031428D01*
X65635238Y-86126666D01*
X65730476Y-86221904D01*
X65778095Y-86317142D01*
%TO.C,C4*%
X86488380Y-81224285D02*
X86488380Y-81129047D01*
X86536000Y-81033809D01*
X86583619Y-80986190D01*
X86678857Y-80938571D01*
X86869333Y-80890952D01*
X87107428Y-80890952D01*
X87297904Y-80938571D01*
X87393142Y-80986190D01*
X87440761Y-81033809D01*
X87488380Y-81129047D01*
X87488380Y-81224285D01*
X87440761Y-81319523D01*
X87393142Y-81367142D01*
X87297904Y-81414761D01*
X87107428Y-81462380D01*
X86869333Y-81462380D01*
X86678857Y-81414761D01*
X86583619Y-81367142D01*
X86536000Y-81319523D01*
X86488380Y-81224285D01*
X87393142Y-80462380D02*
X87440761Y-80414761D01*
X87488380Y-80462380D01*
X87440761Y-80510000D01*
X87393142Y-80462380D01*
X87488380Y-80462380D01*
X87488380Y-79462380D02*
X87488380Y-80033809D01*
X87488380Y-79748095D02*
X86488380Y-79748095D01*
X86631238Y-79843333D01*
X86726476Y-79938571D01*
X86774095Y-80033809D01*
X86821714Y-78605238D02*
X87488380Y-78605238D01*
X86821714Y-79033809D02*
X87345523Y-79033809D01*
X87440761Y-78986190D01*
X87488380Y-78890952D01*
X87488380Y-78748095D01*
X87440761Y-78652857D01*
X87393142Y-78605238D01*
D16*
X85143142Y-80153333D02*
X85184095Y-80194285D01*
X85225047Y-80317142D01*
X85225047Y-80399047D01*
X85184095Y-80521904D01*
X85102190Y-80603809D01*
X85020285Y-80644761D01*
X84856476Y-80685714D01*
X84733619Y-80685714D01*
X84569809Y-80644761D01*
X84487904Y-80603809D01*
X84406000Y-80521904D01*
X84365047Y-80399047D01*
X84365047Y-80317142D01*
X84406000Y-80194285D01*
X84446952Y-80153333D01*
X84651714Y-79416190D02*
X85225047Y-79416190D01*
X84324095Y-79620952D02*
X84938380Y-79825714D01*
X84938380Y-79293333D01*
D11*
%TO.C,C5*%
X83440380Y-81700476D02*
X83440380Y-81605238D01*
X83488000Y-81510000D01*
X83535619Y-81462380D01*
X83630857Y-81414761D01*
X83821333Y-81367142D01*
X84059428Y-81367142D01*
X84249904Y-81414761D01*
X84345142Y-81462380D01*
X84392761Y-81510000D01*
X84440380Y-81605238D01*
X84440380Y-81700476D01*
X84392761Y-81795714D01*
X84345142Y-81843333D01*
X84249904Y-81890952D01*
X84059428Y-81938571D01*
X83821333Y-81938571D01*
X83630857Y-81890952D01*
X83535619Y-81843333D01*
X83488000Y-81795714D01*
X83440380Y-81700476D01*
X84345142Y-80938571D02*
X84392761Y-80890952D01*
X84440380Y-80938571D01*
X84392761Y-80986190D01*
X84345142Y-80938571D01*
X84440380Y-80938571D01*
X83440380Y-80557619D02*
X83440380Y-79938571D01*
X83821333Y-80271904D01*
X83821333Y-80129047D01*
X83868952Y-80033809D01*
X83916571Y-79986190D01*
X84011809Y-79938571D01*
X84249904Y-79938571D01*
X84345142Y-79986190D01*
X84392761Y-80033809D01*
X84440380Y-80129047D01*
X84440380Y-80414761D01*
X84392761Y-80510000D01*
X84345142Y-80557619D01*
X83440380Y-79605238D02*
X83440380Y-78986190D01*
X83821333Y-79319523D01*
X83821333Y-79176666D01*
X83868952Y-79081428D01*
X83916571Y-79033809D01*
X84011809Y-78986190D01*
X84249904Y-78986190D01*
X84345142Y-79033809D01*
X84392761Y-79081428D01*
X84440380Y-79176666D01*
X84440380Y-79462380D01*
X84392761Y-79557619D01*
X84345142Y-79605238D01*
X83773714Y-78129047D02*
X84440380Y-78129047D01*
X83773714Y-78557619D02*
X84297523Y-78557619D01*
X84392761Y-78510000D01*
X84440380Y-78414761D01*
X84440380Y-78271904D01*
X84392761Y-78176666D01*
X84345142Y-78129047D01*
D16*
X82095142Y-80153333D02*
X82136095Y-80194285D01*
X82177047Y-80317142D01*
X82177047Y-80399047D01*
X82136095Y-80521904D01*
X82054190Y-80603809D01*
X81972285Y-80644761D01*
X81808476Y-80685714D01*
X81685619Y-80685714D01*
X81521809Y-80644761D01*
X81439904Y-80603809D01*
X81358000Y-80521904D01*
X81317047Y-80399047D01*
X81317047Y-80317142D01*
X81358000Y-80194285D01*
X81398952Y-80153333D01*
X81317047Y-79375238D02*
X81317047Y-79784761D01*
X81726571Y-79825714D01*
X81685619Y-79784761D01*
X81644666Y-79702857D01*
X81644666Y-79498095D01*
X81685619Y-79416190D01*
X81726571Y-79375238D01*
X81808476Y-79334285D01*
X82013238Y-79334285D01*
X82095142Y-79375238D01*
X82136095Y-79416190D01*
X82177047Y-79498095D01*
X82177047Y-79702857D01*
X82136095Y-79784761D01*
X82095142Y-79825714D01*
D11*
%TO.C,K2*%
X102910000Y-110809523D02*
X102862380Y-110904761D01*
X102862380Y-111047619D01*
X102910000Y-111190476D01*
X103005238Y-111285714D01*
X103100476Y-111333333D01*
X103290952Y-111380952D01*
X103433809Y-111380952D01*
X103624285Y-111333333D01*
X103719523Y-111285714D01*
X103814761Y-111190476D01*
X103862380Y-111047619D01*
X103862380Y-110952380D01*
X103814761Y-110809523D01*
X103767142Y-110761904D01*
X103433809Y-110761904D01*
X103433809Y-110952380D01*
X102957619Y-110380952D02*
X102910000Y-110333333D01*
X102862380Y-110238095D01*
X102862380Y-110000000D01*
X102910000Y-109904761D01*
X102957619Y-109857142D01*
X103052857Y-109809523D01*
X103148095Y-109809523D01*
X103290952Y-109857142D01*
X103862380Y-110428571D01*
X103862380Y-109809523D01*
X103862380Y-108809523D02*
X103386190Y-109142857D01*
X103862380Y-109380952D02*
X102862380Y-109380952D01*
X102862380Y-109000000D01*
X102910000Y-108904761D01*
X102957619Y-108857142D01*
X103052857Y-108809523D01*
X103195714Y-108809523D01*
X103290952Y-108857142D01*
X103338571Y-108904761D01*
X103386190Y-109000000D01*
X103386190Y-109380952D01*
X103862380Y-108380952D02*
X102862380Y-108380952D01*
X103862380Y-107809523D02*
X103290952Y-108238095D01*
X102862380Y-107809523D02*
X103433809Y-108380952D01*
X103481428Y-107380952D02*
X103481428Y-106619047D01*
X102957619Y-106190476D02*
X102910000Y-106142857D01*
X102862380Y-106047619D01*
X102862380Y-105809523D01*
X102910000Y-105714285D01*
X102957619Y-105666666D01*
X103052857Y-105619047D01*
X103148095Y-105619047D01*
X103290952Y-105666666D01*
X103862380Y-106238095D01*
X103862380Y-105619047D01*
%TO.C,K3*%
X102930000Y-80059523D02*
X102882380Y-80154761D01*
X102882380Y-80297619D01*
X102930000Y-80440476D01*
X103025238Y-80535714D01*
X103120476Y-80583333D01*
X103310952Y-80630952D01*
X103453809Y-80630952D01*
X103644285Y-80583333D01*
X103739523Y-80535714D01*
X103834761Y-80440476D01*
X103882380Y-80297619D01*
X103882380Y-80202380D01*
X103834761Y-80059523D01*
X103787142Y-80011904D01*
X103453809Y-80011904D01*
X103453809Y-80202380D01*
X102977619Y-79630952D02*
X102930000Y-79583333D01*
X102882380Y-79488095D01*
X102882380Y-79250000D01*
X102930000Y-79154761D01*
X102977619Y-79107142D01*
X103072857Y-79059523D01*
X103168095Y-79059523D01*
X103310952Y-79107142D01*
X103882380Y-79678571D01*
X103882380Y-79059523D01*
X103882380Y-78059523D02*
X103406190Y-78392857D01*
X103882380Y-78630952D02*
X102882380Y-78630952D01*
X102882380Y-78250000D01*
X102930000Y-78154761D01*
X102977619Y-78107142D01*
X103072857Y-78059523D01*
X103215714Y-78059523D01*
X103310952Y-78107142D01*
X103358571Y-78154761D01*
X103406190Y-78250000D01*
X103406190Y-78630952D01*
X103882380Y-77630952D02*
X102882380Y-77630952D01*
X103882380Y-77059523D02*
X103310952Y-77488095D01*
X102882380Y-77059523D02*
X103453809Y-77630952D01*
X103501428Y-76630952D02*
X103501428Y-75869047D01*
X102977619Y-75440476D02*
X102930000Y-75392857D01*
X102882380Y-75297619D01*
X102882380Y-75059523D01*
X102930000Y-74964285D01*
X102977619Y-74916666D01*
X103072857Y-74869047D01*
X103168095Y-74869047D01*
X103310952Y-74916666D01*
X103882380Y-75488095D01*
X103882380Y-74869047D01*
%TO.C,K1*%
X89300000Y-111309523D02*
X89252380Y-111404761D01*
X89252380Y-111547619D01*
X89300000Y-111690476D01*
X89395238Y-111785714D01*
X89490476Y-111833333D01*
X89680952Y-111880952D01*
X89823809Y-111880952D01*
X90014285Y-111833333D01*
X90109523Y-111785714D01*
X90204761Y-111690476D01*
X90252380Y-111547619D01*
X90252380Y-111452380D01*
X90204761Y-111309523D01*
X90157142Y-111261904D01*
X89823809Y-111261904D01*
X89823809Y-111452380D01*
X89347619Y-110880952D02*
X89300000Y-110833333D01*
X89252380Y-110738095D01*
X89252380Y-110500000D01*
X89300000Y-110404761D01*
X89347619Y-110357142D01*
X89442857Y-110309523D01*
X89538095Y-110309523D01*
X89680952Y-110357142D01*
X90252380Y-110928571D01*
X90252380Y-110309523D01*
X90252380Y-109309523D02*
X89776190Y-109642857D01*
X90252380Y-109880952D02*
X89252380Y-109880952D01*
X89252380Y-109500000D01*
X89300000Y-109404761D01*
X89347619Y-109357142D01*
X89442857Y-109309523D01*
X89585714Y-109309523D01*
X89680952Y-109357142D01*
X89728571Y-109404761D01*
X89776190Y-109500000D01*
X89776190Y-109880952D01*
X90252380Y-108880952D02*
X89252380Y-108880952D01*
X90252380Y-108309523D02*
X89680952Y-108738095D01*
X89252380Y-108309523D02*
X89823809Y-108880952D01*
X89871428Y-107880952D02*
X89871428Y-107119047D01*
X89347619Y-106690476D02*
X89300000Y-106642857D01*
X89252380Y-106547619D01*
X89252380Y-106309523D01*
X89300000Y-106214285D01*
X89347619Y-106166666D01*
X89442857Y-106119047D01*
X89538095Y-106119047D01*
X89680952Y-106166666D01*
X90252380Y-106738095D01*
X90252380Y-106119047D01*
%TO.C,R4*%
X107147380Y-100226666D02*
X107147380Y-100798095D01*
X107147380Y-100512380D02*
X106147380Y-100512380D01*
X106290238Y-100607619D01*
X106385476Y-100702857D01*
X106433095Y-100798095D01*
X106147380Y-99607619D02*
X106147380Y-99512380D01*
X106195000Y-99417142D01*
X106242619Y-99369523D01*
X106337857Y-99321904D01*
X106528333Y-99274285D01*
X106766428Y-99274285D01*
X106956904Y-99321904D01*
X107052142Y-99369523D01*
X107099761Y-99417142D01*
X107147380Y-99512380D01*
X107147380Y-99607619D01*
X107099761Y-99702857D01*
X107052142Y-99750476D01*
X106956904Y-99798095D01*
X106766428Y-99845714D01*
X106528333Y-99845714D01*
X106337857Y-99798095D01*
X106242619Y-99750476D01*
X106195000Y-99702857D01*
X106147380Y-99607619D01*
X106147380Y-98655238D02*
X106147380Y-98560000D01*
X106195000Y-98464761D01*
X106242619Y-98417142D01*
X106337857Y-98369523D01*
X106528333Y-98321904D01*
X106766428Y-98321904D01*
X106956904Y-98369523D01*
X107052142Y-98417142D01*
X107099761Y-98464761D01*
X107147380Y-98560000D01*
X107147380Y-98655238D01*
X107099761Y-98750476D01*
X107052142Y-98798095D01*
X106956904Y-98845714D01*
X106766428Y-98893333D01*
X106528333Y-98893333D01*
X106337857Y-98845714D01*
X106242619Y-98798095D01*
X106195000Y-98750476D01*
X106147380Y-98655238D01*
X107147380Y-97321904D02*
X106671190Y-97655238D01*
X107147380Y-97893333D02*
X106147380Y-97893333D01*
X106147380Y-97512380D01*
X106195000Y-97417142D01*
X106242619Y-97369523D01*
X106337857Y-97321904D01*
X106480714Y-97321904D01*
X106575952Y-97369523D01*
X106623571Y-97417142D01*
X106671190Y-97512380D01*
X106671190Y-97893333D01*
D15*
X105100714Y-99180000D02*
X104757857Y-99420000D01*
X105100714Y-99591428D02*
X104380714Y-99591428D01*
X104380714Y-99317142D01*
X104415000Y-99248571D01*
X104449285Y-99214285D01*
X104517857Y-99180000D01*
X104620714Y-99180000D01*
X104689285Y-99214285D01*
X104723571Y-99248571D01*
X104757857Y-99317142D01*
X104757857Y-99591428D01*
X104620714Y-98562857D02*
X105100714Y-98562857D01*
X104346428Y-98734285D02*
X104860714Y-98905714D01*
X104860714Y-98460000D01*
D11*
%TO.C,J2*%
X62698380Y-115212285D02*
X63507904Y-115212285D01*
X63603142Y-115164666D01*
X63650761Y-115117047D01*
X63698380Y-115021809D01*
X63698380Y-114831333D01*
X63650761Y-114736095D01*
X63603142Y-114688476D01*
X63507904Y-114640857D01*
X62698380Y-114640857D01*
X63698380Y-114164666D02*
X62698380Y-114164666D01*
X63793619Y-113926571D02*
X63793619Y-113164666D01*
X62698380Y-112736095D02*
X62698380Y-112545619D01*
X62746000Y-112450380D01*
X62841238Y-112355142D01*
X63031714Y-112307523D01*
X63365047Y-112307523D01*
X63555523Y-112355142D01*
X63650761Y-112450380D01*
X63698380Y-112545619D01*
X63698380Y-112736095D01*
X63650761Y-112831333D01*
X63555523Y-112926571D01*
X63365047Y-112974190D01*
X63031714Y-112974190D01*
X62841238Y-112926571D01*
X62746000Y-112831333D01*
X62698380Y-112736095D01*
X62698380Y-111878952D02*
X63507904Y-111878952D01*
X63603142Y-111831333D01*
X63650761Y-111783714D01*
X63698380Y-111688476D01*
X63698380Y-111498000D01*
X63650761Y-111402761D01*
X63603142Y-111355142D01*
X63507904Y-111307523D01*
X62698380Y-111307523D01*
X62698380Y-110974190D02*
X62698380Y-110402761D01*
X63698380Y-110688476D02*
X62698380Y-110688476D01*
X63698380Y-110069428D02*
X62698380Y-110069428D01*
X62698380Y-109688476D01*
X62746000Y-109593238D01*
X62793619Y-109545619D01*
X62888857Y-109498000D01*
X63031714Y-109498000D01*
X63126952Y-109545619D01*
X63174571Y-109593238D01*
X63222190Y-109688476D01*
X63222190Y-110069428D01*
X62698380Y-109069428D02*
X63507904Y-109069428D01*
X63603142Y-109021809D01*
X63650761Y-108974190D01*
X63698380Y-108878952D01*
X63698380Y-108688476D01*
X63650761Y-108593238D01*
X63603142Y-108545619D01*
X63507904Y-108498000D01*
X62698380Y-108498000D01*
X62698380Y-108164666D02*
X62698380Y-107593238D01*
X63698380Y-107878952D02*
X62698380Y-107878952D01*
X63650761Y-107307523D02*
X63698380Y-107164666D01*
X63698380Y-106926571D01*
X63650761Y-106831333D01*
X63603142Y-106783714D01*
X63507904Y-106736095D01*
X63412666Y-106736095D01*
X63317428Y-106783714D01*
X63269809Y-106831333D01*
X63222190Y-106926571D01*
X63174571Y-107117047D01*
X63126952Y-107212285D01*
X63079333Y-107259904D01*
X62984095Y-107307523D01*
X62888857Y-107307523D01*
X62793619Y-107259904D01*
X62746000Y-107212285D01*
X62698380Y-107117047D01*
X62698380Y-106878952D01*
X62746000Y-106736095D01*
X64273380Y-112088333D02*
X64987666Y-112088333D01*
X65130523Y-112135952D01*
X65225761Y-112231190D01*
X65273380Y-112374047D01*
X65273380Y-112469285D01*
X64368619Y-111659761D02*
X64321000Y-111612142D01*
X64273380Y-111516904D01*
X64273380Y-111278809D01*
X64321000Y-111183571D01*
X64368619Y-111135952D01*
X64463857Y-111088333D01*
X64559095Y-111088333D01*
X64701952Y-111135952D01*
X65273380Y-111707380D01*
X65273380Y-111088333D01*
%TO.C,J4*%
X97869619Y-138628380D02*
X97536285Y-138152190D01*
X97298190Y-138628380D02*
X97298190Y-137628380D01*
X97679142Y-137628380D01*
X97774380Y-137676000D01*
X97822000Y-137723619D01*
X97869619Y-137818857D01*
X97869619Y-137961714D01*
X97822000Y-138056952D01*
X97774380Y-138104571D01*
X97679142Y-138152190D01*
X97298190Y-138152190D01*
X98298190Y-138628380D02*
X98298190Y-137628380D01*
X99298190Y-137676000D02*
X99202952Y-137628380D01*
X99060095Y-137628380D01*
X98917238Y-137676000D01*
X98822000Y-137771238D01*
X98774380Y-137866476D01*
X98726761Y-138056952D01*
X98726761Y-138199809D01*
X98774380Y-138390285D01*
X98822000Y-138485523D01*
X98917238Y-138580761D01*
X99060095Y-138628380D01*
X99155333Y-138628380D01*
X99298190Y-138580761D01*
X99345809Y-138533142D01*
X99345809Y-138199809D01*
X99155333Y-138199809D01*
X99774380Y-138628380D02*
X99774380Y-137628380D01*
X99774380Y-138104571D02*
X100345809Y-138104571D01*
X100345809Y-138628380D02*
X100345809Y-137628380D01*
X100679142Y-137628380D02*
X101250571Y-137628380D01*
X100964857Y-138628380D02*
X100964857Y-137628380D01*
X101583904Y-138247428D02*
X102345809Y-138247428D01*
X101964857Y-138628380D02*
X101964857Y-137866476D01*
X96816666Y-137577380D02*
X96816666Y-138291666D01*
X96769047Y-138434523D01*
X96673809Y-138529761D01*
X96530952Y-138577380D01*
X96435714Y-138577380D01*
X97721428Y-137910714D02*
X97721428Y-138577380D01*
X97483333Y-137529761D02*
X97245238Y-138244047D01*
X97864285Y-138244047D01*
%TO.C,J5*%
X117292380Y-135937380D02*
X116816190Y-136270714D01*
X117292380Y-136508809D02*
X116292380Y-136508809D01*
X116292380Y-136127857D01*
X116340000Y-136032619D01*
X116387619Y-135985000D01*
X116482857Y-135937380D01*
X116625714Y-135937380D01*
X116720952Y-135985000D01*
X116768571Y-136032619D01*
X116816190Y-136127857D01*
X116816190Y-136508809D01*
X117292380Y-135508809D02*
X116292380Y-135508809D01*
X116340000Y-134508809D02*
X116292380Y-134604047D01*
X116292380Y-134746904D01*
X116340000Y-134889761D01*
X116435238Y-134985000D01*
X116530476Y-135032619D01*
X116720952Y-135080238D01*
X116863809Y-135080238D01*
X117054285Y-135032619D01*
X117149523Y-134985000D01*
X117244761Y-134889761D01*
X117292380Y-134746904D01*
X117292380Y-134651666D01*
X117244761Y-134508809D01*
X117197142Y-134461190D01*
X116863809Y-134461190D01*
X116863809Y-134651666D01*
X117292380Y-134032619D02*
X116292380Y-134032619D01*
X116768571Y-134032619D02*
X116768571Y-133461190D01*
X117292380Y-133461190D02*
X116292380Y-133461190D01*
X116292380Y-133127857D02*
X116292380Y-132556428D01*
X117292380Y-132842142D02*
X116292380Y-132842142D01*
X116911428Y-132223095D02*
X116911428Y-131461190D01*
X116317380Y-131263333D02*
X117031666Y-131263333D01*
X117174523Y-131310952D01*
X117269761Y-131406190D01*
X117317380Y-131549047D01*
X117317380Y-131644285D01*
X116317380Y-130310952D02*
X116317380Y-130787142D01*
X116793571Y-130834761D01*
X116745952Y-130787142D01*
X116698333Y-130691904D01*
X116698333Y-130453809D01*
X116745952Y-130358571D01*
X116793571Y-130310952D01*
X116888809Y-130263333D01*
X117126904Y-130263333D01*
X117222142Y-130310952D01*
X117269761Y-130358571D01*
X117317380Y-130453809D01*
X117317380Y-130691904D01*
X117269761Y-130787142D01*
X117222142Y-130834761D01*
%TO.C,J6*%
X116717380Y-117141428D02*
X116717380Y-117617619D01*
X115717380Y-117617619D01*
X116193571Y-116808095D02*
X116193571Y-116474761D01*
X116717380Y-116331904D02*
X116717380Y-116808095D01*
X115717380Y-116808095D01*
X115717380Y-116331904D01*
X116193571Y-115570000D02*
X116193571Y-115903333D01*
X116717380Y-115903333D02*
X115717380Y-115903333D01*
X115717380Y-115427142D01*
X115717380Y-115189047D02*
X115717380Y-114617619D01*
X116717380Y-114903333D02*
X115717380Y-114903333D01*
X116336428Y-114284285D02*
X116336428Y-113522380D01*
X116717380Y-113903333D02*
X115955476Y-113903333D01*
X116317380Y-115903333D02*
X117031666Y-115903333D01*
X117174523Y-115950952D01*
X117269761Y-116046190D01*
X117317380Y-116189047D01*
X117317380Y-116284285D01*
X116317380Y-114998571D02*
X116317380Y-115189047D01*
X116365000Y-115284285D01*
X116412619Y-115331904D01*
X116555476Y-115427142D01*
X116745952Y-115474761D01*
X117126904Y-115474761D01*
X117222142Y-115427142D01*
X117269761Y-115379523D01*
X117317380Y-115284285D01*
X117317380Y-115093809D01*
X117269761Y-114998571D01*
X117222142Y-114950952D01*
X117126904Y-114903333D01*
X116888809Y-114903333D01*
X116793571Y-114950952D01*
X116745952Y-114998571D01*
X116698333Y-115093809D01*
X116698333Y-115284285D01*
X116745952Y-115379523D01*
X116793571Y-115427142D01*
X116888809Y-115474761D01*
%TO.C,J7*%
X116717380Y-101901428D02*
X116717380Y-102377619D01*
X115717380Y-102377619D01*
X116193571Y-101568095D02*
X116193571Y-101234761D01*
X116717380Y-101091904D02*
X116717380Y-101568095D01*
X115717380Y-101568095D01*
X115717380Y-101091904D01*
X116193571Y-100330000D02*
X116193571Y-100663333D01*
X116717380Y-100663333D02*
X115717380Y-100663333D01*
X115717380Y-100187142D01*
X115717380Y-99949047D02*
X115717380Y-99377619D01*
X116717380Y-99663333D02*
X115717380Y-99663333D01*
X116336428Y-99044285D02*
X116336428Y-98282380D01*
X116317380Y-100663333D02*
X117031666Y-100663333D01*
X117174523Y-100710952D01*
X117269761Y-100806190D01*
X117317380Y-100949047D01*
X117317380Y-101044285D01*
X116317380Y-100282380D02*
X116317380Y-99615714D01*
X117317380Y-100044285D01*
%TO.C,J3*%
X77240000Y-138374380D02*
X77240000Y-137374380D01*
X78049523Y-137850571D02*
X78192380Y-137898190D01*
X78240000Y-137945809D01*
X78287619Y-138041047D01*
X78287619Y-138183904D01*
X78240000Y-138279142D01*
X78192380Y-138326761D01*
X78097142Y-138374380D01*
X77716190Y-138374380D01*
X77716190Y-137374380D01*
X78049523Y-137374380D01*
X78144761Y-137422000D01*
X78192380Y-137469619D01*
X78240000Y-137564857D01*
X78240000Y-137660095D01*
X78192380Y-137755333D01*
X78144761Y-137802952D01*
X78049523Y-137850571D01*
X77716190Y-137850571D01*
X78716190Y-137374380D02*
X78716190Y-138183904D01*
X78763809Y-138279142D01*
X78811428Y-138326761D01*
X78906666Y-138374380D01*
X79097142Y-138374380D01*
X79192380Y-138326761D01*
X79240000Y-138279142D01*
X79287619Y-138183904D01*
X79287619Y-137374380D01*
X79716190Y-138326761D02*
X79859047Y-138374380D01*
X80097142Y-138374380D01*
X80192380Y-138326761D01*
X80240000Y-138279142D01*
X80287619Y-138183904D01*
X80287619Y-138088666D01*
X80240000Y-137993428D01*
X80192380Y-137945809D01*
X80097142Y-137898190D01*
X79906666Y-137850571D01*
X79811428Y-137802952D01*
X79763809Y-137755333D01*
X79716190Y-137660095D01*
X79716190Y-137564857D01*
X79763809Y-137469619D01*
X79811428Y-137422000D01*
X79906666Y-137374380D01*
X80144761Y-137374380D01*
X80287619Y-137422000D01*
X81576666Y-137577380D02*
X81576666Y-138291666D01*
X81529047Y-138434523D01*
X81433809Y-138529761D01*
X81290952Y-138577380D01*
X81195714Y-138577380D01*
X81957619Y-137577380D02*
X82576666Y-137577380D01*
X82243333Y-137958333D01*
X82386190Y-137958333D01*
X82481428Y-138005952D01*
X82529047Y-138053571D01*
X82576666Y-138148809D01*
X82576666Y-138386904D01*
X82529047Y-138482142D01*
X82481428Y-138529761D01*
X82386190Y-138577380D01*
X82100476Y-138577380D01*
X82005238Y-138529761D01*
X81957619Y-138482142D01*
%TO.C,J8*%
X64968380Y-132357523D02*
X63968380Y-132357523D01*
X63968380Y-131976571D01*
X64016000Y-131881333D01*
X64063619Y-131833714D01*
X64158857Y-131786095D01*
X64301714Y-131786095D01*
X64396952Y-131833714D01*
X64444571Y-131881333D01*
X64492190Y-131976571D01*
X64492190Y-132357523D01*
X63968380Y-131167047D02*
X63968380Y-130976571D01*
X64016000Y-130881333D01*
X64111238Y-130786095D01*
X64301714Y-130738476D01*
X64635047Y-130738476D01*
X64825523Y-130786095D01*
X64920761Y-130881333D01*
X64968380Y-130976571D01*
X64968380Y-131167047D01*
X64920761Y-131262285D01*
X64825523Y-131357523D01*
X64635047Y-131405142D01*
X64301714Y-131405142D01*
X64111238Y-131357523D01*
X64016000Y-131262285D01*
X63968380Y-131167047D01*
X63968380Y-130405142D02*
X64968380Y-130167047D01*
X64254095Y-129976571D01*
X64968380Y-129786095D01*
X63968380Y-129548000D01*
X64444571Y-129167047D02*
X64444571Y-128833714D01*
X64968380Y-128690857D02*
X64968380Y-129167047D01*
X63968380Y-129167047D01*
X63968380Y-128690857D01*
X64968380Y-127690857D02*
X64492190Y-128024190D01*
X64968380Y-128262285D02*
X63968380Y-128262285D01*
X63968380Y-127881333D01*
X64016000Y-127786095D01*
X64063619Y-127738476D01*
X64158857Y-127690857D01*
X64301714Y-127690857D01*
X64396952Y-127738476D01*
X64444571Y-127786095D01*
X64492190Y-127881333D01*
X64492190Y-128262285D01*
X64273380Y-129868333D02*
X64987666Y-129868333D01*
X65130523Y-129915952D01*
X65225761Y-130011190D01*
X65273380Y-130154047D01*
X65273380Y-130249285D01*
X64701952Y-129249285D02*
X64654333Y-129344523D01*
X64606714Y-129392142D01*
X64511476Y-129439761D01*
X64463857Y-129439761D01*
X64368619Y-129392142D01*
X64321000Y-129344523D01*
X64273380Y-129249285D01*
X64273380Y-129058809D01*
X64321000Y-128963571D01*
X64368619Y-128915952D01*
X64463857Y-128868333D01*
X64511476Y-128868333D01*
X64606714Y-128915952D01*
X64654333Y-128963571D01*
X64701952Y-129058809D01*
X64701952Y-129249285D01*
X64749571Y-129344523D01*
X64797190Y-129392142D01*
X64892428Y-129439761D01*
X65082904Y-129439761D01*
X65178142Y-129392142D01*
X65225761Y-129344523D01*
X65273380Y-129249285D01*
X65273380Y-129058809D01*
X65225761Y-128963571D01*
X65178142Y-128915952D01*
X65082904Y-128868333D01*
X64892428Y-128868333D01*
X64797190Y-128915952D01*
X64749571Y-128963571D01*
X64701952Y-129058809D01*
%TO.C,J1*%
X119777380Y-82414761D02*
X118777380Y-82414761D01*
X119777380Y-81938571D02*
X118777380Y-81938571D01*
X119777380Y-81367142D01*
X118777380Y-81367142D01*
X119777380Y-80890952D02*
X118777380Y-80890952D01*
X118777380Y-80510000D01*
X118825000Y-80414761D01*
X118872619Y-80367142D01*
X118967857Y-80319523D01*
X119110714Y-80319523D01*
X119205952Y-80367142D01*
X119253571Y-80414761D01*
X119301190Y-80510000D01*
X119301190Y-80890952D01*
X118777380Y-79890952D02*
X119586904Y-79890952D01*
X119682142Y-79843333D01*
X119729761Y-79795714D01*
X119777380Y-79700476D01*
X119777380Y-79510000D01*
X119729761Y-79414761D01*
X119682142Y-79367142D01*
X119586904Y-79319523D01*
X118777380Y-79319523D01*
X118777380Y-78986190D02*
X118777380Y-78414761D01*
X119777380Y-78700476D02*
X118777380Y-78700476D01*
X119729761Y-78129047D02*
X119777380Y-77986190D01*
X119777380Y-77748095D01*
X119729761Y-77652857D01*
X119682142Y-77605238D01*
X119586904Y-77557619D01*
X119491666Y-77557619D01*
X119396428Y-77605238D01*
X119348809Y-77652857D01*
X119301190Y-77748095D01*
X119253571Y-77938571D01*
X119205952Y-78033809D01*
X119158333Y-78081428D01*
X119063095Y-78129047D01*
X118967857Y-78129047D01*
X118872619Y-78081428D01*
X118825000Y-78033809D01*
X118777380Y-77938571D01*
X118777380Y-77700476D01*
X118825000Y-77557619D01*
X116317380Y-80343333D02*
X117031666Y-80343333D01*
X117174523Y-80390952D01*
X117269761Y-80486190D01*
X117317380Y-80629047D01*
X117317380Y-80724285D01*
X117317380Y-79343333D02*
X117317380Y-79914761D01*
X117317380Y-79629047D02*
X116317380Y-79629047D01*
X116460238Y-79724285D01*
X116555476Y-79819523D01*
X116603095Y-79914761D01*
%TO.C,Q7*%
X80470714Y-89967619D02*
X80518333Y-89920000D01*
X80613571Y-89872380D01*
X80851666Y-89872380D01*
X80946904Y-89920000D01*
X80994523Y-89967619D01*
X81042142Y-90062857D01*
X81042142Y-90158095D01*
X80994523Y-90300952D01*
X80423095Y-90872380D01*
X81042142Y-90872380D01*
X81470714Y-90872380D02*
X81470714Y-89872380D01*
X82042142Y-90872380D01*
X82042142Y-89872380D01*
X82994523Y-89872380D02*
X82518333Y-89872380D01*
X82470714Y-90348571D01*
X82518333Y-90300952D01*
X82613571Y-90253333D01*
X82851666Y-90253333D01*
X82946904Y-90300952D01*
X82994523Y-90348571D01*
X83042142Y-90443809D01*
X83042142Y-90681904D01*
X82994523Y-90777142D01*
X82946904Y-90824761D01*
X82851666Y-90872380D01*
X82613571Y-90872380D01*
X82518333Y-90824761D01*
X82470714Y-90777142D01*
X83661190Y-89872380D02*
X83756428Y-89872380D01*
X83851666Y-89920000D01*
X83899285Y-89967619D01*
X83946904Y-90062857D01*
X83994523Y-90253333D01*
X83994523Y-90491428D01*
X83946904Y-90681904D01*
X83899285Y-90777142D01*
X83851666Y-90824761D01*
X83756428Y-90872380D01*
X83661190Y-90872380D01*
X83565952Y-90824761D01*
X83518333Y-90777142D01*
X83470714Y-90681904D01*
X83423095Y-90491428D01*
X83423095Y-90253333D01*
X83470714Y-90062857D01*
X83518333Y-89967619D01*
X83565952Y-89920000D01*
X83661190Y-89872380D01*
X84851666Y-89872380D02*
X84661190Y-89872380D01*
X84565952Y-89920000D01*
X84518333Y-89967619D01*
X84423095Y-90110476D01*
X84375476Y-90300952D01*
X84375476Y-90681904D01*
X84423095Y-90777142D01*
X84470714Y-90824761D01*
X84565952Y-90872380D01*
X84756428Y-90872380D01*
X84851666Y-90824761D01*
X84899285Y-90777142D01*
X84946904Y-90681904D01*
X84946904Y-90443809D01*
X84899285Y-90348571D01*
X84851666Y-90300952D01*
X84756428Y-90253333D01*
X84565952Y-90253333D01*
X84470714Y-90300952D01*
X84423095Y-90348571D01*
X84375476Y-90443809D01*
X85804047Y-90205714D02*
X85804047Y-90872380D01*
X85565952Y-89824761D02*
X85327857Y-90539047D01*
X85946904Y-90539047D01*
X83089761Y-88177619D02*
X82994523Y-88130000D01*
X82899285Y-88034761D01*
X82756428Y-87891904D01*
X82661190Y-87844285D01*
X82565952Y-87844285D01*
X82613571Y-88082380D02*
X82518333Y-88034761D01*
X82423095Y-87939523D01*
X82375476Y-87749047D01*
X82375476Y-87415714D01*
X82423095Y-87225238D01*
X82518333Y-87130000D01*
X82613571Y-87082380D01*
X82804047Y-87082380D01*
X82899285Y-87130000D01*
X82994523Y-87225238D01*
X83042142Y-87415714D01*
X83042142Y-87749047D01*
X82994523Y-87939523D01*
X82899285Y-88034761D01*
X82804047Y-88082380D01*
X82613571Y-88082380D01*
X83375476Y-87082380D02*
X84042142Y-87082380D01*
X83613571Y-88082380D01*
%TO.C,R3*%
X106147380Y-111204285D02*
X106147380Y-111680476D01*
X106623571Y-111728095D01*
X106575952Y-111680476D01*
X106528333Y-111585238D01*
X106528333Y-111347142D01*
X106575952Y-111251904D01*
X106623571Y-111204285D01*
X106718809Y-111156666D01*
X106956904Y-111156666D01*
X107052142Y-111204285D01*
X107099761Y-111251904D01*
X107147380Y-111347142D01*
X107147380Y-111585238D01*
X107099761Y-111680476D01*
X107052142Y-111728095D01*
X106147380Y-110537619D02*
X106147380Y-110442380D01*
X106195000Y-110347142D01*
X106242619Y-110299523D01*
X106337857Y-110251904D01*
X106528333Y-110204285D01*
X106766428Y-110204285D01*
X106956904Y-110251904D01*
X107052142Y-110299523D01*
X107099761Y-110347142D01*
X107147380Y-110442380D01*
X107147380Y-110537619D01*
X107099761Y-110632857D01*
X107052142Y-110680476D01*
X106956904Y-110728095D01*
X106766428Y-110775714D01*
X106528333Y-110775714D01*
X106337857Y-110728095D01*
X106242619Y-110680476D01*
X106195000Y-110632857D01*
X106147380Y-110537619D01*
X106147380Y-109585238D02*
X106147380Y-109490000D01*
X106195000Y-109394761D01*
X106242619Y-109347142D01*
X106337857Y-109299523D01*
X106528333Y-109251904D01*
X106766428Y-109251904D01*
X106956904Y-109299523D01*
X107052142Y-109347142D01*
X107099761Y-109394761D01*
X107147380Y-109490000D01*
X107147380Y-109585238D01*
X107099761Y-109680476D01*
X107052142Y-109728095D01*
X106956904Y-109775714D01*
X106766428Y-109823333D01*
X106528333Y-109823333D01*
X106337857Y-109775714D01*
X106242619Y-109728095D01*
X106195000Y-109680476D01*
X106147380Y-109585238D01*
D15*
X105100714Y-110610000D02*
X104757857Y-110850000D01*
X105100714Y-111021428D02*
X104380714Y-111021428D01*
X104380714Y-110747142D01*
X104415000Y-110678571D01*
X104449285Y-110644285D01*
X104517857Y-110610000D01*
X104620714Y-110610000D01*
X104689285Y-110644285D01*
X104723571Y-110678571D01*
X104757857Y-110747142D01*
X104757857Y-111021428D01*
X104380714Y-110370000D02*
X104380714Y-109924285D01*
X104655000Y-110164285D01*
X104655000Y-110061428D01*
X104689285Y-109992857D01*
X104723571Y-109958571D01*
X104792142Y-109924285D01*
X104963571Y-109924285D01*
X105032142Y-109958571D01*
X105066428Y-109992857D01*
X105100714Y-110061428D01*
X105100714Y-110267142D01*
X105066428Y-110335714D01*
X105032142Y-110370000D01*
D10*
%TO.C,Q6*%
X69350000Y-102080000D02*
X72850000Y-102080000D01*
X71120000Y-97850000D02*
G75*
G03*
X69366375Y-102083625I0J-2480000D01*
G01*
X72873625Y-102083625D02*
G75*
G03*
X71120000Y-97850000I-1753625J1753625D01*
G01*
%TO.C,Q5*%
X81415000Y-96365000D02*
X84915000Y-96365000D01*
X83185000Y-92135000D02*
G75*
G03*
X81431375Y-96368625I0J-2480000D01*
G01*
X84938625Y-96368625D02*
G75*
G03*
X83185000Y-92135000I-1753625J1753625D01*
G01*
%TO.C,Q4*%
X75700000Y-96365000D02*
X79200000Y-96365000D01*
X77470000Y-92135000D02*
G75*
G03*
X75716375Y-96368625I0J-2480000D01*
G01*
X79223625Y-96368625D02*
G75*
G03*
X77470000Y-92135000I-1753625J1753625D01*
G01*
%TO.C,Q3*%
X69985000Y-96365000D02*
X73485000Y-96365000D01*
X71755000Y-92135000D02*
G75*
G03*
X70001375Y-96368625I0J-2480000D01*
G01*
X73508625Y-96368625D02*
G75*
G03*
X71755000Y-92135000I-1753625J1753625D01*
G01*
%TO.C,Q1*%
X103025000Y-68080000D02*
X103025000Y-71580000D01*
X107255000Y-69850000D02*
G75*
G03*
X103021375Y-68096375I-2480000J0D01*
G01*
X103021375Y-71603625D02*
G75*
G03*
X107255000Y-69850000I1753625J1753625D01*
G01*
%TO.C,C1*%
X67290000Y-95524000D02*
X64790000Y-95524000D01*
X67290000Y-100524000D02*
X67290000Y-95524000D01*
X64790000Y-100524000D02*
X67290000Y-100524000D01*
X64790000Y-95524000D02*
X64790000Y-100524000D01*
%TO.C,C2*%
X64790000Y-78680000D02*
X67290000Y-78680000D01*
X67290000Y-73680000D02*
X64790000Y-73680000D01*
X64790000Y-73680000D02*
X64790000Y-78680000D01*
X67290000Y-78680000D02*
X67290000Y-73680000D01*
%TO.C,R1*%
X105575000Y-86465000D02*
X103975000Y-86465000D01*
X104775000Y-84455000D02*
X104775000Y-86465000D01*
X104775000Y-92075000D02*
X104775000Y-90065000D01*
X105575000Y-90065000D02*
X105575000Y-86465000D01*
X103975000Y-90065000D02*
X105575000Y-90065000D01*
X103975000Y-86465000D02*
X103975000Y-90065000D01*
%TO.C,R2*%
X104775000Y-81915000D02*
X104775000Y-79905000D01*
X105575000Y-79905000D02*
X105575000Y-76305000D01*
X103975000Y-79905000D02*
X105575000Y-79905000D01*
X104775000Y-74295000D02*
X104775000Y-76305000D01*
X105575000Y-76305000D02*
X103975000Y-76305000D01*
X103975000Y-76305000D02*
X103975000Y-79905000D01*
%TO.C,U1*%
X72755000Y-64770000D02*
X78105000Y-64770000D01*
X71755000Y-65770000D02*
X72755000Y-64770000D01*
X78105000Y-90170000D02*
X71755000Y-90170000D01*
X71755000Y-90170000D02*
X71755000Y-65770000D01*
X78105000Y-64770000D02*
X78105000Y-90170000D01*
%TO.C,U2*%
X85771000Y-65104000D02*
X81371000Y-65104000D01*
X81371000Y-65104000D02*
X81371000Y-75104000D01*
X85771000Y-71954000D02*
X84501000Y-71954000D01*
X85771000Y-68254000D02*
X84501000Y-68254000D01*
X84501000Y-65104000D02*
X84501000Y-75104000D01*
X85771000Y-75104000D02*
X85771000Y-65104000D01*
X81371000Y-75104000D02*
X85771000Y-75104000D01*
%TO.C,Y1*%
X63715000Y-89660000D02*
X63715000Y-83260000D01*
X68365000Y-89660000D02*
X68365000Y-83260000D01*
X64040000Y-89460000D02*
X64040000Y-83460000D01*
X68040000Y-89460000D02*
X68040000Y-83460000D01*
X64040000Y-89460000D02*
G75*
G03*
X68040000Y-89460000I2000000J0D01*
G01*
X63715000Y-89660000D02*
G75*
G03*
X68365000Y-89660000I2325000J0D01*
G01*
X68040000Y-83460000D02*
G75*
G03*
X64040000Y-83460000I-2000000J0D01*
G01*
X68365000Y-83260000D02*
G75*
G03*
X63715000Y-83260000I-2325000J0D01*
G01*
%TO.C,C4*%
X85786000Y-77860000D02*
X83886000Y-77860000D01*
X83886000Y-82160000D02*
X85786000Y-82160000D01*
X85786000Y-82160000D02*
X85786000Y-77860000D01*
X83886000Y-77860000D02*
X83886000Y-82160000D01*
%TO.C,C5*%
X82738000Y-77860000D02*
X80838000Y-77860000D01*
X82738000Y-82160000D02*
X82738000Y-77860000D01*
X80838000Y-77860000D02*
X80838000Y-82160000D01*
X80838000Y-82160000D02*
X82738000Y-82160000D01*
%TO.C,R4*%
X104775000Y-102870000D02*
X104775000Y-100860000D01*
X103975000Y-100860000D02*
X105575000Y-100860000D01*
X103975000Y-97260000D02*
X103975000Y-100860000D01*
X105575000Y-100860000D02*
X105575000Y-97260000D01*
X104775000Y-95250000D02*
X104775000Y-97260000D01*
X105575000Y-97260000D02*
X103975000Y-97260000D01*
%TO.C,J2*%
X63921000Y-104135000D02*
X63921000Y-119375000D01*
X63421000Y-119375000D02*
X63421000Y-104635000D01*
X73221000Y-119375000D02*
X63421000Y-119375000D01*
X63921000Y-104135000D02*
X73221000Y-104135000D01*
X69159000Y-107630000D02*
X67066000Y-105537000D01*
X65421000Y-104135000D02*
X65421000Y-119375000D01*
X68976000Y-117973000D02*
X66883000Y-115881000D01*
X69159000Y-112710000D02*
X67066000Y-110618000D01*
X70321000Y-104135000D02*
X70321000Y-119375000D01*
X68976000Y-107813000D02*
X66883000Y-105720000D01*
X68976000Y-112893000D02*
X66883000Y-110801000D01*
X73221000Y-104135000D02*
X73221000Y-119375000D01*
X69159000Y-117790000D02*
X67066000Y-115698000D01*
X63421000Y-104635000D02*
X63921000Y-104135000D01*
X69521000Y-111755000D02*
G75*
G03*
X69521000Y-111755000I-1500000J0D01*
G01*
X69521000Y-106675000D02*
G75*
G03*
X69521000Y-106675000I-1500000J0D01*
G01*
X69521000Y-116835000D02*
G75*
G03*
X69521000Y-116835000I-1500000J0D01*
G01*
%TO.C,J4*%
X93025000Y-133787000D02*
X90932000Y-135880000D01*
X89530000Y-139025000D02*
X104770000Y-139025000D01*
X98288000Y-133970000D02*
X96196000Y-136063000D01*
X104770000Y-139525000D02*
X90030000Y-139525000D01*
X89530000Y-137525000D02*
X104770000Y-137525000D01*
X103185000Y-133787000D02*
X101093000Y-135880000D01*
X89530000Y-129725000D02*
X104770000Y-129725000D01*
X93208000Y-133970000D02*
X91115000Y-136063000D01*
X89530000Y-132625000D02*
X104770000Y-132625000D01*
X103368000Y-133970000D02*
X101276000Y-136063000D01*
X104770000Y-129725000D02*
X104770000Y-139525000D01*
X90030000Y-139525000D02*
X89530000Y-139025000D01*
X89530000Y-139025000D02*
X89530000Y-129725000D01*
X98105000Y-133787000D02*
X96013000Y-135880000D01*
X98650000Y-134925000D02*
G75*
G03*
X98650000Y-134925000I-1500000J0D01*
G01*
X93570000Y-134925000D02*
G75*
G03*
X93570000Y-134925000I-1500000J0D01*
G01*
X103730000Y-134925000D02*
G75*
G03*
X103730000Y-134925000I-1500000J0D01*
G01*
%TO.C,J5*%
X118265000Y-123310000D02*
X118265000Y-138050000D01*
X111365000Y-138550000D02*
X111365000Y-123310000D01*
X108465000Y-138550000D02*
X108465000Y-123310000D01*
X116265000Y-138550000D02*
X116265000Y-123310000D01*
X118265000Y-138050000D02*
X117765000Y-138550000D01*
X112527000Y-129975000D02*
X114620000Y-132067000D01*
X112710000Y-129792000D02*
X114803000Y-131884000D01*
X112710000Y-134872000D02*
X114803000Y-136965000D01*
X117765000Y-138550000D02*
X117765000Y-123310000D01*
X112527000Y-135055000D02*
X114620000Y-137148000D01*
X112710000Y-124712000D02*
X114803000Y-126804000D01*
X117765000Y-138550000D02*
X108465000Y-138550000D01*
X108465000Y-123310000D02*
X118265000Y-123310000D01*
X112527000Y-124895000D02*
X114620000Y-126987000D01*
X115165000Y-130930000D02*
G75*
G03*
X115165000Y-130930000I-1500000J0D01*
G01*
X115165000Y-125850000D02*
G75*
G03*
X115165000Y-125850000I-1500000J0D01*
G01*
X115165000Y-136010000D02*
G75*
G03*
X115165000Y-136010000I-1500000J0D01*
G01*
%TO.C,J6*%
X112527000Y-109535000D02*
X114620000Y-111627000D01*
X112527000Y-119695000D02*
X114620000Y-121788000D01*
X111365000Y-123190000D02*
X111365000Y-107950000D01*
X108465000Y-107950000D02*
X118265000Y-107950000D01*
X118265000Y-107950000D02*
X118265000Y-122690000D01*
X117765000Y-123190000D02*
X117765000Y-107950000D01*
X108465000Y-123190000D02*
X108465000Y-107950000D01*
X112710000Y-114432000D02*
X114803000Y-116524000D01*
X112527000Y-114615000D02*
X114620000Y-116707000D01*
X112710000Y-119512000D02*
X114803000Y-121605000D01*
X116265000Y-123190000D02*
X116265000Y-107950000D01*
X117765000Y-123190000D02*
X108465000Y-123190000D01*
X118265000Y-122690000D02*
X117765000Y-123190000D01*
X112710000Y-109352000D02*
X114803000Y-111444000D01*
X115165000Y-115570000D02*
G75*
G03*
X115165000Y-115570000I-1500000J0D01*
G01*
X115165000Y-120650000D02*
G75*
G03*
X115165000Y-120650000I-1500000J0D01*
G01*
X115165000Y-110490000D02*
G75*
G03*
X115165000Y-110490000I-1500000J0D01*
G01*
%TO.C,J7*%
X116265000Y-107950000D02*
X116265000Y-92710000D01*
X108465000Y-92710000D02*
X118265000Y-92710000D01*
X112527000Y-104455000D02*
X114620000Y-106548000D01*
X108465000Y-107950000D02*
X108465000Y-92710000D01*
X118265000Y-92710000D02*
X118265000Y-107450000D01*
X112527000Y-99375000D02*
X114620000Y-101467000D01*
X112710000Y-99192000D02*
X114803000Y-101284000D01*
X112710000Y-104272000D02*
X114803000Y-106365000D01*
X112710000Y-94112000D02*
X114803000Y-96204000D01*
X111365000Y-107950000D02*
X111365000Y-92710000D01*
X112527000Y-94295000D02*
X114620000Y-96387000D01*
X117765000Y-107950000D02*
X108465000Y-107950000D01*
X118265000Y-107450000D02*
X117765000Y-107950000D01*
X117765000Y-107950000D02*
X117765000Y-92710000D01*
X115165000Y-100330000D02*
G75*
G03*
X115165000Y-100330000I-1500000J0D01*
G01*
X115165000Y-105410000D02*
G75*
G03*
X115165000Y-105410000I-1500000J0D01*
G01*
X115165000Y-95250000D02*
G75*
G03*
X115165000Y-95250000I-1500000J0D01*
G01*
%TO.C,J3*%
X74790000Y-139525000D02*
X74290000Y-139025000D01*
X89530000Y-139525000D02*
X74790000Y-139525000D01*
X87945000Y-133787000D02*
X85853000Y-135880000D01*
X74290000Y-132625000D02*
X89530000Y-132625000D01*
X83048000Y-133970000D02*
X80956000Y-136063000D01*
X77785000Y-133787000D02*
X75692000Y-135880000D01*
X74290000Y-137525000D02*
X89530000Y-137525000D01*
X88128000Y-133970000D02*
X86036000Y-136063000D01*
X74290000Y-129725000D02*
X89530000Y-129725000D01*
X74290000Y-139025000D02*
X89530000Y-139025000D01*
X89530000Y-129725000D02*
X89530000Y-139525000D01*
X82865000Y-133787000D02*
X80773000Y-135880000D01*
X77968000Y-133970000D02*
X75875000Y-136063000D01*
X74290000Y-139025000D02*
X74290000Y-129725000D01*
X78330000Y-134925000D02*
G75*
G03*
X78330000Y-134925000I-1500000J0D01*
G01*
X83410000Y-134925000D02*
G75*
G03*
X83410000Y-134925000I-1500000J0D01*
G01*
X88490000Y-134925000D02*
G75*
G03*
X88490000Y-134925000I-1500000J0D01*
G01*
%TO.C,J8*%
X63421000Y-119875000D02*
X63921000Y-119375000D01*
X63921000Y-119375000D02*
X63921000Y-139695000D01*
X65421000Y-119375000D02*
X65421000Y-139695000D01*
X69159000Y-133030000D02*
X67066000Y-130938000D01*
X68976000Y-138293000D02*
X66883000Y-136201000D01*
X68976000Y-133213000D02*
X66883000Y-131121000D01*
X73221000Y-119375000D02*
X73221000Y-139695000D01*
X63421000Y-139695000D02*
X63421000Y-119875000D01*
X69159000Y-138110000D02*
X67066000Y-136018000D01*
X69159000Y-122870000D02*
X67066000Y-120777000D01*
X73221000Y-139695000D02*
X63421000Y-139695000D01*
X63921000Y-119375000D02*
X73221000Y-119375000D01*
X69159000Y-127950000D02*
X67066000Y-125858000D01*
X70321000Y-119375000D02*
X70321000Y-139695000D01*
X68976000Y-123053000D02*
X66883000Y-120960000D01*
X68976000Y-128133000D02*
X66883000Y-126041000D01*
X69521000Y-132075000D02*
G75*
G03*
X69521000Y-132075000I-1500000J0D01*
G01*
X69521000Y-137155000D02*
G75*
G03*
X69521000Y-137155000I-1500000J0D01*
G01*
X69521000Y-121915000D02*
G75*
G03*
X69521000Y-121915000I-1500000J0D01*
G01*
X69521000Y-126995000D02*
G75*
G03*
X69521000Y-126995000I-1500000J0D01*
G01*
%TO.C,J1*%
X112527000Y-86675000D02*
X114620000Y-88768000D01*
X118265000Y-69850000D02*
X118265000Y-89670000D01*
X108465000Y-69850000D02*
X118265000Y-69850000D01*
X111365000Y-90170000D02*
X111365000Y-69850000D01*
X112710000Y-76332000D02*
X114803000Y-78424000D01*
X116265000Y-90170000D02*
X116265000Y-69850000D01*
X117765000Y-90170000D02*
X117765000Y-69850000D01*
X112710000Y-81412000D02*
X114803000Y-83504000D01*
X108465000Y-90170000D02*
X108465000Y-69850000D01*
X112527000Y-71435000D02*
X114620000Y-73527000D01*
X112527000Y-81595000D02*
X114620000Y-83687000D01*
X117765000Y-90170000D02*
X108465000Y-90170000D01*
X112710000Y-86492000D02*
X114803000Y-88585000D01*
X112527000Y-76515000D02*
X114620000Y-78607000D01*
X112710000Y-71252000D02*
X114803000Y-73344000D01*
X118265000Y-89670000D02*
X117765000Y-90170000D01*
X115165000Y-72390000D02*
G75*
G03*
X115165000Y-72390000I-1500000J0D01*
G01*
X115165000Y-77470000D02*
G75*
G03*
X115165000Y-77470000I-1500000J0D01*
G01*
X115165000Y-82550000D02*
G75*
G03*
X115165000Y-82550000I-1500000J0D01*
G01*
X115165000Y-87630000D02*
G75*
G03*
X115165000Y-87630000I-1500000J0D01*
G01*
%TO.C,Q7*%
X81415000Y-89380000D02*
X84915000Y-89380000D01*
X84938625Y-89383625D02*
G75*
G03*
X83185000Y-85150000I-1753625J1753625D01*
G01*
X83185000Y-85150000D02*
G75*
G03*
X81431375Y-89383625I0J-2480000D01*
G01*
%TO.C,R3*%
X103975000Y-108690000D02*
X103975000Y-112290000D01*
X105575000Y-112290000D02*
X105575000Y-108690000D01*
X104775000Y-114300000D02*
X104775000Y-112290000D01*
X103975000Y-112290000D02*
X105575000Y-112290000D01*
X105575000Y-108690000D02*
X103975000Y-108690000D01*
X104775000Y-106680000D02*
X104775000Y-108690000D01*
%TD*%
M02*
